<svg width="1440" height="342" viewBox="0 0 1440 342" fill="none" xmlns="http://www.w3.org/2000/svg">
<g clip-path="url(#clip0_5_27)">
<path d="M844.32 150.593C843.979 150.999 843.814 151.524 843.86 152.052L843.962 153.22L834 154.092C833.471 154.138 832.983 154.392 832.642 154.798C832.301 155.205 832.136 155.73 832.182 156.258L832.53 160.243C832.577 160.771 832.831 161.26 833.237 161.601C833.644 161.942 834.169 162.107 834.697 162.061L844.659 161.19L844.833 163.182L835.868 163.966C835.558 163.993 835.26 164.092 834.995 164.255C834.73 164.417 834.507 164.639 834.343 164.903L832.627 167.663C832.513 167.847 832.462 168.062 832.48 168.278C832.499 168.494 832.588 168.697 832.732 168.858L834.901 171.278C835.108 171.51 835.367 171.689 835.655 171.804C835.944 171.918 836.256 171.963 836.565 171.936L845.531 171.151L846.402 181.113L850.387 180.765L849.515 170.803L859.477 169.931C860.006 169.885 860.494 169.631 860.835 169.225C861.176 168.818 861.342 168.293 861.295 167.765L860.947 163.78C860.901 163.251 860.646 162.763 860.24 162.422C859.834 162.081 859.308 161.916 858.78 161.962L848.818 162.833L848.644 160.841L857.61 160.057C857.919 160.029 858.218 159.931 858.482 159.768C858.747 159.606 858.97 159.384 859.134 159.12L860.85 156.36C860.964 156.176 861.016 155.96 860.997 155.745C860.978 155.529 860.89 155.326 860.745 155.165L858.576 152.744C858.369 152.513 858.111 152.333 857.822 152.219C857.533 152.105 857.222 152.06 856.912 152.087L847.947 152.871L847.844 151.704C847.81 151.31 847.659 150.935 847.412 150.627C847.164 150.318 846.831 150.09 846.453 149.971C846.076 149.852 845.672 149.848 845.293 149.958C844.913 150.069 844.574 150.29 844.32 150.593Z" fill="#FF6500"/>
</g>
<g clip-path="url(#clip1_5_27)">
<path d="M583.409 155.591C582.987 156.013 582.75 156.585 582.75 157.181V163H571.5C570.903 163 570.331 163.237 569.909 163.659C569.487 164.081 569.25 164.653 569.25 165.25V174.25C569.25 174.847 569.487 175.419 569.909 175.841C570.331 176.263 570.903 176.5 571.5 176.5H582.75V190H587.25V176.5H595.197C595.527 176.5 595.853 176.427 596.151 176.287C596.45 176.147 596.714 175.943 596.925 175.69L601.274 170.47C601.443 170.268 601.535 170.013 601.535 169.75C601.535 169.487 601.443 169.232 601.274 169.03L596.925 163.81C596.714 163.557 596.45 163.353 596.151 163.213C595.853 163.073 595.527 163 595.197 163H587.25V157.181C587.25 156.737 587.118 156.302 586.871 155.932C586.623 155.562 586.272 155.273 585.861 155.103C585.45 154.933 584.998 154.888 584.561 154.975C584.125 155.062 583.724 155.276 583.409 155.591Z" fill="#FF6500"/>
</g>
<g clip-path="url(#clip2_5_27)">
<path d="M1170.58 78.1162C1170.24 78.605 1170.11 79.2097 1170.21 79.7973L1171.22 85.5274L1160.14 87.4809C1159.55 87.5846 1159.03 87.9174 1158.69 88.4062C1158.35 88.895 1158.21 89.4998 1158.32 90.0875L1159.88 98.9507C1159.98 99.5384 1160.32 100.061 1160.81 100.403C1161.29 100.745 1161.9 100.879 1162.49 100.776L1173.57 98.8223L1175.91 112.117L1180.34 111.336L1178 98.0409L1185.82 96.6609C1186.15 96.6035 1186.46 96.4754 1186.73 96.2857C1187 96.096 1187.22 95.8494 1187.38 95.5632L1190.76 89.6672C1190.89 89.4389 1190.94 89.172 1190.89 88.9129C1190.85 88.6538 1190.71 88.4189 1190.51 88.2491L1185.32 83.8636C1185.07 83.6507 1184.77 83.4958 1184.46 83.4098C1184.14 83.3238 1183.8 83.3089 1183.48 83.366L1175.65 84.746L1174.64 79.0159C1174.57 78.5777 1174.36 78.1723 1174.05 77.851C1173.74 77.5296 1173.35 77.3067 1172.91 77.2104C1172.48 77.1141 1172.03 77.1488 1171.61 77.31C1171.2 77.4712 1170.84 77.7518 1170.58 78.1162Z" fill="#FF6500"/>
</g>
<g clip-path="url(#clip3_5_27)">
<path d="M-1.59075 201.591C-2.01274 202.013 -2.24987 202.585 -2.25 203.181V209H-13.5C-14.0967 209 -14.669 209.237 -15.091 209.659C-15.5129 210.081 -15.75 210.653 -15.75 211.25V220.25C-15.75 220.847 -15.5129 221.419 -15.091 221.841C-14.669 222.263 -14.0967 222.5 -13.5 222.5H-2.25V236H2.25V222.5H10.197C10.5268 222.5 10.8525 222.427 11.1511 222.287C11.4497 222.147 11.7139 221.943 11.925 221.69L16.2742 216.47C16.4426 216.268 16.5348 216.013 16.5348 215.75C16.5348 215.487 16.4426 215.232 16.2742 215.03L11.925 209.81C11.7139 209.557 11.4497 209.353 11.1511 209.213C10.8525 209.073 10.5268 209 10.197 209H2.25V203.181C2.2499 202.737 2.11789 202.302 1.87065 201.932C1.62341 201.562 1.27205 201.273 0.860972 201.103C0.449897 200.933 -0.00242723 200.888 -0.438821 200.975C-0.875215 201.062 -1.27608 201.276 -1.59075 201.591Z" fill="#FF6500"/>
</g>
<path d="M590 185.5C356.668 223.338 168.167 208.333 -13.5 232V415H1459V151.5C1408.5 132.833 1292.6 95.5 1233 95.5C1158.5 95.5 1158 129 992.5 163C827 197 756.5 158.5 590 185.5Z" fill="#01642F"/>
<path d="M77.4194 136.296C77.1107 135.91 76.7116 135.607 76.2575 135.413C75.8035 135.219 75.3085 135.14 74.8165 135.183C74.3246 135.226 73.8508 135.39 73.4374 135.66C73.0239 135.93 72.6836 136.298 72.4464 136.731L56.8681 165.197C56.608 165.673 56.482 166.211 56.5034 166.753C56.5248 167.295 56.6929 167.822 56.9897 168.276C57.2866 168.73 57.7011 169.095 58.1891 169.333C58.6771 169.57 59.2203 169.671 59.761 169.624L60.3467 169.572L49.9526 189.966C49.7094 190.443 49.5984 190.976 49.6311 191.511C49.6637 192.046 49.8388 192.562 50.1383 193.006C50.4377 193.449 50.8505 193.805 51.3339 194.036C51.8172 194.266 52.3535 194.363 52.8869 194.317L54.0286 194.217L45.9511 214.655C45.7627 215.13 45.699 215.646 45.7661 216.153C45.8332 216.66 46.0289 217.142 46.3345 217.552C46.6402 217.962 47.0457 218.288 47.5125 218.497C47.9793 218.706 48.4919 218.793 49.0015 218.748L75.8988 216.395L77.2061 231.338L89.1604 230.292L87.8531 215.349L114.75 212.996C115.26 212.951 115.75 212.777 116.173 212.49C116.596 212.203 116.939 211.812 117.169 211.355C117.399 210.898 117.508 210.39 117.486 209.879C117.464 209.367 117.312 208.87 117.044 208.435L105.546 189.71L106.687 189.61C107.221 189.563 107.732 189.374 108.168 189.063C108.604 188.752 108.949 188.33 109.167 187.841C109.384 187.352 109.467 186.813 109.407 186.281C109.346 185.749 109.144 185.243 108.822 184.815L95.0382 166.537L95.624 166.486C96.1645 166.438 96.6821 166.245 97.1215 165.927C97.5608 165.608 97.9056 165.177 98.1191 164.678C98.3326 164.179 98.4067 163.631 98.3336 163.094C98.2606 162.556 98.043 162.048 97.7042 161.624L77.4194 136.296Z" fill="#01642F"/>
<path d="M212.123 123.451C211.863 123.031 211.504 122.681 211.077 122.433C210.65 122.185 210.169 122.046 209.675 122.029C209.182 122.012 208.691 122.117 208.248 122.335C207.805 122.552 207.422 122.876 207.134 123.277L188.203 149.632C187.886 150.073 187.696 150.592 187.651 151.133C187.606 151.673 187.709 152.216 187.948 152.703C188.187 153.19 188.554 153.603 189.01 153.898C189.465 154.193 189.992 154.359 190.534 154.379L191.122 154.399L178.32 173.374C178.021 173.818 177.845 174.334 177.813 174.868C177.78 175.403 177.891 175.936 178.134 176.414C178.377 176.891 178.743 177.294 179.195 177.582C179.647 177.87 180.167 178.031 180.702 178.05L181.848 178.09L171.34 197.391C171.095 197.84 170.969 198.344 170.973 198.856C170.978 199.367 171.114 199.869 171.367 200.314C171.62 200.758 171.983 201.13 172.421 201.395C172.859 201.66 173.357 201.808 173.868 201.826L200.852 202.768L200.328 217.759L212.321 218.178L212.845 203.187L239.828 204.129C240.339 204.147 240.847 204.034 241.302 203.8C241.757 203.567 242.145 203.221 242.429 202.795C242.713 202.37 242.883 201.878 242.923 201.368C242.964 200.858 242.873 200.347 242.66 199.881L233.53 179.895L234.675 179.935C235.211 179.953 235.741 179.828 236.212 179.573C236.682 179.317 237.076 178.941 237.352 178.482C237.627 178.022 237.775 177.498 237.78 176.962C237.785 176.427 237.646 175.9 237.378 175.436L225.925 155.614L226.512 155.635C227.055 155.654 227.592 155.525 228.067 155.262C228.542 155 228.937 154.613 229.209 154.144C229.482 153.675 229.622 153.141 229.615 152.598C229.608 152.055 229.454 151.525 229.17 151.063L212.123 123.451Z" fill="#01642F"/>
<path d="M432.123 114.451C431.863 114.031 431.504 113.681 431.077 113.433C430.65 113.185 430.169 113.046 429.675 113.029C429.181 113.012 428.691 113.117 428.248 113.335C427.805 113.552 427.422 113.876 427.134 114.277L408.203 140.632C407.886 141.073 407.696 141.592 407.651 142.133C407.606 142.673 407.709 143.216 407.948 143.703C408.187 144.19 408.554 144.603 409.01 144.898C409.465 145.193 409.992 145.359 410.534 145.379L411.122 145.399L398.32 164.374C398.02 164.818 397.845 165.334 397.813 165.868C397.78 166.403 397.891 166.936 398.134 167.414C398.377 167.891 398.743 168.294 399.195 168.582C399.647 168.87 400.167 169.031 400.702 169.05L401.848 169.09L391.34 188.391C391.095 188.84 390.968 189.344 390.973 189.856C390.978 190.367 391.114 190.869 391.367 191.314C391.62 191.758 391.983 192.13 392.421 192.395C392.859 192.66 393.357 192.808 393.868 192.826L420.852 193.768L420.328 208.759L432.321 209.178L432.845 194.187L459.828 195.129C460.339 195.147 460.847 195.034 461.302 194.8C461.757 194.567 462.145 194.221 462.429 193.795C462.713 193.37 462.883 192.878 462.923 192.368C462.964 191.858 462.873 191.347 462.66 190.881L453.53 170.895L454.675 170.935C455.211 170.953 455.741 170.828 456.212 170.573C456.682 170.317 457.076 169.941 457.352 169.482C457.627 169.022 457.775 168.498 457.78 167.962C457.785 167.427 457.646 166.9 457.378 166.436L445.925 146.614L446.512 146.635C447.055 146.654 447.592 146.525 448.067 146.262C448.542 146 448.937 145.613 449.209 145.144C449.482 144.675 449.622 144.141 449.615 143.598C449.608 143.055 449.454 142.525 449.17 142.063L432.123 114.451Z" fill="#01642F"/>
<path d="M1246.5 1.33567C1246.22 0.9248 1245.85 0.587914 1245.42 0.354912C1244.98 0.12191 1244.49 0 1244 0C1243.51 0 1243.02 0.12191 1242.58 0.354912C1242.15 0.587914 1241.78 0.9248 1241.5 1.33567L1223.5 28.3357C1223.2 28.7874 1223.03 29.3123 1223 29.8543C1222.98 30.3964 1223.1 30.9353 1223.36 31.4137C1223.61 31.8921 1223.99 32.292 1224.46 32.571C1224.92 32.8499 1225.46 32.9974 1226 32.9977H1226.59L1214.46 52.4077C1214.17 52.8618 1214.01 53.3836 1214 53.9189C1213.99 54.4543 1214.12 54.9836 1214.38 55.452C1214.64 55.9204 1215.02 56.3107 1215.48 56.5825C1215.94 56.8543 1216.46 56.9977 1217 56.9977H1218.15L1208.32 76.6537C1208.09 77.111 1207.98 77.6194 1208 78.1305C1208.03 78.6416 1208.18 79.1384 1208.45 79.5737C1208.72 80.009 1209.09 80.3683 1209.54 80.6176C1209.99 80.8668 1210.49 80.9977 1211 80.9977H1238V95.9977H1250V80.9977H1277C1277.51 80.9977 1278.01 80.8668 1278.46 80.6176C1278.91 80.3683 1279.28 80.009 1279.55 79.5737C1279.82 79.1384 1279.97 78.6416 1280 78.1305C1280.02 77.6194 1279.91 77.111 1279.68 76.6537L1269.86 56.9977H1271.01C1271.54 56.9977 1272.07 56.8543 1272.53 56.5825C1272.99 56.3107 1273.37 55.9204 1273.63 55.452C1273.89 54.9836 1274.02 54.4543 1274 53.9189C1273.99 53.3836 1273.83 52.8618 1273.55 52.4077L1261.41 32.9977H1262C1262.54 32.9974 1263.07 32.8499 1263.54 32.571C1264.01 32.292 1264.39 31.8921 1264.64 31.4137C1264.9 30.9353 1265.02 30.3964 1264.99 29.8543C1264.97 29.3123 1264.8 28.7874 1264.5 28.3357L1246.5 1.33567Z" fill="#01642F"/>
<path d="M944.419 77.2957C944.111 76.9103 943.712 76.607 943.258 76.4129C942.803 76.2187 942.308 76.1396 941.817 76.1827C941.325 76.2257 940.851 76.3895 940.437 76.6596C940.024 76.9296 939.684 77.2976 939.446 77.7308L923.868 106.197C923.608 106.673 923.482 107.211 923.503 107.753C923.525 108.295 923.693 108.822 923.99 109.276C924.287 109.73 924.701 110.095 925.189 110.333C925.677 110.57 926.22 110.671 926.761 110.624L927.347 110.572L916.953 130.966C916.709 131.443 916.598 131.976 916.631 132.511C916.664 133.046 916.839 133.562 917.138 134.006C917.438 134.449 917.851 134.805 918.334 135.036C918.817 135.266 919.353 135.363 919.887 135.317L921.029 135.217L912.951 155.655C912.763 156.13 912.699 156.646 912.766 157.153C912.833 157.66 913.029 158.142 913.335 158.552C913.64 158.962 914.046 159.288 914.513 159.497C914.979 159.706 915.492 159.793 916.002 159.748L942.899 157.395L944.206 172.338L956.16 171.292L954.853 156.349L981.75 153.996C982.26 153.951 982.75 153.777 983.173 153.49C983.596 153.203 983.939 152.812 984.169 152.355C984.399 151.898 984.508 151.39 984.486 150.879C984.464 150.367 984.312 149.87 984.044 149.435L972.546 130.71L973.687 130.61C974.221 130.563 974.732 130.374 975.168 130.063C975.604 129.752 975.949 129.33 976.167 128.841C976.384 128.352 976.467 127.813 976.407 127.281C976.346 126.749 976.144 126.243 975.822 125.815L962.038 107.537L962.624 107.486C963.165 107.438 963.682 107.245 964.121 106.927C964.561 106.608 964.906 106.177 965.119 105.678C965.333 105.179 965.407 104.631 965.334 104.094C965.261 103.556 965.043 103.048 964.704 102.624L944.419 77.2957Z" fill="#01642F"/>
<path d="M750.123 88.4512C749.863 88.031 749.504 87.6814 749.077 87.4333C748.65 87.1853 748.169 87.0465 747.675 87.0292C747.181 87.012 746.691 87.1169 746.248 87.3345C745.805 87.5522 745.422 87.8759 745.134 88.277L726.203 114.632C725.886 115.073 725.696 115.592 725.651 116.133C725.606 116.673 725.709 117.216 725.948 117.703C726.187 118.19 726.554 118.603 727.01 118.898C727.465 119.193 727.992 119.359 728.534 119.379L729.122 119.399L716.32 138.374C716.02 138.818 715.845 139.334 715.813 139.868C715.78 140.403 715.891 140.936 716.134 141.414C716.377 141.891 716.743 142.294 717.195 142.582C717.647 142.87 718.167 143.031 718.702 143.05L719.848 143.09L709.34 162.391C709.095 162.84 708.968 163.344 708.973 163.856C708.978 164.367 709.114 164.869 709.367 165.314C709.62 165.758 709.983 166.13 710.421 166.395C710.859 166.66 711.357 166.808 711.868 166.826L738.852 167.768L738.328 182.759L750.321 183.178L750.845 168.187L777.828 169.129C778.339 169.147 778.847 169.034 779.302 168.8C779.757 168.567 780.145 168.221 780.429 167.795C780.713 167.37 780.883 166.878 780.923 166.368C780.964 165.858 780.873 165.347 780.66 164.881L771.53 144.895L772.675 144.935C773.211 144.953 773.741 144.828 774.212 144.573C774.682 144.317 775.076 143.941 775.352 143.482C775.627 143.022 775.775 142.498 775.78 141.962C775.785 141.427 775.646 140.9 775.378 140.436L763.925 120.614L764.512 120.635C765.055 120.654 765.592 120.525 766.067 120.262C766.542 120 766.937 119.613 767.209 119.144C767.482 118.675 767.622 118.141 767.615 117.598C767.608 117.055 767.454 116.525 767.17 116.063L750.123 88.4512Z" fill="#01642F"/>
<path d="M290.803 148.965C290.605 148.668 290.337 148.425 290.022 148.256C289.708 148.088 289.357 148 289 148C288.643 148 288.292 148.088 287.978 148.256C287.663 148.425 287.395 148.668 287.197 148.965L274.197 168.465C273.98 168.791 273.856 169.17 273.837 169.562C273.818 169.953 273.906 170.342 274.091 170.688C274.276 171.033 274.551 171.322 274.887 171.524C275.224 171.725 275.608 171.832 276 171.832H276.425L267.663 185.85C267.458 186.178 267.344 186.555 267.334 186.942C267.324 187.328 267.417 187.71 267.605 188.049C267.792 188.387 268.067 188.669 268.4 188.865C268.733 189.062 269.113 189.165 269.5 189.165H270.328L263.23 203.361C263.064 203.691 262.986 204.059 263.002 204.428C263.018 204.797 263.129 205.156 263.323 205.47C263.517 205.784 263.788 206.044 264.111 206.224C264.434 206.404 264.797 206.498 265.167 206.498H284.667V217.332H293.333V206.498H312.833C313.203 206.498 313.566 206.404 313.889 206.224C314.212 206.044 314.483 205.784 314.677 205.47C314.871 205.156 314.982 204.797 314.998 204.428C315.014 204.059 314.936 203.691 314.77 203.361L307.677 189.165H308.504C308.891 189.165 309.271 189.062 309.604 188.865C309.937 188.669 310.212 188.387 310.399 188.049C310.587 187.71 310.68 187.328 310.67 186.942C310.66 186.555 310.547 186.178 310.342 185.85L301.575 171.832H302C302.392 171.832 302.776 171.725 303.113 171.524C303.449 171.322 303.724 171.033 303.909 170.688C304.094 170.342 304.182 169.953 304.163 169.562C304.144 169.17 304.02 168.791 303.803 168.465L290.803 148.965Z" fill="#01642F"/>
<path d="M501.025 151.635C500.878 151.437 500.684 151.278 500.46 151.173C500.237 151.068 499.991 151.02 499.744 151.033C499.497 151.046 499.258 151.119 499.047 151.247C498.835 151.375 498.659 151.553 498.533 151.765L490.252 165.718C490.113 165.951 490.041 166.218 490.042 166.489C490.043 166.76 490.118 167.026 490.259 167.258C490.399 167.491 490.6 167.68 490.839 167.807C491.079 167.935 491.349 167.994 491.62 167.98L491.913 167.965L486.364 177.974C486.234 178.208 486.169 178.473 486.176 178.741C486.183 179.008 486.261 179.269 486.403 179.496C486.545 179.723 486.745 179.908 486.983 180.032C487.22 180.155 487.487 180.213 487.754 180.199L488.326 180.169L483.933 190.241C483.831 190.475 483.79 190.732 483.815 190.987C483.839 191.241 483.929 191.485 484.074 191.696C484.22 191.906 484.417 192.076 484.646 192.188C484.876 192.301 485.131 192.353 485.386 192.34L498.868 191.633L499.26 199.123L505.252 198.809L504.859 191.319L518.341 190.613C518.596 190.599 518.844 190.521 519.061 190.385C519.277 190.249 519.455 190.059 519.578 189.835C519.701 189.611 519.764 189.359 519.762 189.103C519.76 188.847 519.693 188.596 519.566 188.374L514.148 178.816L514.72 178.786C514.987 178.772 515.246 178.687 515.469 178.539C515.693 178.391 515.872 178.186 515.99 177.946C516.107 177.705 516.158 177.437 516.137 177.17C516.116 176.903 516.024 176.647 515.87 176.428L509.302 167.054L509.595 167.038C509.866 167.024 510.128 166.936 510.353 166.785C510.578 166.633 510.758 166.424 510.874 166.178C510.989 165.932 511.036 165.66 511.008 165.39C510.981 165.12 510.881 164.863 510.719 164.645L501.025 151.635Z" fill="#01642F"/>
<path d="M1005.19 115.648C1004.99 115.502 1004.76 115.407 1004.52 115.372C1004.27 115.337 1004.02 115.363 1003.79 115.447C1003.56 115.532 1003.35 115.672 1003.19 115.856C1003.02 116.04 1002.91 116.262 1002.85 116.502L999.007 132.266C998.943 132.53 998.952 132.806 999.033 133.065C999.113 133.324 999.262 133.556 999.465 133.737C999.667 133.918 999.914 134.041 1000.18 134.092C1000.45 134.144 1000.72 134.122 1000.98 134.029L1001.25 133.929L998.873 145.123C998.817 145.385 998.832 145.657 998.917 145.911C999.002 146.165 999.154 146.392 999.356 146.567C999.558 146.743 999.803 146.861 1000.07 146.91C1000.33 146.959 1000.6 146.936 1000.85 146.845L1001.39 146.649L1000.14 157.565C1000.11 157.819 1000.14 158.076 1000.24 158.313C1000.34 158.549 1000.49 158.756 1000.7 158.915C1000.9 159.073 1001.13 159.178 1001.39 159.219C1001.64 159.259 1001.9 159.235 1002.14 159.147L1014.82 154.53L1017.39 161.578L1023.03 159.526L1020.46 152.478L1033.15 147.861C1033.39 147.773 1033.6 147.626 1033.77 147.432C1033.94 147.239 1034.05 147.005 1034.1 146.755C1034.16 146.505 1034.14 146.245 1034.07 146.001C1033.99 145.757 1033.85 145.537 1033.67 145.361L1025.69 137.805L1026.23 137.609C1026.48 137.518 1026.7 137.36 1026.87 137.154C1027.04 136.947 1027.15 136.699 1027.2 136.434C1027.24 136.17 1027.21 135.899 1027.11 135.65C1027.01 135.401 1026.85 135.182 1026.64 135.018L1017.62 127.974L1017.89 127.873C1018.15 127.78 1018.37 127.62 1018.54 127.409C1018.71 127.198 1018.82 126.945 1018.86 126.677C1018.9 126.408 1018.87 126.134 1018.76 125.884C1018.66 125.634 1018.49 125.417 1018.27 125.256L1005.19 115.648Z" fill="#01642F"/>
<path d="M648.859 114.936C648.636 114.657 648.347 114.438 648.019 114.298C647.691 114.158 647.334 114.101 646.979 114.132C646.623 114.163 646.281 114.281 645.983 114.476C645.684 114.671 645.438 114.937 645.267 115.25L634.016 135.809C633.828 136.153 633.737 136.541 633.752 136.933C633.768 137.325 633.889 137.705 634.104 138.033C634.318 138.361 634.618 138.625 634.97 138.796C635.322 138.967 635.715 139.04 636.105 139.006L636.528 138.969L629.021 153.698C628.846 154.042 628.766 154.428 628.789 154.814C628.813 155.2 628.939 155.572 629.155 155.893C629.372 156.214 629.67 156.471 630.019 156.637C630.368 156.804 630.755 156.874 631.141 156.84L631.965 156.768L626.131 171.528C625.995 171.872 625.949 172.244 625.998 172.611C626.046 172.977 626.188 173.325 626.408 173.621C626.629 173.917 626.922 174.152 627.259 174.304C627.596 174.455 627.966 174.517 628.334 174.485L647.76 172.785L648.705 183.578L657.338 182.822L656.394 172.03L675.82 170.331C676.188 170.298 676.542 170.173 676.847 169.965C677.153 169.758 677.401 169.475 677.567 169.145C677.733 168.815 677.812 168.448 677.796 168.079C677.78 167.71 677.67 167.351 677.476 167.036L669.172 153.513L669.997 153.44C670.382 153.407 670.751 153.27 671.066 153.046C671.381 152.821 671.63 152.517 671.787 152.163C671.944 151.81 672.004 151.421 671.961 151.037C671.917 150.652 671.771 150.287 671.538 149.978L661.583 136.777L662.006 136.74C662.397 136.706 662.771 136.566 663.088 136.336C663.405 136.106 663.654 135.794 663.808 135.434C663.963 135.074 664.016 134.678 663.963 134.29C663.911 133.901 663.753 133.535 663.509 133.229L648.859 114.936Z" fill="#01642F"/>
<path d="M1311.73 42.25C1311.56 41.9371 1311.32 41.6714 1311.02 41.4764C1310.72 41.2813 1310.38 41.163 1310.02 41.1319C1309.67 41.1008 1309.31 41.1579 1308.98 41.2982C1308.65 41.4384 1308.36 41.6574 1308.14 41.9358L1293.49 60.2286C1293.25 60.5347 1293.09 60.9015 1293.04 61.2898C1292.98 61.6782 1293.04 62.0736 1293.19 62.4339C1293.35 62.7942 1293.59 63.106 1293.91 63.336C1294.23 63.5659 1294.6 63.7056 1294.99 63.7399L1295.42 63.7769L1285.47 76.9783C1285.23 77.2871 1285.09 77.6527 1285.04 78.037C1285 78.4212 1285.06 78.8102 1285.22 79.1636C1285.37 79.5169 1285.62 79.8217 1285.94 80.0463C1286.25 80.2709 1286.62 80.4071 1287.01 80.4408L1287.83 80.513L1279.52 94.0363C1279.33 94.351 1279.22 94.7099 1279.2 95.0791C1279.19 95.4482 1279.27 95.8153 1279.43 96.1454C1279.6 96.4755 1279.85 96.7577 1280.15 96.9651C1280.46 97.1725 1280.81 97.2983 1281.18 97.3306L1300.61 99.0301L1299.66 109.822L1308.3 110.578L1309.24 99.7855L1328.67 101.485C1329.03 101.517 1329.4 101.455 1329.74 101.304C1330.08 101.152 1330.37 100.917 1330.59 100.621C1330.81 100.325 1330.95 99.9771 1331 99.6108C1331.05 99.2445 1331 98.8719 1330.87 98.5284L1325.04 83.7681L1325.86 83.8403C1326.25 83.874 1326.64 83.8039 1326.99 83.6374C1327.33 83.4709 1327.63 83.214 1327.85 82.8934C1328.06 82.5727 1328.19 82.2 1328.22 81.814C1328.24 81.4279 1328.16 81.0426 1327.98 80.698L1320.47 65.969L1320.89 66.006C1321.29 66.0399 1321.68 65.9673 1322.03 65.796C1322.38 65.6246 1322.68 65.3608 1322.9 65.0327C1323.11 64.7046 1323.23 64.3245 1323.25 63.9329C1323.26 63.5413 1323.17 63.1528 1322.98 62.8089L1311.73 42.25Z" fill="#01642F"/>
<path d="M1093.86 68.9358C1093.64 68.6574 1093.35 68.4384 1093.02 68.2982C1092.69 68.1579 1092.33 68.1008 1091.98 68.1319C1091.62 68.163 1091.28 68.2813 1090.98 68.4764C1090.68 68.6714 1090.44 68.9372 1090.27 69.25L1079.02 89.8089C1078.83 90.1529 1078.74 90.5413 1078.75 90.9329C1078.77 91.3245 1078.89 91.7046 1079.1 92.0327C1079.32 92.3608 1079.62 92.6246 1079.97 92.796C1080.32 92.9673 1080.71 93.0399 1081.11 93.006L1081.53 92.969L1074.02 107.698C1073.85 108.042 1073.77 108.428 1073.79 108.814C1073.81 109.2 1073.94 109.572 1074.16 109.893C1074.37 110.214 1074.67 110.471 1075.02 110.637C1075.37 110.804 1075.76 110.874 1076.14 110.84L1076.97 110.768L1071.13 125.528C1071 125.872 1070.95 126.245 1071 126.611C1071.05 126.977 1071.19 127.325 1071.41 127.621C1071.63 127.917 1071.92 128.152 1072.26 128.304C1072.6 128.455 1072.97 128.517 1073.33 128.485L1092.76 126.785L1093.7 137.578L1102.34 136.822L1101.39 126.03L1120.82 124.331C1121.19 124.298 1121.54 124.173 1121.85 123.965C1122.15 123.758 1122.4 123.475 1122.57 123.145C1122.73 122.815 1122.81 122.448 1122.8 122.079C1122.78 121.71 1122.67 121.351 1122.48 121.036L1114.17 107.513L1115 107.44C1115.38 107.407 1115.75 107.271 1116.07 107.046C1116.38 106.821 1116.63 106.517 1116.79 106.163C1116.94 105.81 1117 105.421 1116.96 105.037C1116.92 104.652 1116.77 104.287 1116.54 103.978L1106.58 90.7769L1107.01 90.7399C1107.4 90.7056 1107.77 90.5659 1108.09 90.336C1108.41 90.106 1108.65 89.7942 1108.81 89.4339C1108.96 89.0736 1109.02 88.6782 1108.96 88.2898C1108.91 87.9015 1108.75 87.5347 1108.51 87.2286L1093.86 68.9358Z" fill="#01642F"/>
<defs>
<clipPath id="clip0_5_27">
<rect width="32" height="32" fill="white" transform="translate(829.666 150.455) rotate(-5)"/>
</clipPath>
<clipPath id="clip1_5_27">
<rect width="36" height="36" fill="white" transform="translate(567 154)"/>
</clipPath>
<clipPath id="clip2_5_27">
<rect width="36" height="36" fill="white" transform="translate(1154.15 79.3991) rotate(-10)"/>
</clipPath>
<clipPath id="clip3_5_27">
<rect width="36" height="36" fill="white" transform="translate(-18 200)"/>
</clipPath>
</defs>
</svg>
