<svg width="178" height="100%" viewBox="0 0 164 48" fill="none" xmlns="http://www.w3.org/2000/svg">
<path fill-rule="evenodd" clip-rule="evenodd" d="M17.0878 9.89573L33.2641 8.39067C33.3953 8.37836 33.5019 8.30757 33.5642 8.19254C33.6265 8.07673 33.6265 7.94823 33.5646 7.83243L29.835 0.839202C29.7819 0.739942 29.6973 0.674153 29.5872 0.647992C27.9691 0.262108 26.2874 0.0401191 24.56 0.000107206C24.4392 -0.0025859 24.3341 0.0455053 24.2572 0.139379L16.758 9.27478C16.658 9.39635 16.6422 9.5564 16.7161 9.69491C16.7892 9.83379 16.9312 9.90997 17.0874 9.89573H17.0878ZM23.5277 30.0202L20.0948 37.9644C20.0471 38.0737 20.0517 38.1872 20.1071 38.2922C20.1625 38.3976 20.2529 38.4657 20.3699 38.4888C21.9019 38.7931 23.4358 39.1025 24.9789 39.4195C25.1263 39.4499 25.269 39.396 25.3594 39.276L29.0182 34.4411C29.1406 34.2787 29.1144 34.049 28.959 33.919L24.1214 29.8786C24.026 29.7993 23.9098 29.7716 23.789 29.8009C23.6682 29.8297 23.577 29.9059 23.5277 30.0202ZM12.8323 37.0326L12.8503 37.0369C14.5755 37.3612 16.2871 37.6886 17.9953 38.0218C18.0446 38.031 18.0931 38.031 18.1392 38.0229L12.8323 37.0326ZM11.4965 38.4177C11.4807 38.415 11.4646 38.4119 11.4495 38.4084C11.4465 38.4073 11.4438 38.4069 11.4403 38.4065L4.60598 36.9922C4.45017 36.9599 4.29897 37.0226 4.21163 37.1546C4.12353 37.2869 4.12507 37.4501 4.21471 37.5809C5.04919 38.7939 5.99216 39.9266 7.03016 40.9642C11.373 45.3074 17.3732 47.9936 24.0006 47.9936C24.3526 47.9936 24.7027 47.9855 25.0513 47.9705C25.1594 47.9659 25.2506 47.922 25.3217 47.8404C25.3925 47.7589 25.4237 47.6627 25.4141 47.5546L24.8327 41.3047C24.8174 41.135 24.6977 41.0015 24.5303 40.9673L18.6436 39.7519C18.6417 39.7515 18.639 39.7507 18.6371 39.7507L11.503 38.4196C11.5011 38.4192 11.4988 38.4184 11.4969 38.418L11.4965 38.4177ZM10.9652 36.2385L11.5592 30.3837C11.57 30.2756 11.5392 30.1783 11.468 30.096L1.29 18.3409C1.1942 18.2297 1.05339 18.1851 0.911039 18.2205C0.768689 18.2555 0.665197 18.3602 0.631726 18.5033C0.218911 20.2665 0 22.1044 0 23.9934C0 27.8726 0.920658 31.5372 2.55499 34.7797C2.60885 34.8874 2.70003 34.957 2.81776 34.9816L10.5089 36.5733C10.6185 36.596 10.7216 36.5733 10.8117 36.5071C10.9013 36.4409 10.9536 36.3497 10.9648 36.2385H10.9652ZM11.8881 27.1443L13.3813 12.4242C13.3936 12.3022 13.352 12.1918 13.2624 12.1075C13.1728 12.0241 13.06 11.9898 12.9388 12.0102L2.45688 13.7827C2.32877 13.8042 2.22835 13.8811 2.17411 13.9993C1.90941 14.5767 1.66665 15.1665 1.44735 15.7679C1.39888 15.901 1.42427 16.0399 1.51699 16.1476L11.2214 27.3548C11.323 27.4725 11.4761 27.5156 11.6242 27.469C11.7723 27.4221 11.8728 27.299 11.8885 27.1443H11.8881ZM35.9957 10.1427L37.0848 25.8909C37.0921 25.999 37.1387 26.089 37.2214 26.1582C37.3049 26.2267 37.4022 26.2556 37.51 26.2429L47.6553 25.0279C47.8438 25.0052 47.985 24.8502 47.9904 24.6601C47.9965 24.4389 48 24.2165 48 23.9938C48 18.4979 46.1525 13.4341 43.0451 9.38828C42.9643 9.28286 42.8458 9.23015 42.7138 9.24015L36.3462 9.73684C36.138 9.75338 35.9814 9.93459 35.9957 10.1423V10.1427ZM35.8198 8.16291L40.8302 7.77203C40.9814 7.7601 41.1041 7.66738 41.1576 7.5258C41.2103 7.38345 41.178 7.23264 41.0714 7.12453C41.0379 7.09067 41.0045 7.05682 40.9706 7.02296C38.6803 4.73266 35.9291 2.90289 32.8678 1.68561C32.7162 1.6252 32.552 1.66406 32.4431 1.78564C32.3346 1.90721 32.3138 2.07495 32.3908 2.21884L35.4544 7.96247C35.5271 8.09866 35.6656 8.17445 35.8195 8.16291H35.8198ZM47.376 26.6834L36.4662 27.9899C36.4631 27.9899 36.4604 27.9903 36.4581 27.9911L36.4335 27.993C36.4316 27.9934 36.43 27.9934 36.4277 27.9934L26.3724 28.8125C26.2151 28.8252 26.0881 28.9264 26.0404 29.0768C25.9927 29.2272 26.0385 29.3831 26.1593 29.4839L30.8141 33.3719C30.8218 33.3781 30.8284 33.3831 30.8361 33.3889L40.8787 40.5941C41.0345 40.7056 41.2449 40.6856 41.3765 40.5475C44.8048 36.9499 47.127 32.2893 47.7984 27.1105C47.8142 26.99 47.7769 26.88 47.6914 26.7934C47.6064 26.7073 47.4964 26.6688 47.376 26.6834ZM4.00734 11.8882L13.7687 10.2381C13.863 10.2224 13.9387 10.1781 13.9995 10.1043L21.6691 0.760333C21.7695 0.637989 21.7849 0.476018 21.7095 0.33713C21.6341 0.197858 21.4902 0.122451 21.3329 0.139764C15.7708 0.754562 10.7813 3.26992 7.02901 7.02219C5.73708 8.31411 4.59175 9.75261 3.62069 11.3108C3.53913 11.4408 3.54182 11.597 3.62723 11.724C3.71225 11.8517 3.85576 11.9129 4.00696 11.8875L4.00734 11.8882ZM39.5694 41.6375L30.8111 35.3537C30.6437 35.2332 30.4098 35.2686 30.2855 35.4337L26.4682 40.4779C26.4082 40.5567 26.3832 40.6449 26.3924 40.7433L27.0122 47.4061C27.0219 47.5142 27.0707 47.6027 27.1557 47.67C27.2404 47.737 27.3385 47.7631 27.4458 47.7477C32.0457 47.0864 36.2246 45.1204 39.5952 42.2365C39.6868 42.158 39.7329 42.0514 39.7279 41.9306C39.7229 41.8102 39.6675 41.7082 39.5698 41.6375H39.5694Z" fill="#016450"/>
<path fill-rule="evenodd" clip-rule="evenodd" d="M13.2097 30.039L12.5545 36.4983C12.5272 36.7668 12.7092 37.0088 12.9739 37.0588L17.9007 37.9783C18.1408 38.0233 18.3739 37.8994 18.4709 37.6751L22.6837 27.9273C22.8056 27.6445 23.0711 27.4679 23.3577 27.4452L23.3573 27.4421L35.0012 26.4941C35.2828 26.4711 35.4944 26.2248 35.4751 25.9428L34.4025 10.4301C34.3929 10.2859 34.3317 10.1654 34.2217 10.0716C34.1117 9.9777 33.9824 9.9373 33.8385 9.95077L15.4946 11.657C15.2457 11.6801 15.0529 11.8717 15.0279 12.1203L13.2101 30.0394L13.2097 30.039Z" fill="#FF6500"/>
<path d="M70.552 15.8808C70.552 16.5315 70.4027 17.1288 70.104 17.6728C69.8053 18.2061 69.3467 18.6381 68.728 18.9688C68.1093 19.2995 67.3413 19.4648 66.424 19.4648H64.728V23.4968H61.992V12.2648H66.424C67.32 12.2648 68.0773 12.4195 68.696 12.7288C69.3147 13.0381 69.7787 13.4648 70.088 14.0088C70.3973 14.5528 70.552 15.1768 70.552 15.8808ZM66.216 17.2888C66.7387 17.2888 67.128 17.1661 67.384 16.9208C67.64 16.6755 67.768 16.3288 67.768 15.8808C67.768 15.4328 67.64 15.0861 67.384 14.8408C67.128 14.5955 66.7387 14.4728 66.216 14.4728H64.728V17.2888H66.216ZM80.7924 14.5688V23.4968H78.0564V22.2808C77.779 22.6755 77.4004 22.9955 76.9204 23.2408C76.451 23.4755 75.9284 23.5928 75.3524 23.5928C74.6697 23.5928 74.067 23.4435 73.5444 23.1448C73.0217 22.8355 72.6164 22.3928 72.3284 21.8168C72.0404 21.2408 71.8964 20.5635 71.8964 19.7848V14.5688H74.6164V19.4168C74.6164 20.0141 74.771 20.4781 75.0804 20.8088C75.3897 21.1395 75.8057 21.3048 76.3284 21.3048C76.8617 21.3048 77.283 21.1395 77.5924 20.8088C77.9017 20.4781 78.0564 20.0141 78.0564 19.4168V14.5688H80.7924ZM88.1976 14.4728C89.243 14.4728 90.075 14.8141 90.6936 15.4968C91.323 16.1688 91.6376 17.0968 91.6376 18.2808V23.4968H88.9176V18.6488C88.9176 18.0515 88.763 17.5875 88.4536 17.2568C88.1443 16.9261 87.7283 16.7608 87.2056 16.7608C86.683 16.7608 86.267 16.9261 85.9576 17.2568C85.6483 17.5875 85.4936 18.0515 85.4936 18.6488V23.4968H82.7576V14.5688H85.4936V15.7528C85.771 15.3581 86.1443 15.0488 86.6136 14.8248C87.083 14.5901 87.611 14.4728 88.1976 14.4728ZM102.659 14.5688L97.0589 27.7368H94.1149L96.1629 23.1928L92.5309 14.5688H95.5869L97.6509 20.1528L99.6989 14.5688H102.659ZM103.104 19.0168C103.104 18.0995 103.275 17.2941 103.616 16.6008C103.968 15.9075 104.443 15.3741 105.04 15.0008C105.638 14.6275 106.304 14.4408 107.04 14.4408C107.67 14.4408 108.219 14.5688 108.688 14.8248C109.168 15.0808 109.536 15.4168 109.792 15.8328V14.5688H112.528V23.4968H109.792V22.2328C109.526 22.6488 109.152 22.9848 108.672 23.2408C108.203 23.4968 107.654 23.6248 107.024 23.6248C106.299 23.6248 105.638 23.4381 105.04 23.0648C104.443 22.6808 103.968 22.1421 103.616 21.4488C103.275 20.7448 103.104 19.9341 103.104 19.0168ZM109.792 19.0328C109.792 18.3501 109.6 17.8115 109.216 17.4168C108.843 17.0221 108.384 16.8248 107.84 16.8248C107.296 16.8248 106.832 17.0221 106.448 17.4168C106.075 17.8008 105.888 18.3341 105.888 19.0168C105.888 19.6995 106.075 20.2435 106.448 20.6488C106.832 21.0435 107.296 21.2408 107.84 21.2408C108.384 21.2408 108.843 21.0435 109.216 20.6488C109.6 20.2541 109.792 19.7155 109.792 19.0328ZM119.484 21.1768V23.4968H118.092C117.1 23.4968 116.326 23.2568 115.772 22.7768C115.217 22.2861 114.94 21.4915 114.94 20.3928V16.8408H113.852V14.5688H114.94V12.3928H117.676V14.5688H119.468V16.8408H117.676V20.4248C117.676 20.6915 117.74 20.8835 117.868 21.0008C117.996 21.1181 118.209 21.1768 118.508 21.1768H119.484ZM120.464 19.0168C120.464 18.0995 120.634 17.2941 120.976 16.6008C121.328 15.9075 121.802 15.3741 122.4 15.0008C122.997 14.6275 123.664 14.4408 124.4 14.4408C125.029 14.4408 125.578 14.5688 126.048 14.8248C126.528 15.0808 126.896 15.4168 127.152 15.8328V14.5688H129.888V23.4968H127.152V22.2328C126.885 22.6488 126.512 22.9848 126.032 23.2408C125.562 23.4968 125.013 23.6248 124.384 23.6248C123.658 23.6248 122.997 23.4381 122.4 23.0648C121.802 22.6808 121.328 22.1421 120.976 21.4488C120.634 20.7448 120.464 19.9341 120.464 19.0168ZM127.152 19.0328C127.152 18.3501 126.96 17.8115 126.576 17.4168C126.202 17.0221 125.744 16.8248 125.2 16.8248C124.656 16.8248 124.192 17.0221 123.808 17.4168C123.434 17.8008 123.248 18.3341 123.248 19.0168C123.248 19.6995 123.434 20.2435 123.808 20.6488C124.192 21.0435 124.656 21.2408 125.2 21.2408C125.744 21.2408 126.202 21.0435 126.576 20.6488C126.96 20.2541 127.152 19.7155 127.152 19.0328ZM137.307 14.4728C138.352 14.4728 139.184 14.8141 139.803 15.4968C140.432 16.1688 140.747 17.0968 140.747 18.2808V23.4968H138.027V18.6488C138.027 18.0515 137.872 17.5875 137.563 17.2568C137.254 16.9261 136.838 16.7608 136.315 16.7608C135.792 16.7608 135.376 16.9261 135.067 17.2568C134.758 17.5875 134.603 18.0515 134.603 18.6488V23.4968H131.867V14.5688H134.603V15.7528C134.88 15.3581 135.254 15.0488 135.723 14.8248C136.192 14.5901 136.72 14.4728 137.307 14.4728ZM142.104 19.0168C142.104 18.0995 142.275 17.2941 142.616 16.6008C142.968 15.9075 143.443 15.3741 144.04 15.0008C144.638 14.6275 145.304 14.4408 146.04 14.4408C146.67 14.4408 147.219 14.5688 147.688 14.8248C148.168 15.0808 148.536 15.4168 148.792 15.8328V14.5688H151.528V23.4968H148.792V22.2328C148.526 22.6488 148.152 22.9848 147.672 23.2408C147.203 23.4968 146.654 23.6248 146.024 23.6248C145.299 23.6248 144.638 23.4381 144.04 23.0648C143.443 22.6808 142.968 22.1421 142.616 21.4488C142.275 20.7448 142.104 19.9341 142.104 19.0168ZM148.792 19.0328C148.792 18.3501 148.6 17.8115 148.216 17.4168C147.843 17.0221 147.384 16.8248 146.84 16.8248C146.296 16.8248 145.832 17.0221 145.448 17.4168C145.075 17.8008 144.888 18.3341 144.888 19.0168C144.888 19.6995 145.075 20.2435 145.448 20.6488C145.832 21.0435 146.296 21.2408 146.84 21.2408C147.384 21.2408 147.843 21.0435 148.216 20.6488C148.6 20.2541 148.792 19.7155 148.792 19.0328ZM158.996 14.4728C160.02 14.4728 160.841 14.8141 161.46 15.4968C162.078 16.1688 162.388 17.0968 162.388 18.2808V23.4968H159.668V18.6488C159.668 18.0515 159.513 17.5875 159.204 17.2568C158.894 16.9261 158.478 16.7608 157.956 16.7608C157.433 16.7608 157.017 16.9261 156.708 17.2568C156.398 17.5875 156.244 18.0515 156.244 18.6488V23.4968H153.508V11.6568H156.244V15.7688C156.521 15.3741 156.9 15.0595 157.38 14.8248C157.86 14.5901 158.398 14.4728 158.996 14.4728ZM62.21 38.5668C62.0033 38.5668 61.83 38.4968 61.69 38.3568C61.55 38.2168 61.48 38.0435 61.48 37.8368C61.48 37.6301 61.55 37.4568 61.69 37.3168C61.83 37.1768 62.0033 37.1068 62.21 37.1068C62.41 37.1068 62.58 37.1768 62.72 37.3168C62.86 37.4568 62.93 37.6301 62.93 37.8368C62.93 38.0435 62.86 38.2168 62.72 38.3568C62.58 38.4968 62.41 38.5668 62.21 38.5668ZM63.7821 35.7368C63.7821 35.1701 63.8954 34.6735 64.1221 34.2468C64.3554 33.8135 64.6754 33.4801 65.0821 33.2468C65.4888 33.0135 65.9554 32.8968 66.4821 32.8968C67.1488 32.8968 67.6988 33.0568 68.1321 33.3768C68.5721 33.6901 68.8688 34.1401 69.0221 34.7268H67.7921C67.6921 34.4535 67.5321 34.2401 67.3121 34.0868C67.0921 33.9335 66.8154 33.8568 66.4821 33.8568C66.0154 33.8568 65.6421 34.0235 65.3621 34.3568C65.0888 34.6835 64.9521 35.1435 64.9521 35.7368C64.9521 36.3301 65.0888 36.7935 65.3621 37.1268C65.6421 37.4601 66.0154 37.6268 66.4821 37.6268C67.1421 37.6268 67.5788 37.3368 67.7921 36.7568H69.0221C68.8621 37.3168 68.5621 37.7635 68.1221 38.0968C67.6821 38.4235 67.1354 38.5868 66.4821 38.5868C65.9554 38.5868 65.4888 38.4701 65.0821 38.2368C64.6754 37.9968 64.3554 37.6635 64.1221 37.2368C63.8954 36.8035 63.7821 36.3035 63.7821 35.7368ZM72.5482 38.5868C72.0282 38.5868 71.5582 38.4701 71.1382 38.2368C70.7182 37.9968 70.3882 37.6635 70.1482 37.2368C69.9082 36.8035 69.7882 36.3035 69.7882 35.7368C69.7882 35.1768 69.9115 34.6801 70.1582 34.2468C70.4049 33.8135 70.7415 33.4801 71.1682 33.2468C71.5949 33.0135 72.0715 32.8968 72.5982 32.8968C73.1249 32.8968 73.6015 33.0135 74.0282 33.2468C74.4549 33.4801 74.7915 33.8135 75.0382 34.2468C75.2849 34.6801 75.4082 35.1768 75.4082 35.7368C75.4082 36.2968 75.2815 36.7935 75.0282 37.2268C74.7749 37.6601 74.4282 37.9968 73.9882 38.2368C73.5549 38.4701 73.0749 38.5868 72.5482 38.5868ZM72.5482 37.5968C72.8415 37.5968 73.1149 37.5268 73.3682 37.3868C73.6282 37.2468 73.8382 37.0368 73.9982 36.7568C74.1582 36.4768 74.2382 36.1368 74.2382 35.7368C74.2382 35.3368 74.1615 35.0001 74.0082 34.7268C73.8549 34.4468 73.6515 34.2368 73.3982 34.0968C73.1449 33.9568 72.8715 33.8868 72.5782 33.8868C72.2849 33.8868 72.0115 33.9568 71.7582 34.0968C71.5115 34.2368 71.3149 34.4468 71.1682 34.7268C71.0215 35.0001 70.9482 35.3368 70.9482 35.7368C70.9482 36.3301 71.0982 36.7901 71.3982 37.1168C71.7049 37.4368 72.0882 37.5968 72.5482 37.5968ZM83.2052 32.8968C83.6385 32.8968 84.0252 32.9868 84.3652 33.1668C84.7118 33.3468 84.9818 33.6135 85.1752 33.9668C85.3752 34.3201 85.4752 34.7468 85.4752 35.2468V38.4968H84.3452V35.4168C84.3452 34.9235 84.2218 34.5468 83.9752 34.2868C83.7285 34.0201 83.3918 33.8868 82.9652 33.8868C82.5385 33.8868 82.1985 34.0201 81.9452 34.2868C81.6985 34.5468 81.5752 34.9235 81.5752 35.4168V38.4968H80.4452V35.4168C80.4452 34.9235 80.3218 34.5468 80.0752 34.2868C79.8285 34.0201 79.4918 33.8868 79.0652 33.8868C78.6385 33.8868 78.2985 34.0201 78.0452 34.2868C77.7985 34.5468 77.6752 34.9235 77.6752 35.4168V38.4968H76.5352V32.9868H77.6752V33.6168C77.8618 33.3901 78.0985 33.2135 78.3852 33.0868C78.6718 32.9601 78.9785 32.8968 79.3052 32.8968C79.7452 32.8968 80.1385 32.9901 80.4852 33.1768C80.8318 33.3635 81.0985 33.6335 81.2852 33.9868C81.4518 33.6535 81.7118 33.3901 82.0652 33.1968C82.4185 32.9968 82.7985 32.8968 83.2052 32.8968Z" fill="#212121"/>
</svg>
