<svg width="273" height="245" viewBox="0 0 273 245" fill="none" xmlns="http://www.w3.org/2000/svg">
<path d="M260.506 56.5714L261.347 57.0523L261.708 57.4129L261.588 57.7736L261.227 57.5332L260.386 56.9321H260.145L260.386 57.2927L260.746 58.1342L261.467 58.9757L261.828 59.3364L262.189 59.5768V59.8173L261.588 59.697L261.107 59.3364L260.506 58.7353L260.265 58.3747L259.905 57.8938L259.664 57.0523V56.4512L260.265 56.2108L260.506 56.5714ZM232.86 30.4846L232.74 30.8453H232.619L232.139 30.7251H231.297H231.057L230.816 30.8453L230.576 31.0857H230.336L229.855 30.8453V30.4846L229.975 30.0038L230.336 29.6431L230.816 29.4027H231.297L231.778 29.5229L232.619 29.8836L232.86 30.124V30.4846ZM236.225 31.807L235.985 32.0474L235.624 31.9272L235.504 31.4464L235.384 30.9655L233.942 30.2442L233.581 29.7633L233.22 29.1623L232.98 28.5612L232.86 27.8399L233.22 27.2388L233.821 26.9984H235.384H235.745L236.225 27.1186L236.586 27.2388L236.826 27.5995V27.9601V28.5612L236.706 29.1623L236.346 29.7633L236.466 31.3262L236.225 31.807ZM242.356 26.1569L242.235 26.5175L241.875 26.3973L240.553 25.5558L240.432 25.0749L239.471 24.3536L239.351 23.8728L239.471 23.1515L239.952 22.9111L240.553 23.0313L241.154 23.3919L241.514 23.7526L241.875 24.3536L242.235 24.8345L242.356 25.4356V25.676V26.1569ZM232.259 25.3154L232.499 25.4356V25.676V25.9164L232.018 26.5175L230.937 26.2771L228.773 25.4356H226.489L226.129 25.3154L225.648 25.1952L225.287 24.9547L225.047 24.7143L224.806 24.4739L224.686 24.1132V23.7526L224.927 23.5121L225.407 23.0313L225.768 22.9111H226.008L226.249 23.0313L226.73 23.3919H227.09L229.254 23.6323L229.735 23.8728L230.336 24.7143L230.816 24.8345L231.057 24.9547L231.658 25.1952L232.259 25.3154ZM238.99 15.5779L239.591 15.8183L240.072 16.0588L240.673 16.4194L241.033 16.7801L241.274 17.1407L241.154 17.5014H240.673L240.192 17.3811L239.471 17.0205L239.11 16.6598L238.509 15.9386L238.269 15.6981L238.75 15.5779H238.99ZM237.427 12.5725L236.346 12.6927L235.264 11.8512L234.543 10.6491L235.023 9.44691L235.865 8.60539L236.225 8.36497L236.586 8.60539L237.307 9.32669L238.389 9.92777L238.629 10.1682V10.8895L238.389 11.6108L237.427 12.5725ZM237.427 8.00432L238.269 8.12454H241.274H242.716L242.836 8.48518L242.957 9.68734L243.437 10.6491L242.596 11.2501L242.235 11.4906H241.755L240.913 11.2501L240.432 10.5288L238.99 9.68734L238.269 8.84583L237.427 8.00432ZM207.858 178.47H207.738L205.094 177.629L203.17 177.268L197.04 176.907L196.319 176.667L194.035 176.547L193.554 176.426L192.833 176.066L192.473 176.186L192.232 176.306L191.751 176.787L191.391 176.907L190.91 177.148L190.67 177.268V177.629L190.549 177.869L190.189 177.989L189.588 178.23L189.468 178.109L189.347 177.989L188.987 177.388L188.746 175.705L188.025 173.782V173.301L188.145 171.377L188.506 170.295L188.266 169.935L188.025 169.815L187.184 169.694L186.703 169.454L186.342 169.093L186.102 168.372V167.771V167.41L186.222 167.05L186.342 166.569L186.222 163.443L185.02 160.678L184.9 160.077L184.78 159.476L184.66 159.236L184.179 158.755L183.938 158.394V158.033L183.818 157.192L183.578 156.831L183.337 156.591H182.857L181.655 156.471L182.616 155.148L183.217 154.547L183.578 154.307L183.818 154.066H184.539H184.9L185.261 154.187L185.621 154.066L185.982 153.706L186.463 152.984L187.785 150.58L187.905 149.979L188.025 148.657L188.145 148.296L187.785 145.17L187.304 145.291L186.943 145.411L186.583 145.651H186.342H186.102L185.741 145.17L185.501 144.81L184.9 144.329L184.78 144.088L184.539 143.608L184.419 143.247L183.938 142.766L183.578 142.526L183.217 142.285L182.616 142.165L181.775 141.804L180.933 141.564L180.573 141.444L180.332 141.323L179.01 140.242L178.89 139.881L178.77 139.52L178.89 139.28L178.77 138.799L178.65 138.438L177.808 137.356L177.688 136.996L177.087 133.87L176.967 132.908V132.428L176.726 131.947L175.404 130.143L174.923 129.182L174.683 128.22L174.563 127.739L174.443 126.417L174.322 125.936L173.962 124.974V124.493L174.082 122.57L174.202 121.608L174.443 121.127L175.164 119.925L175.284 119.324L175.645 117.521L175.765 117.04L175.885 116.799V116.559L175.645 116.319L174.803 116.198L173.962 115.958H173.721L173.361 116.078L172.76 116.198H172.399L171.678 116.679L169.635 119.084L169.394 119.444L169.034 119.925L168.793 120.045L168.072 120.406L167.832 120.526L166.87 121.488H166.509L166.269 121.127L166.149 120.887L166.269 120.526V120.165V119.925L166.029 119.564V119.324V119.084V118.603L166.509 117.28L167.351 115.237V114.996V114.636L167.231 114.275L167.11 113.914L166.87 113.433L166.269 112.472L166.149 112.231V111.991V111.27V110.909L166.029 110.668L165.788 110.067L165.668 109.707L165.548 109.346V108.625L165.668 108.264L166.029 107.302L167.471 104.297L167.711 104.057L168.312 103.456L168.673 103.215L168.793 102.854L168.913 102.494L168.793 102.253L168.553 101.652L168.433 101.292L168.312 100.21L168.192 99.9693L167.952 99.6086L167.711 99.1278L167.591 98.8873L167.351 98.6469L166.75 98.4065L166.63 98.166L166.389 97.8054L166.269 97.565H165.908L165.428 97.4447L163.985 97.565L163.625 97.6852L163.504 97.8054L163.384 98.166L163.144 98.4065L162.423 98.5267L161.221 98.7671L159.898 99.248L159.177 99.7288L158.576 100.21L158.095 100.57L150.643 101.412H150.162L149.681 101.171L147.758 100.931L147.277 100.811L146.917 100.57L146.316 100.089L145.955 99.9693L145.474 99.8491L144.272 99.7288L143.191 99.8491H142.109H141.628L141.147 100.089L140.907 100.33L140.546 100.691L140.306 100.931L139.945 101.051L138.863 101.171L138.383 101.292L137.301 101.773H136.94L135.618 102.013L134.897 102.253L135.257 101.292L135.378 101.051L135.738 100.57L135.979 100.45L136.58 100.21L136.82 99.9693L137.421 99.0076L138.383 98.0458L138.623 97.565L138.743 96.9639V96.3628L138.863 95.8819L138.984 95.4011L139.224 94.8L139.344 94.3191V93.8383L139.224 93.4776L138.984 93.2372L138.743 93.117H138.503L138.262 93.2372L137.661 93.3574H137.421L137.181 93.2372L137.06 92.9968V92.7563L137.181 92.1553V91.6744V91.3138L137.301 91.0733L137.782 90.5925L138.142 90.352L139.344 89.7509L140.186 89.1499L140.907 88.7892L141.147 88.669L143.671 86.5051L143.912 86.2647L144.513 86.0243L145.234 85.4232L145.715 85.0625L145.955 84.8221L146.075 84.4615L146.196 83.8604V83.3795L146.075 83.0189L145.715 82.538V82.0571V81.6965L146.075 79.6528L146.196 79.172L150.042 77.6092L150.523 77.489H151.124L151.725 77.8496L153.768 79.2922L154.369 79.5326L154.97 79.2922L155.451 78.9315L155.571 78.4507V77.8496L155.451 77.3687V76.6474L155.691 76.2868L156.653 75.4453L157.014 75.0846L157.735 73.8825L158.216 72.5601L158.456 70.7569V69.9154L158.216 69.1941L158.336 68.9536L158.456 68.7132L158.696 68.4728L158.937 68.2323H159.297L160.62 67.9919L162.062 67.3908L162.423 67.1504L162.543 66.6695L162.423 66.0685V65.5876L162.543 65.227L162.663 64.6259L162.783 64.2652V63.9046L162.663 63.5439L162.423 63.4237H161.822L161.461 63.6642H161.1L160.86 63.0631V62.8226V61.9811L160.74 61.7407L160.499 61.2598L160.379 61.0194V60.5386L160.62 59.096L161.1 58.1342L161.822 57.6534L163.865 57.4129L164.586 57.1725L164.706 56.8119V56.4512L164.586 55.8501L164.827 55.3693L165.067 55.1288L166.149 55.2491L166.63 54.8884L167.711 53.9267L168.192 53.8065L168.553 53.566L169.514 52.3639L170.115 52.0032L171.317 51.883L171.918 51.7628L172.159 51.2819V50.8011L171.798 50.2L171.438 49.5989L171.077 49.1181L170.837 48.9978L170.476 48.7574H170.115L169.875 48.6372L169.514 48.7574L169.034 48.9978H168.673L168.312 48.6372V48.1563L168.553 47.5553L168.673 46.9542V46.7138L168.312 46.2329V45.9925L168.433 45.6318L169.034 45.5116L169.274 45.2712L169.514 44.6701L169.394 44.1892L168.673 43.2275L168.553 42.8668L168.673 42.7466H168.913L169.154 42.386L169.394 42.1456L169.635 41.3041L169.995 40.703L170.476 40.3423L171.918 39.2604L172.279 38.8997L172.76 38.0582L173.12 37.3369L173.481 37.4571L174.202 38.4189L174.923 38.7795L175.765 38.6593L177.448 37.938L178.529 37.8178L178.89 37.5774L179.13 37.0965L179.251 36.0146L179.371 35.5337L180.332 34.3315L180.212 34.0911L179.852 33.9709L179.491 33.49V33.0092L180.332 29.0421L180.813 27.8399L181.414 27.359H181.655L182.135 27.4792H182.376L182.496 27.1186V26.8782L182.256 26.3973L181.895 25.5558L181.775 25.1952V24.9547V24.4739V24.2334L181.174 22.5504L181.054 21.9493V20.9876L181.174 19.9057L182.256 16.9003L182.135 15.9386L181.775 15.5779L181.294 15.3375L180.933 14.9768V14.3757L181.054 14.1353L182.015 13.6545L182.256 13.414L182.736 12.3321L183.097 11.2501L183.337 8.84583L183.698 7.8841L183.938 7.64367L184.419 7.40324L184.78 7.04259L185.982 5.96065L186.102 6.08087L186.342 6.3213L186.583 6.44151L186.943 6.3213L187.184 5.72022L188.145 4.87871L188.266 4.15742V3.19569L188.506 2.4744L188.867 2.11375L189.227 1.99354L189.347 2.23397L189.468 2.71483L189.828 3.07548L190.309 3.19569H191.391L191.992 3.43612L192.352 3.67656L192.473 3.79677L192.593 4.27763L192.713 4.7585L193.074 4.99893L193.434 5.11914L193.795 4.99893L194.997 3.79677L195.478 3.43612L195.838 3.19569L195.958 2.95526L196.199 2.35419L196.439 2.4744L196.8 2.59461H197.401L198.483 2.95526H198.843L199.685 2.71483L200.406 2.35419L201.007 2.23397L201.728 2.95526H202.089H202.329V3.07548L202.449 3.43612L203.17 4.51807L203.411 4.63828L203.651 4.7585L203.892 4.63828L204.613 3.91699H204.853L205.094 4.0372L205.574 3.91699L205.815 3.79677L205.695 3.43612L205.574 3.19569L205.815 2.71483L206.416 2.23397L206.536 1.87332H206.897L207.978 3.55634H208.339L208.94 3.31591L209.661 3.55634H210.142L210.623 3.31591L211.464 2.71483H211.945L212.907 3.43612L213.868 3.67656L216.032 3.19569H216.993L218.556 3.67656L223.364 3.55634L223.604 3.43612L223.965 3.07548L224.326 2.95526L224.686 3.07548L224.927 3.19569L225.287 3.67656L226.249 4.39785L228.292 5.47979L229.855 7.04259L230.456 7.40324L231.177 7.64367L232.018 7.76389H232.499H233.22L233.581 7.8841L233.821 8.12454L233.581 8.24475L232.86 8.96605L232.619 9.08626H232.259L228.773 7.8841L228.893 8.36497L229.134 8.48518L229.614 8.72561V8.96605L229.374 9.44691V9.68734L229.735 9.80755H230.336L230.816 9.92777L231.177 10.1682L231.417 10.5288L231.297 10.8895V11.1299L231.538 11.2501L231.778 11.1299L232.018 11.0097L232.379 10.8895L232.619 11.0097L235.023 13.414L235.384 13.6545L236.346 13.8949L236.706 14.0151L237.067 14.3757L236.947 14.6162L236.586 14.9768H235.985L235.384 14.8566L234.422 14.2555L233.942 14.0151L232.74 13.8949V14.1353H233.461L234.182 14.496L234.783 14.9768L235.264 15.4577L235.624 15.5779H236.105L236.466 15.4577L236.826 15.3375L237.067 15.4577L237.788 15.9386L237.908 16.179L239.351 17.5014L239.471 17.862V18.1024L239.351 18.2226H238.87L237.307 18.1024L237.668 18.4631L238.149 18.7035L239.351 19.1844L240.432 19.3046L240.673 19.545L240.553 20.0259L240.312 20.2663L239.591 20.627L239.351 20.9876L238.87 21.5887L238.509 21.8291L235.985 21.9493H235.384L234.422 21.3483H233.821L233.341 21.1078L232.98 20.5067L232.74 19.9057L232.259 19.1844V18.9439L232.139 18.3429L232.018 18.1024L231.778 17.9822L231.297 17.7418L231.658 18.4631L231.898 19.9057L232.018 20.2663L232.379 20.7472L232.74 21.4685V22.0695L232.379 22.5504H231.898L230.816 21.9493L230.215 21.8291H226.97L224.806 21.4685L221.441 21.5887L220.479 21.9493L219.878 22.9111L220.479 22.5504L221.2 22.31L222.042 22.1898H223.484L224.205 22.31L224.686 22.6706L224.446 23.3919L224.205 23.8728L224.566 24.5941L224.927 25.1952L225.407 25.5558L225.648 25.676L226.609 25.9164L226.97 26.1569L227.21 26.3973L227.571 26.9984L228.052 26.758L228.773 26.6377L229.614 26.758L230.215 26.9984L230.456 27.1186H230.696V27.2388V27.9601V28.3208L230.576 28.6814L230.336 28.9218L229.855 29.1623L229.614 29.4027L229.254 29.8836L228.653 30.4846L228.533 30.7251V31.807L228.412 32.0474L228.052 32.4081H227.691L227.21 31.807L226.369 31.5666L226.129 31.4464L225.888 31.5666V31.807L226.129 32.2879L226.369 32.6485L228.292 33.6103L228.653 33.8507H229.254H230.215L230.816 33.9709L230.937 34.2113V34.6922V35.0528L231.658 35.7741L232.619 35.8943L233.701 35.7741L234.783 36.0146L235.144 36.1348L235.264 36.4954L235.504 36.7359L235.624 37.0965L235.504 37.3369L235.144 37.5774H234.903L234.663 37.8178L234.062 38.6593L233.821 38.8997L234.182 39.02L234.783 38.8997L235.264 38.7795L235.624 38.5391H236.105L236.706 38.7795L236.947 39.1402V39.3806L236.466 39.5008L235.504 39.9817L235.023 40.1019L233.22 40.3423V40.4625H233.821L235.745 40.8232L238.269 40.9434L237.908 41.4243L237.427 41.5445L236.826 41.7849L236.346 42.0253L235.384 42.7466L235.144 42.9871L235.504 43.3477L236.586 43.7084L237.668 43.8286L238.629 44.069L239.471 44.7903L239.711 45.1509L239.831 45.6318L239.952 47.435L240.072 47.9159L240.312 48.2766L240.553 48.6372L241.634 49.5989L241.995 50.2L244.519 52.3639L244.76 52.6043L245.12 53.2054L245.361 53.4458L245.721 54.5278L246.082 55.0086L246.322 54.648L246.803 55.0086L247.284 55.7299L247.644 56.5714L247.765 57.2927L247.524 57.7736L246.683 58.8555L246.322 59.096L244.519 59.5768L243.918 59.8173L243.558 60.2981V60.779L243.437 61.3801L242.957 61.7407V62.1013H242.115L240.553 61.7407L241.033 62.2216L241.995 62.8226L242.476 63.3035L241.514 63.5439L240.553 63.6642L239.711 63.5439L238.75 63.3035L238.389 63.4237L238.629 63.7844L238.99 63.9046L239.952 64.0248L240.432 64.145L240.793 64.3854L241.033 64.7461L241.394 64.9865L241.634 64.8663H241.875V65.9483L241.755 66.5493L241.514 66.7898L241.394 66.91V67.2706L241.514 67.5111L241.755 67.6313H242.115L242.356 67.8717L242.596 68.3526L242.836 68.8334L243.197 69.3143L243.678 69.4345L244.279 69.5547L244.639 69.7952L245 70.0356L245.361 70.1558H246.082L246.322 70.276L246.442 70.5164L246.322 70.9973V71.2377L246.563 71.4782L248.486 73.6421L249.928 74.2431L252.212 76.0464L253.294 76.5272L254.376 76.7677L254.736 77.0081L255.457 77.7294L256.058 77.8496L256.179 77.9698L256.058 78.3305L255.698 78.5709L255.578 78.8113L255.698 79.0518L255.938 79.172H256.539L256.9 79.2922V79.5326L257.02 80.1337V80.3741H257.26L257.501 80.1337L257.982 80.3741L258.823 80.9752H259.063L260.265 81.0954L261.107 81.4561L262.79 83.3795L263.751 83.7402L264.112 84.1008L264.833 84.7019L265.434 85.4232L265.554 85.9041V86.0243L265.194 86.1445L265.073 86.3849L265.915 86.7456L266.275 86.986L266.636 87.5871L267.477 89.1499L268.078 89.2701L268.319 89.1499L268.439 89.0297L268.8 88.669H269.04H269.521L270.843 89.1499L271.204 89.3903L271.324 89.7509L271.204 90.352V90.5925L271.564 90.9531V91.3138L271.324 91.6744L270.482 92.3957L270.122 92.9968L269.641 93.2372L267.718 94.0787L267.357 94.4394L267.117 95.1607L266.756 95.4011L266.396 95.6415L265.915 95.7617H265.314L265.073 95.6415L264.472 95.2809L263.871 95.1607L263.511 94.9202L263.03 94.6798H262.429L261.828 94.8L260.386 95.5213L259.905 95.7617H259.544L259.304 95.5213L259.063 95.4011L258.583 95.2809L257.501 94.9202H256.299H256.058L255.818 95.4011L255.578 95.5213L255.337 95.7617H255.097L254.736 95.6415L254.376 95.2809L254.135 94.9202L253.775 94.5596L253.414 94.3191L250.048 93.9585L248.486 93.4776L247.644 93.117L246.923 92.5159L246.322 91.9148L245.841 91.0733L245.24 89.3903L244.88 88.669L244.519 88.4286L243.437 87.8275L243.317 87.5871L243.197 87.4669H242.836L242.596 87.5871L242.356 87.7073L242.235 87.9477L242.356 88.1881L242.596 88.669L243.437 89.6307L243.558 89.8712L244.519 91.0733L244.639 91.5542L244.76 92.6361L245.24 93.4776L245.601 93.7181L245.721 93.9585L245.962 94.3191V94.8L246.082 95.4011L245.962 95.8819L245.721 96.1224L245.24 96.2426H245L244.639 96.1224L244.399 96.0022L244.159 95.5213L243.918 95.2809L243.558 95.0404L243.197 94.9202H242.836H242.596L242.115 95.2809H241.274L240.673 95.4011L240.192 95.6415L239.591 96.1224L238.389 97.4447L238.028 98.166L237.908 99.7288L237.788 100.21L237.187 100.691L236.947 100.931V101.171L236.706 101.773L236.586 102.013L235.264 103.696L235.023 104.297L235.144 104.537L235.384 105.259V105.499L235.144 105.74L234.903 105.86L234.302 106.22L233.942 106.701L233.461 107.663L232.499 109.226V109.466L232.74 109.947V110.428V110.909L232.499 111.27L231.898 111.871L231.658 112.111L231.538 112.472L231.658 112.832H231.778L232.259 112.953L232.499 113.193L232.259 113.313L231.658 113.554L231.417 113.674L231.297 113.914L231.417 114.515V115.116V115.357H231.658H231.898L232.018 115.477L231.778 115.838L232.018 115.958L232.259 116.078L232.499 116.439L232.74 116.679L232.86 117.28V117.641L232.74 117.881L232.379 118.362L232.259 118.603L231.778 119.084L231.658 119.204L231.297 120.165L231.177 120.526L231.057 121.608L230.937 122.209L230.336 123.051V123.652L230.576 124.133L230.937 124.854L231.417 125.455L231.658 125.575H231.898L232.018 125.936L231.898 126.537L231.778 126.898L231.177 127.499L230.937 127.98V128.22L231.177 128.701L231.057 129.302L230.816 129.903L230.576 130.264V130.504L231.417 130.143L234.543 127.859L235.144 127.619L235.504 127.739L235.745 128.22L235.504 128.46L235.144 128.701L234.783 129.182L233.942 129.422L233.581 129.663L233.461 129.903L234.422 130.143L234.663 130.384V131.466L234.543 131.826L234.182 132.428H234.062L233.22 132.548L232.86 132.668V132.788L233.341 133.029H233.821L234.062 133.269L233.942 133.75L233.581 133.99L233.341 134.231L233.1 134.471L233.461 134.832L233.1 134.952H232.74L232.018 134.832L231.658 134.952V135.072L231.778 135.192L232.018 135.313L232.619 135.433L234.062 135.794L234.783 135.914H235.023L235.264 136.154L235.384 136.515V136.875L235.264 137.236L235.023 137.356L234.302 137.477H233.821L233.581 137.597L233.22 137.957L233.1 138.078L231.778 137.717L231.898 138.438L230.937 138.198L230.696 138.799L230.816 139.4L230.696 139.761H230.215L229.855 139.64L229.254 138.919L228.893 138.679L228.773 139.16L228.533 139.761L228.172 140.242L227.932 140.362L227.691 140.121V139.761V139.039L227.571 138.799L226.85 138.078L226.369 137.957L226.008 138.438L225.768 139.16V139.881L225.528 140.602L225.167 140.963L224.085 141.564L223.364 142.405L220.72 146.132L219.998 146.493L219.878 147.094L219.758 147.695L219.638 148.176L219.277 148.536L218.556 148.897L217.955 149.137L215.19 149.859H214.589L214.349 149.739L214.229 149.378V148.657L214.589 148.296V148.056L214.229 147.815L214.109 147.935L213.988 148.176L213.748 148.536L213.628 148.176V147.334L213.508 147.094L212.426 145.771L212.306 145.17L212.666 143.487L212.306 143.608L211.945 144.088L211.705 144.81L211.584 146.132L211.705 146.493L212.546 147.334L212.666 147.695V147.815L212.546 148.176L212.185 148.536V148.657L213.267 149.017L213.508 149.137L213.628 149.258L213.508 149.618L213.267 150.099L212.907 150.46L212.786 150.7L212.907 151.902L212.786 152.504L212.185 152.744H211.705L208.82 153.946L207.738 154.547L207.017 155.509L206.897 156.591L207.137 157.072L207.377 157.312L207.618 157.673V158.154L207.498 158.755L207.017 159.236L206.416 159.476L204.132 160.197L203.17 160.798L201.968 161.039L201.367 161.279L200.045 162.481L199.805 162.842L198.963 163.203L198.723 163.563L199.324 163.924L199.685 164.044H200.406L201.007 163.804L201.367 163.323L201.488 163.203L202.089 163.082H202.209L202.449 163.203H202.69L202.81 162.962L203.411 162.842L204.012 162.962L204.493 163.203L204.613 163.684L204.252 164.405L203.771 165.006L204.733 165.968L205.094 166.569L204.733 167.891L204.973 169.574L204.853 170.175L204.372 170.776L204.132 171.017L202.329 171.498L201.728 171.858L201.127 172.459L200.526 172.94L200.286 173.421H200.526L201.728 172.82L202.569 172.58L203.05 173.06L203.17 174.022L203.651 174.383L204.372 174.263L206.055 173.421H206.416H206.776L206.897 174.142L207.137 174.503H207.377L207.738 174.263L208.099 173.902L208.579 173.782L208.7 174.142V174.864L207.858 178.47Z" fill="#7C7C7C" stroke="white" stroke-width="2" stroke-linecap="round" stroke-linejoin="round"/>
<path d="M3.999 161.64L3.03742 161.76L1.83542 161.52L2.196 161.159L3.03742 161.039H3.8788L4.4798 161.279L3.999 161.64ZM9.2878 157.913L9.408 158.274L9.2878 158.755L9.16759 159.115L8.92721 159.356L8.44642 159.596L6.8838 160.197L6.52321 160.318L5.802 160.197L5.6818 159.716V159.476V159.236L5.802 158.995L5.92221 158.755L5.802 158.514L5.6818 158.274L5.56159 158.154H5.0808L4.84042 158.033L5.201 157.673L5.802 157.432L7.004 157.192L7.24442 157.072L7.4848 156.831H7.605L8.0858 156.951L8.32621 157.192L9.04742 157.673L9.2878 157.913ZM14.817 150.219L13.9756 151.061H13.8554L13.7352 150.7H13.615L13.2544 150.82H13.014H12.8938V150.58L13.014 150.34L13.2544 150.219H13.7352L13.9756 150.099L14.4564 149.618H14.6968L14.9372 149.859L14.817 150.219ZM16.3796 148.777L16.019 148.897L15.8988 148.657L16.019 148.056L16.1392 147.935L16.62 147.454L16.8604 147.334L17.1008 147.454L17.221 147.815L16.9806 148.176L16.8604 148.416L16.3796 148.777ZM26.1158 142.285L26.9572 142.766L27.438 143.006H27.7986L28.1592 142.886L28.3996 142.646L28.64 142.526H29.1208L29.4814 142.886L29.842 143.247L30.0824 143.728V145.651L30.2026 145.771L30.5632 146.132V146.373V146.613L30.3228 146.733L29.7218 146.974L28.5198 147.935L28.1592 148.056L27.7986 148.176L25.9956 148.897L25.1542 149.378L24.1926 149.739L23.3512 150.58L22.7502 150.7L22.3896 150.58L21.9088 150.219L21.3078 149.859L21.1876 149.618V149.017L21.7886 147.334L22.029 143.006L22.2694 142.526L22.63 142.285L23.1108 142.405L23.9522 142.646H24.433H24.7936L25.2744 142.165H25.635L26.1158 142.285ZM146.196 79.172L146.075 79.6528L145.715 81.6965V82.0571V82.538L146.075 83.0189L146.196 83.3795V83.8604L146.075 84.4615L145.955 84.8221L145.715 85.0625L145.234 85.4232L144.513 86.0243L143.912 86.2647L143.671 86.5051L141.147 88.669L140.907 88.7892L140.186 89.1499L139.344 89.7509L138.142 90.352L137.782 90.5925L137.301 91.0733L137.181 91.3137V91.6744V92.1553L137.06 92.7563V92.9968L137.181 93.2372L137.421 93.3574H137.661L138.262 93.2372L138.503 93.117H138.743L138.984 93.2372L139.224 93.4776L139.344 93.8383V94.3191L139.224 94.8L138.984 95.4011L138.863 95.8819L138.743 96.3628V96.9639L138.623 97.565L138.383 98.0458L137.421 99.0076L136.82 99.9693L136.58 100.21L135.979 100.45L135.738 100.57L135.378 101.051L135.257 101.292L134.897 102.253L134.296 102.614L133.815 103.215L133.214 103.576L132.974 103.816L132.613 104.778L132.252 105.259L131.892 105.619L131.531 106.1L131.291 106.461L131.171 106.942L131.291 107.783L131.05 108.384L130.93 108.625L130.57 108.745L130.329 108.865L129.969 108.985L129.127 109.707L128.767 109.947H128.526H127.925H127.444H127.084L126.242 109.587H126.002H125.521L125.04 109.827L123.959 110.067L123.117 110.428L123.838 111.39L124.199 112.351L124.56 112.592L125.521 113.313L125.882 113.794L126.483 115.116L126.603 115.477V116.198L127.084 118.002L127.204 118.482V118.723L127.084 118.843L126.363 120.165L125.882 121.127V121.728L125.762 121.969L125.521 122.089L125.161 122.209L124.92 122.329L124.68 122.69L124.319 122.93L123.959 123.051L123.478 123.171L123.117 123.411L121.675 124.854L121.194 125.695V125.816V126.176V126.417L121.314 126.657L121.795 126.777L122.035 127.018L122.156 127.258L122.516 127.859V128.22V128.46L122.035 129.542L121.555 130.985L121.314 131.225H120.833L120.593 131.105L120.232 130.865L119.752 130.384L119.271 129.422L119.03 129.182L118.79 129.061H118.67L118.429 129.182L117.828 129.422L117.468 129.542L117.348 129.663L116.987 130.143L116.867 130.384L116.146 130.504L115.905 130.384L115.304 130.264L114.703 130.384L113.381 130.985L112.66 131.466L111.818 131.826L109.174 132.788L108.212 133.389L103.645 135.192L103.284 135.313H102.924L102.202 135.072H101.842L101.481 135.192L100.88 135.553L98.4762 136.515H98.1156H97.755L97.154 136.395L96.7934 136.274H96.0722L94.75 136.034H91.6248H91.2642L91.0238 136.154L90.9036 136.395L90.7834 136.996L90.0622 137.597L87.7784 138.318L84.8936 140.121L83.8118 140.722L83.4512 140.843L82.0088 141.564L79.4846 143.367L78.8836 143.848L78.0422 144.93L77.922 145.17L77.8018 145.531V145.892L78.0422 146.613V147.094L77.8018 147.454L77.5614 147.815L76.5998 148.296L75.2776 148.777L74.7968 149.258L73.3544 149.979L72.6332 150.46L72.1524 150.941L71.912 151.061L71.5514 151.542L70.9504 152.624L70.109 153.225L69.508 153.465L68.7868 153.946L68.1858 154.427L67.3444 155.509L66.8636 155.87L65.902 156.711L65.5414 156.951H65.301L64.9404 156.711L64.7 156.591H64.099L63.8586 156.471H63.3778L62.7768 156.711L61.8152 157.312L61.3344 157.673L60.7334 158.394L60.3728 158.875V159.115V159.356L60.6132 159.716L60.8536 160.077L61.094 160.318H61.4546L61.9354 160.197L62.1758 159.957H62.5364H62.7768L62.897 160.197L63.0172 160.438V160.798L62.7768 161.52V161.64L63.1374 162.001L63.3778 162.361V162.722L63.1374 163.684V164.164V164.645V165.607L62.296 168.612V169.093V170.897L62.5364 171.618L62.7768 172.339L66.0222 179.672L66.1424 180.153L65.902 181.115L65.7818 181.716V184.12L65.902 184.962L66.0222 185.322L66.1424 185.683L66.3828 185.923L66.6232 186.525V186.885V187.246L66.503 187.606L66.2626 187.967L66.0222 188.208L65.6616 188.448L64.2192 189.049L63.8586 189.289L63.498 189.77L63.1374 190.852L62.7768 191.453L62.5364 191.694L62.4162 191.814L61.3344 192.175V192.054L60.7334 192.175L59.7718 192.776L59.291 193.016L57.9688 193.497H57.488L57.0072 193.737L56.6466 194.098L54.6032 196.863L53.6416 197.344L52.8002 196.623L52.68 196.262L53.0406 196.142L53.1608 195.901V195.661L52.9204 195.06V194.459L52.8002 193.858L52.4396 192.776L51.7184 191.934L50.6366 191.694L49.5548 191.934L46.9104 193.136L44.1458 195.18L43.1842 195.3L42.5832 194.459L42.2226 193.377L41.7418 192.415L42.1024 191.934L42.5832 191.213L42.8236 190.371L42.7034 189.53L42.2226 188.448V187.366L41.9822 186.525L41.862 186.044L41.6216 185.803L40.66 185.563L40.4196 185.322L40.5398 185.082L41.0206 184.481L41.1408 184.12L41.5014 183.519L42.3428 183.639H43.3044L43.665 182.557L42.8236 183.159L42.1024 182.918L41.6216 182.317L40.5398 180.394L40.4196 180.033V178.831L40.059 176.667L39.8186 176.066L39.458 175.825L39.0974 175.585L38.857 175.224V174.623V174.142L39.0974 173.06L39.458 171.978L39.6984 170.897L39.5782 169.694L38.857 168.011L38.7368 167.771L38.256 167.05L38.0156 166.929L37.1742 166.689L35.9722 165.968H35.4914L35.1308 165.727L33.8086 164.525L34.4096 164.164L34.1692 164.044L34.049 163.804L33.9288 163.563L34.049 163.323L34.2894 162.962L35.4914 162.361L35.852 162.241L36.2126 162.001L36.453 161.52L37.1742 159.837L37.2944 159.356L37.4146 157.553L38.1358 154.187L38.256 153.105L37.8954 151.902L37.5348 150.82L37.054 150.34L36.5732 150.219L36.0924 150.099L35.3712 149.859L35.0106 149.498L35.1308 148.897L34.5298 148.777L34.2894 148.176L34.4096 147.454L34.65 146.252V145.892L34.2894 145.651L33.6884 145.531H33.5682L32.9672 145.17H32.6066H32.0056L31.7652 144.93L31.4046 144.088L30.8036 143.728L30.443 143.367L30.0824 142.646L29.6016 142.045L29.3612 141.684V141.203L29.4814 140.722L29.6016 140.482L29.842 140.242L30.0824 140.001L30.2026 139.64V139.52L29.4814 139.761L29.1208 140.001L29.0006 140.362V140.963L28.8804 141.564L28.64 141.925L27.9188 142.526L27.1976 142.045L26.7168 141.684H26.4764L25.9956 141.804L25.8754 141.564L25.3946 140.121L24.9138 139.761L23.9522 139.28L22.9906 139.039L21.6684 138.919H21.428L21.1876 139.039L21.0674 139.28V139.4L21.1876 139.64L21.3078 139.881L21.1876 140.362L20.827 140.602H20.4664L20.1058 140.482L19.024 140.001L18.7836 139.881H18.6634L17.7018 139.4L17.3412 139.039L16.62 134.952L16.7402 134.471L17.1008 134.231H17.4614L18.0624 134.712L18.423 134.952H20.226L20.5866 135.192L21.428 135.794L22.1492 135.914L22.5098 136.034H22.7502L23.3512 135.914L23.5916 135.794L23.4714 135.553L23.231 135.433L22.5098 135.553L22.2694 135.433L21.7886 134.712L21.5482 134.471L21.0674 134.111L20.4664 133.87H20.1058H19.7452L19.5048 133.75V133.509L19.8654 133.389L19.5048 133.029V132.788H19.9856L20.827 133.029H21.3078V132.788L20.7068 132.428L19.9856 132.187L19.2644 132.067H17.4614L17.1008 132.307L16.7402 132.067L16.3796 131.826L16.1392 131.346L15.7786 131.225H15.1776L14.9372 131.346H14.6968L14.4564 131.105L13.8554 130.624L13.615 130.264L13.4948 129.903L12.8938 127.499V126.417V126.176H13.1342H13.7352L12.8938 124.974L12.6534 124.253L12.8938 123.652V123.532L12.5332 123.411L12.2928 123.291L12.0524 123.411V123.892L11.5716 123.652L11.4514 123.171L11.5716 122.81L11.812 122.45L12.0524 122.329L12.5332 122.209L13.3746 122.089L14.0958 122.209L14.817 122.329L15.5382 122.57L15.8988 123.051H16.1392L15.8988 122.57L15.418 122.089L15.1776 121.728V121.488V120.406V118.963L14.9372 118.242L14.4564 117.401L14.3362 117.04V116.319L14.4564 115.958H14.6968L15.418 116.198L18.0624 116.559L17.5816 116.078L16.3796 115.357L14.817 114.035L14.5766 113.914L12.8938 110.428L11.4514 109.346L11.0908 109.106H10.61L9.04742 108.865L8.32621 108.625L8.206 107.904L8.44642 106.942L8.6868 106.1L8.807 105.74V105.139L8.6868 104.658L7.96559 103.576L7.84542 102.975L7.96559 102.614L8.32621 102.133L8.44642 101.773V100.691L8.32621 100.089L8.0858 99.4884L7.004 98.166V97.9256L7.24442 97.6852L7.36459 97.0841L7.12421 96.483L6.52321 95.6415V95.0404L6.64342 94.8L7.004 94.4394L7.4848 94.0787L7.84542 93.9585H8.32621L8.6868 93.7181L9.04742 93.3574L9.2878 92.8765L9.76859 91.7946V90.8329L8.32621 86.986V86.3849L8.44642 86.0243L9.04742 85.904L10.009 85.7838L11.0908 85.5434L13.014 84.7019L13.9756 84.1008L14.3362 83.7402L15.8988 81.9369L16.1392 81.3358L16.62 80.7348L17.221 80.3741V80.2539L16.4998 80.1337L16.1392 80.4943L15.8988 81.0954L15.5382 81.3358L15.1776 81.5763L14.5766 82.7784L14.216 83.0189L14.0958 83.2593L13.9756 83.4997L13.8554 83.8604L13.4948 83.9806L13.2544 84.1008L13.014 84.221L12.5332 84.4615L11.9322 84.7019L10.61 84.8221L9.8888 85.0625L10.009 84.221L10.3696 83.4997L11.3312 82.4178L11.6918 81.4561L11.812 80.6146V77.6092L12.1726 76.7677L12.7736 76.0464L16.8604 73.2814L17.3412 72.5601L18.1826 70.9973L18.6634 70.3962L19.1442 69.7951L19.2644 69.5547V69.3143H19.024V69.4345L17.7018 70.3962L17.822 69.9154L18.0624 69.5547L18.423 69.3143L18.7836 68.9536L19.024 68.4728V67.9919V67.1504L19.1442 66.3089L19.625 65.9483L21.3078 65.7078L24.9138 64.8663L25.3946 64.6259L25.7552 64.3854L25.9956 64.0248L26.837 62.5822L27.0774 62.3418L26.5966 63.7844L25.8754 64.9865L25.5148 65.5876L25.2744 65.9483L24.3128 66.6695L24.0724 67.0302V67.3908L24.1926 68.3526V68.8334L24.3128 69.0739L24.5532 69.4345L24.7936 69.7951L25.034 70.0356L25.3946 70.1558H26.4764L26.9572 70.276L27.0774 70.7569L26.9572 72.8005V74.0027L27.0774 74.6038L27.438 75.0846L27.9188 75.6857L30.2026 77.7294L30.443 77.9698V78.6911L30.6834 78.8113L31.1642 78.4507L31.2844 78.6911L31.7652 79.7731L32.246 80.1337L32.7268 80.2539L33.3278 80.1337H33.8086L34.2894 80.3741L34.5298 80.855L35.1308 82.2976L35.3712 82.8987L35.7318 83.1391L36.6934 83.6199L37.1742 84.1008L37.655 85.0625L38.256 85.5434L38.7368 85.6636L40.2994 85.904L40.7802 86.1445L41.1408 86.6253L41.7418 87.8275L43.064 89.6307L43.1842 90.352V90.8329L43.4246 90.9531L43.7852 90.8329L44.1458 90.7127L45.468 91.0733L45.8286 91.1935L46.3094 91.5542L47.3912 92.9968L48.3528 93.8383L49.5548 94.4394L50.7568 94.5596L51.8386 94.0787L52.3194 93.4776H52.68L52.8002 93.5978L53.0406 93.8383L53.281 93.9585L53.6416 94.0787L54.0022 93.9585L54.483 93.4776L54.7234 93.2372H54.8436L55.2042 93.3574L55.8052 93.117L56.1658 92.8765L56.5264 93.2372H56.6466L56.7668 93.117L56.887 92.8765V92.3957L57.1274 92.035L58.5698 90.7127L59.291 90.4722L60.1324 90.2318H61.695L67.5848 88.669L68.0656 88.7892L71.6716 90.352L72.1524 90.4722H72.7534H73.2342L74.316 90.1116H74.7968L75.0372 90.352L75.1574 90.7127L75.2776 91.1935L75.518 91.7946L75.8786 91.6744L76.4796 90.7127L78.6432 89.8712H79.124H79.4846L80.2058 90.1116L81.6482 90.5925L82.3694 90.8329L83.932 90.4722L86.2158 87.7073L87.8986 87.2264H89.942L90.6632 87.1062L90.9036 86.986L91.144 86.6253L92.4662 82.6582L93.3076 81.0954L93.4278 80.7348V80.4943L93.3076 80.2539H92.7066L92.5864 80.0135L92.7066 79.2922L93.1874 78.9315L96.1924 77.489L96.9136 77.3687L98.4762 77.1283L98.957 77.0081L99.4378 76.6474L99.7984 76.2868L100.159 76.0464L100.76 75.8059L108.573 76.2868L109.294 76.5272H109.414L109.775 76.2868L110.136 75.9261L110.376 75.6857L110.857 75.4453L111.338 75.5655L111.698 75.6857L112.179 75.8059L113.501 75.6857L113.982 75.8059L114.583 76.0464L115.064 76.2868L115.304 76.6474V77.2485L115.064 77.8496L114.823 78.3305L114.463 78.8113L113.621 79.2922L113.501 79.6528V79.7731L113.982 79.8933L114.944 79.5326L115.905 79.2922L116.987 79.4124L117.949 79.8933L118.79 80.4943L119.151 80.6146L120.353 80.7348L121.795 81.0954L123.117 81.4561L125.04 83.0189H126.242L127.204 82.6582L127.805 82.4178L128.286 82.538L128.887 82.7784L130.209 84.3412L130.93 84.7019L131.531 84.5817L135.738 81.8167L137.301 79.8933L137.902 79.2922L138.383 79.172L142.109 78.5709H143.191L144.152 78.8113L144.393 79.0517L144.633 79.2922L144.873 79.6528H145.234H145.474L146.196 79.172Z" fill="#7C7C7C" stroke="white" stroke-width="2" stroke-linecap="round" stroke-linejoin="round"/>
<path d="M187.905 242.906L187.304 243.026L187.064 242.665L187.544 241.944L189.107 240.742V240.862L188.867 241.343L188.987 241.583L189.227 241.704L187.905 242.906ZM203.17 211.77L203.05 211.89L202.569 211.409L201.608 209.846L201.367 209.486V209.125L201.608 208.524L202.209 207.202L202.329 206.721L202.449 206.36L203.17 205.759L203.291 205.398L203.531 204.918L203.771 205.158L204.252 205.879L204.132 206.841L203.651 208.764L203.531 210.207L203.291 211.169L203.17 211.77ZM196.199 222.108L195.958 222.349L195.478 222.95L195.357 223.07L195.237 222.709L195.117 222.349L194.756 222.229L194.396 222.349L194.276 221.868V221.267L194.516 220.666L194.636 220.185L194.756 220.065L195.237 219.824L195.357 219.584L195.237 219.343L194.756 218.742V218.382L194.997 216.699L194.877 216.098L194.636 215.737L194.035 215.256L193.554 214.535L193.434 214.174L193.314 212.13V211.65L194.035 209.967L194.155 208.163L194.276 207.682L195.478 205.639L195.958 203.956L196.079 203.595L196.199 203.475L197.04 203.114L197.401 202.994L198.963 201.551L199.324 201.431L199.564 201.311L199.805 200.95H199.925L200.165 201.191V201.551L200.045 202.153L199.685 204.797L199.805 205.759L200.526 206.841L200.887 207.202L201.247 207.682L201.367 208.163L200.165 208.644L200.045 209.125L200.286 209.606L200.526 209.967L200.646 210.447L200.766 210.928L200.646 212.13L200.887 212.732V212.972V213.934L201.007 214.174L201.367 214.294L201.608 214.535V214.775L201.367 215.016L201.007 215.737L200.766 216.098L200.526 216.458V217.18L200.646 217.54L201.007 218.141V218.502L200.887 218.863L200.646 218.983H200.165L199.925 219.223L199.685 219.584L199.324 219.704H198.723L198.603 219.824L198.362 220.065V220.185V220.546L198.242 220.666L197.761 221.026L197.401 221.387L196.92 221.868L196.68 221.988L196.199 222.108ZM207.858 178.47L207.017 182.437L206.416 183.519L205.574 183.639L205.334 183.399L205.094 182.798L204.973 182.317L204.493 182.077L203.892 181.956L203.531 182.077L203.17 182.317L202.81 182.437L202.449 182.197L201.608 182.437H201.367L201.007 182.557L200.887 182.798V183.038V183.158L201.367 183.399L201.247 183.88L200.646 184.962L201.007 185.082L201.848 183.88L202.449 183.639H202.93L203.17 184V184.481L202.569 185.563L202.449 186.044L202.569 190.612L202.449 191.574L202.089 192.415L201.608 193.257L200.406 194.819L199.805 195.3L199.324 195.42L198.843 195.18L198.603 194.819L198.483 193.617L198.362 193.136L198.122 193.016L197.761 192.776L197.521 192.656L197.281 192.295L197.04 191.694L196.92 191.093V190.612V190.371H196.68L196.559 190.612L196.439 190.852L196.559 191.453V191.694L196.319 192.295L195.958 192.776L195.838 193.377L196.079 193.978L196.199 194.339L196.079 194.579L195.838 194.819L195.718 195.18L195.838 195.3H195.958L196.439 195.18L197.16 195.3L197.281 195.541V196.022L197.521 196.502L198.002 196.863L199.564 198.065L199.925 198.426L199.805 198.787L198.603 199.027L197.641 199.388L197.281 199.267L197.16 199.748L197.761 200.59L197.882 201.191L197.641 201.912L197.281 202.153L196.8 202.273L196.199 202.513L196.319 202.153L196.439 201.792H196.68L196.92 201.912L197.281 201.551L197.401 201.071H197.04L196.079 201.431L195.838 201.672L195.598 202.153L195.117 203.235L193.554 205.999L193.194 206.961L192.953 209.245L192.713 210.447L192.112 211.049L191.631 211.289H189.828L189.227 211.409L188.626 211.77L187.665 212.732L186.583 213.453L182.015 215.617L175.044 218.261L168.433 220.906L163.625 223.19L159.297 225.835L158.095 226.196L157.014 225.835L156.533 224.753L156.653 223.671L157.254 221.628L156.653 219.464L156.533 217.54L156.653 213.092L156.292 211.89L154.73 209.967L154.369 208.764V207.562L155.09 204.316L154.489 204.557L154.129 204.797L153.768 205.158L153.528 207.923L153.167 208.284L152.566 208.163L151.484 207.923L150.282 207.202L148.84 206.48L153.047 195.3L153.648 192.776L153.768 192.415L153.888 192.054L154.489 191.213L154.85 191.093L156.653 190.732L157.254 190.492L157.494 190.251L157.855 189.891L157.975 189.53V189.169L158.095 189.049L158.336 188.929L160.139 188.208L160.499 187.967L160.98 187.486L161.221 187.005L161.341 186.404V185.923L161.461 185.322L161.701 184.721L161.822 184.24L162.182 183.76L163.384 182.437L163.504 182.317L163.865 181.355L164.226 180.514L164.346 180.273L164.466 180.033L164.346 179.071V178.831L164.105 178.47L163.985 178.23L163.745 177.869L163.625 177.508V176.306L163.745 176.186L164.346 175.946L167.471 175.224L170.236 174.503L170.837 174.142L171.678 173.541L175.404 170.055L174.923 168.853V168.492L175.284 168.011L175.765 167.41L176.125 166.569L176.246 165.847L176.005 165.246L175.765 164.525L175.524 163.804L175.645 162.962L177.327 155.268L177.568 154.788L177.688 154.547L177.928 154.307L179.251 153.826H179.371L180.092 153.706L181.294 153.465L183.578 152.504L184.179 152.383H184.539L184.78 152.504V152.864L184.539 154.066H183.818L183.578 154.307L183.217 154.547L182.616 155.148L181.655 156.471L182.857 156.591H183.337L183.578 156.831L183.818 157.192L183.938 158.033V158.394L184.179 158.755L184.66 159.236L184.78 159.476L184.9 160.077L185.02 160.678L186.222 163.443L186.342 166.569L186.222 167.05L186.102 167.41V167.771V168.372L186.342 169.093L186.703 169.454L187.184 169.694L188.025 169.815L188.266 169.935L188.506 170.295L188.145 171.377L188.025 173.301V173.782L188.746 175.705L188.987 177.388L189.347 177.989L189.468 178.109L189.588 178.23L190.189 177.989L190.549 177.869L190.67 177.629V177.268L190.91 177.148L191.391 176.907L191.751 176.787L192.232 176.306L192.473 176.186L192.833 176.066L193.554 176.426L194.035 176.547L196.319 176.667L197.04 176.907L203.17 177.268L205.094 177.629L207.738 178.47H207.858Z" fill="#7C7C7C" stroke="white" stroke-width="2" stroke-linecap="round" stroke-linejoin="round"/>
<path d="M184.539 154.066L184.78 152.864V152.504L184.539 152.383H184.179L183.578 152.504L181.294 153.465L180.092 153.706L179.371 153.826H179.251L177.928 154.307L177.688 154.547L177.568 154.788L177.327 155.268L175.645 162.962L175.524 163.804L175.765 164.525L176.005 165.246L176.246 165.847L176.125 166.569L175.765 167.41L175.284 168.011L174.923 168.492V168.853L175.404 170.055L171.678 173.541L170.837 174.142L170.236 174.503L167.471 175.224L164.346 175.946L163.745 176.186L163.625 176.306V177.508L163.745 177.869L163.985 178.23L164.105 178.47L164.346 178.831V179.071L164.466 180.033L164.346 180.273L164.226 180.514L163.865 181.355L163.504 182.317L163.384 182.437L162.182 183.76L161.822 184.24L161.701 184.721L161.461 185.322L161.341 185.923V186.404L161.221 187.005L160.98 187.486L160.499 187.967L160.139 188.208L158.336 188.929L158.095 189.049L157.975 189.169V189.53L157.855 189.891L157.494 190.251L157.254 190.492L156.653 190.732L154.85 191.093L154.489 191.213L153.888 192.054L153.768 192.415L153.648 192.776L153.047 195.3L148.84 206.48L148.239 206.24L147.878 205.999L147.638 205.519V205.038L147.878 204.677L148.359 204.437L148.6 204.196L149.201 202.513L149.922 201.672L150.162 201.311L150.282 200.71L149.201 201.672L148.239 203.235L147.157 204.557L145.595 205.158L144.753 205.038L144.032 204.797L143.551 204.316L143.431 203.355L143.912 200.83L143.792 200.109L143.671 200.349L143.551 200.59L143.311 201.792V202.393L143.191 202.513L142.83 202.754L141.868 204.437L140.186 205.278L139.344 205.519L137.782 206.48L135.858 207.081L133.214 207.562L131.171 207.081L130.93 205.158L131.291 204.076L131.411 202.994V201.912L130.81 199.989L130.57 199.748L130.089 199.628H127.925L127.324 199.748L126.843 199.989L126.483 200.349L126.242 200.95L126.122 201.431L125.641 201.672L124.199 201.792L123.838 201.672L123.718 201.431L123.598 200.83L123.478 200.47L123.237 199.989L122.877 199.628L122.516 199.388L123.598 201.672L123.838 202.273L122.396 200.83L122.035 200.47L121.314 200.109L120.954 199.748L120.593 199.508L120.473 199.147L120.232 198.666L120.112 197.945L119.872 197.584L119.391 197.224L118.79 196.863L117.949 196.623L117.227 196.262L115.545 193.136V194.94L115.424 195.42L115.304 195.661L115.064 196.142L114.823 196.382H114.343L113.621 196.983L113.261 197.464L113.141 197.945L113.261 198.426L113.862 198.907L114.102 199.027L114.343 199.147H114.944L115.184 199.267V199.388L106.049 205.278L105.207 206.12L104.727 206.24L103.765 205.999L103.525 206.12V206.48L103.284 206.601L103.044 206.721L102.803 206.841L102.202 206.601L98.7166 204.076L97.6348 203.595L96.4328 203.355L93.7884 203.836L91.6248 205.158L87.7784 208.885L86.6966 209.846L86.0956 210.087H85.6148L85.134 209.846L83.932 209.486L83.5714 209.125V208.524L84.0522 207.442L84.2926 206.841L84.4128 205.278V204.677L83.6916 200.109L83.8118 198.907L84.1724 196.743L83.932 195.661L82.2492 192.776L82.129 191.694V190.612L82.0088 190.492L81.6482 190.251L81.528 190.011L81.6482 189.53L82.129 188.809V188.328L81.7684 188.568L81.2876 188.929L81.0472 189.289L80.8068 189.65L81.0472 190.852V191.213L80.927 191.453L80.4462 191.934L79.9654 192.415V192.656L80.0856 192.896L80.326 193.016L80.5664 193.257L80.8068 193.377V193.617V193.737H80.5664H80.4462L79.3644 194.218L77.6816 195.42L77.321 195.541L76.8402 195.661L76.3594 195.541L76.119 195.06L75.9988 194.579L75.8786 194.218L75.1574 193.617L74.0756 193.377L71.912 193.136L70.9504 193.257L70.109 193.497L63.9788 196.743L62.0556 197.464L60.9738 197.584L60.0122 197.344L57.8486 196.142L57.3678 196.022H56.4062L56.0456 195.901V195.541L56.286 195.06L56.5264 194.819L57.3678 194.098L58.2092 193.737L59.0506 193.497L61.3344 192.535H61.5748L61.3344 192.175L62.4162 191.814L62.5364 191.694L62.7768 191.453L63.1374 190.852L63.498 189.77L63.8586 189.289L64.2192 189.049L65.6616 188.448L66.0222 188.208L66.2626 187.967L66.503 187.606L66.6232 187.246V186.885V186.525L66.3828 185.923L66.1424 185.683L66.0222 185.322L65.902 184.962L65.7818 184.12V181.716L65.902 181.115L66.1424 180.153L66.0222 179.672L62.7768 172.339L62.5364 171.618L62.296 170.897V169.093V168.612L63.1374 165.607V164.645V164.164V163.684L63.3778 162.722V162.361L63.1374 162.001L62.7768 161.64V161.52L63.0172 160.798V160.438L62.897 160.197L62.7768 159.957H62.5364H62.1758L61.9354 160.197L61.4546 160.318H61.094L60.8536 160.077L60.6132 159.716L60.3728 159.356V159.115V158.875L60.7334 158.394L61.3344 157.673L61.8152 157.312L62.7768 156.711L63.3778 156.471H63.8586L64.099 156.591H64.7L64.9404 156.711L65.301 156.951H65.5414L65.902 156.711L66.8636 155.87L67.3444 155.509L68.1858 154.427L68.7868 153.946L69.508 153.465L70.109 153.225L70.9504 152.624L71.5514 151.542L71.912 151.061L72.1524 150.941L72.6332 150.46L73.3544 149.979L74.7968 149.258L75.2776 148.777L76.5998 148.296L77.5614 147.815L77.8018 147.454L78.0422 147.094V146.613L77.8018 145.892V145.531L77.922 145.17L78.0422 144.93L78.8836 143.848L79.4846 143.367L82.0088 141.564L83.4512 140.843L83.8118 140.722L84.8936 140.121L87.7784 138.318L90.0622 137.597L90.7834 136.996L90.9036 136.395L91.0238 136.154L91.2642 136.034H91.6248H94.75L96.0722 136.274H96.7934L97.154 136.395L97.755 136.515H98.1156H98.4762L100.88 135.553L101.481 135.192L101.842 135.072H102.202L102.924 135.313H103.284L103.645 135.192L108.212 133.389L109.174 132.788L111.818 131.826L112.66 131.466L113.381 130.985L114.703 130.384L115.304 130.264L115.905 130.384L116.146 130.504L116.867 130.384L116.987 130.143L117.348 129.663L117.468 129.542L117.828 129.422L118.429 129.182L118.67 129.061H118.79L119.03 129.182L119.271 129.422L119.752 130.384L120.232 130.865L120.593 131.105L120.833 131.225H121.314L121.555 130.985L122.035 129.542L122.516 128.46V128.22V127.859L122.156 127.258L122.035 127.018L121.795 126.777L121.314 126.657L121.194 126.417V126.176V125.816V125.695L121.675 124.854L123.117 123.411L123.478 123.171L123.959 123.051L124.319 122.93L124.68 122.69L124.92 122.329L125.161 122.209L125.521 122.089L125.762 121.969L125.882 121.728V121.127L126.363 120.165L127.084 118.843L127.204 118.723V118.482L127.084 118.002L126.603 116.198V115.477L126.483 115.116L125.882 113.794L125.521 113.313L124.56 112.592L124.199 112.351L123.838 111.39L123.117 110.428L123.959 110.067L125.04 109.827L125.521 109.587H126.002H126.242L127.084 109.947H127.444H127.925H128.526H128.767L129.127 109.707L129.969 108.985L130.329 108.865L130.57 108.745L130.93 108.625L131.05 108.384L131.291 107.783L131.171 106.942L131.291 106.461L131.531 106.1L131.892 105.619L132.252 105.259L132.613 104.778L132.974 103.816L133.214 103.576L133.815 103.215L134.296 102.614L134.897 102.253L135.618 102.013L136.94 101.773H137.301L138.383 101.292L138.863 101.171L139.945 101.051L140.306 100.931L140.546 100.691L140.907 100.33L141.147 100.089L141.628 99.8491H142.109H143.191L144.272 99.7288L145.474 99.8491L145.955 99.9693L146.316 100.089L146.917 100.57L147.277 100.811L147.758 100.931L149.681 101.171L150.162 101.412H150.643L158.095 100.57L158.576 100.21L159.177 99.7288L159.898 99.248L161.221 98.7671L162.423 98.5267L163.144 98.4065L163.384 98.166L163.504 97.8054L163.625 97.6852L163.985 97.565L165.428 97.4447L165.908 97.565H166.269L166.389 97.8054L166.63 98.166L166.75 98.4065L167.351 98.6469L167.591 98.8873L167.711 99.1278L167.952 99.6086L168.192 99.9693L168.312 100.21L168.433 101.292L168.553 101.652L168.793 102.253L168.913 102.494L168.793 102.854L168.673 103.215L168.312 103.456L167.711 104.057L167.471 104.297L166.029 107.302L165.668 108.264L165.548 108.625V109.346L165.668 109.707L165.788 110.067L166.029 110.668L166.149 110.909V111.27V111.991V112.231L166.269 112.472L166.87 113.433L167.11 113.914L167.231 114.275L167.351 114.636V114.996V115.237L166.509 117.28L166.029 118.603V119.084V119.324V119.564L166.269 119.925V120.165V120.526L166.149 120.887L166.269 121.127L166.509 121.488H166.87L167.832 120.526L168.072 120.406L168.793 120.045L169.034 119.925L169.394 119.444L169.635 119.084L171.678 116.679L172.399 116.198H172.76L173.361 116.078L173.721 115.958H173.962L174.803 116.198L175.645 116.319L175.885 116.559V116.799L175.765 117.04L175.645 117.521L175.284 119.324L175.164 119.925L174.443 121.127L174.202 121.608L174.082 122.57L173.962 124.493V124.974L174.322 125.936L174.443 126.417L174.563 127.739L174.683 128.22L174.923 129.182L175.404 130.143L176.726 131.947L176.967 132.428V132.908L177.087 133.87L177.688 136.996L177.808 137.356L178.65 138.438L178.77 138.799L178.89 139.28L178.77 139.52L178.89 139.881L179.01 140.242L180.332 141.323L180.573 141.444L180.933 141.564L181.775 141.804L182.616 142.165L183.217 142.285L183.578 142.526L183.938 142.766L184.419 143.247L184.539 143.608L184.78 144.088L184.9 144.329L185.501 144.81L185.741 145.17L186.102 145.651H186.342H186.583L186.943 145.411L187.304 145.291L187.785 145.17L188.145 148.296L188.025 148.657L187.905 149.979L187.785 150.58L186.463 152.984L185.982 153.706L185.621 154.066L185.261 154.187L184.9 154.066H184.539Z" fill="#7C7C7C" stroke="white" stroke-width="2" stroke-linecap="round" stroke-linejoin="round"/>
</svg>
