<svg width="279" height="290" viewBox="0 0 279 290" fill="none" xmlns="http://www.w3.org/2000/svg">
<path d="M47.8308 134.115L47.1096 134.475L46.2682 133.995L45.547 133.273L45.0662 132.552L44.8258 131.711L44.7056 129.907L44.4652 129.186L44.2248 128.825L43.6238 128.344L43.3834 128.104L43.2632 127.743V126.421L43.0228 125.7L42.6622 125.099L42.3016 124.257V123.416L42.542 122.935L42.7824 122.574L43.3834 121.733L43.744 121.372L44.2248 121.132H44.4652L44.7056 121.252L45.547 121.853L45.7874 122.093L45.9076 122.454V122.815L45.7874 123.536L45.3066 124.858L45.1864 125.58L45.3066 126.782L47.5904 131.59L47.7106 132.071L47.8308 132.672L48.0712 133.153L48.1914 133.514L47.8308 134.115ZM3.477 121.853L3.35683 123.055L3.11642 122.935L2.39517 122.213L2.15483 122.093L1.91442 121.973H1.674L1.55383 121.733L1.674 121.372L2.03459 121.132L2.39517 121.011H2.876L3.23659 121.252L3.477 121.853ZM30.8826 116.684L31.0028 116.804H31.2432L31.8442 116.563L32.2048 116.323L32.4452 116.203L32.5654 116.323V116.804L32.8058 116.924L34.3684 116.804H35.2098L35.6906 117.164L36.1714 117.044L38.2148 117.285H38.4552L38.936 117.044L39.537 116.684H39.7774L40.3784 116.804H41.4602L44.4652 116.443H45.7874L48.9126 116.924L53.4802 117.164L54.4418 117.285H54.8024L54.9226 117.645L54.6822 117.766L52.9994 118.607H52.6388H51.7974H51.1964L50.8358 118.727L50.5954 118.968L50.2348 119.088L49.6338 118.968L47.4702 119.088L47.2298 119.208L46.5086 119.449H45.6672H45.4268L44.5854 120.05L43.9844 120.29L43.5036 120.05L43.0228 119.689L42.542 119.449L42.1814 119.569L40.3784 119.929L36.0512 119.809L35.4502 119.929L34.2482 120.29L33.6472 120.41H32.4452H32.0846L31.123 120.771L31.2432 120.29V119.809V119.328L31.123 118.968L30.8826 118.727L29.8008 118.246L29.5604 118.367L29.32 118.847L29.0796 118.968L28.9594 118.847L28.719 118.607L28.5988 118.367V118.126V117.525L28.8392 117.044L29.32 116.924L29.6806 116.804V116.563L29.8008 116.323L30.0412 116.203H30.2816L30.522 116.323L30.8826 116.684ZM7.56383 112.476L7.44359 113.077L8.285 112.716L9.12642 112.476L10.2082 112.356L11.6506 112.596L12.7324 112.957L13.093 113.077L13.4536 113.318L15.0162 113.438L16.4586 114.039L18.1414 114.279L18.502 114.159H18.7424L18.9828 114.399L19.103 114.52L19.8242 114.64H20.0646L20.4252 114.76L20.6656 115.602L21.0262 115.962L21.2666 115.602L21.6272 115.722L21.9878 115.842H22.3484L22.709 115.722L22.3484 115.602L22.4686 115.121L22.8292 114.039L22.9494 113.798H23.1898L23.5504 114.039L23.7908 114.159L24.6322 114.279L24.8726 114.76L24.9928 115.361L24.7524 116.323L24.9928 116.563H25.2332H25.5938L25.714 116.323L25.8342 115.842L26.0746 115.361L26.4352 115.001L26.7958 114.88L27.2766 115.001L27.6372 115.241V115.481L27.2766 116.082L27.1564 116.323L27.2766 116.443L27.7574 116.203L27.9978 116.323L28.118 116.684L28.2382 118.487L28.118 118.968L27.8776 119.088L26.916 118.727H26.315L24.7524 118.968H24.512L23.911 118.727H23.6706L23.4302 118.847L22.9494 119.208L22.709 119.328L22.2282 119.208L21.6272 119.088H21.1464L20.6656 119.328L20.4252 119.809V120.29L20.1848 120.53H19.4636L18.7424 120.05L18.3818 119.929L17.5404 120.05L16.9394 119.929L15.9778 119.328H15.3768L14.1748 119.689L12.2516 120.771L11.29 121.252L8.886 121.853L8.40517 122.093L7.92442 122.213H7.083L5.52042 122.334H4.91942L4.31842 122.093L4.078 121.853L3.95783 121.372L2.51542 119.088L2.275 118.607L2.39517 117.525L2.51542 117.044L2.876 116.563L3.35683 115.481L3.477 114.279L3.71742 113.318L4.79917 113.077L5.28 112.957L6.482 112.837L6.84259 112.596L7.20317 112.236H7.44359L7.56383 112.476ZM80.7656 105.143L81.006 105.504L81.4868 105.383L81.7272 105.504L81.9676 106.345L81.8474 106.465L81.4868 106.585L81.1262 106.706L80.5252 107.187L80.2848 107.307L79.4434 107.066V106.345L79.9242 105.744H80.405L80.6454 105.383V105.143H80.7656ZM93.7472 107.187L94.228 107.307H94.4684L94.829 106.946H95.0694L95.43 107.066L96.031 107.547L96.2714 107.667L98.3148 109.11L98.7956 109.711L99.036 109.951L99.2764 110.192L99.9976 110.432L100.478 110.793L100.719 110.673L101.079 110.553L101.44 110.673L101.56 110.913L101.921 111.394L102.281 112.596L102.041 113.438L101.44 114.039L100.478 114.52H99.3966L96.3916 113.798H95.7906L94.9492 114.039L94.3482 114.159L90.3816 113.919L89.9008 114.039L89.5402 114.399L89.1796 114.64L88.9392 114.88L86.8958 115.001H85.9342L84.8524 114.64L83.2898 113.798L81.8474 112.476L81.9676 111.875L82.4484 110.913V110.432L82.3282 110.072L82.4484 109.711L82.809 109.23L82.5686 108.749L82.6888 108.268L82.9292 107.788L83.1696 107.427V106.706H83.41L84.011 107.066L84.612 107.667H84.7322L84.8524 107.547L85.3332 106.946L85.4534 106.706L85.5736 106.345L88.3382 104.542H88.5786L90.622 104.902L91.3432 105.143L91.9442 105.504L92.3048 105.984L92.5452 106.465L93.026 106.826L93.7472 107.187ZM90.2614 101.897L90.1412 102.378L89.7806 102.859L89.42 102.979H88.819L87.3766 102.258L86.415 102.137H85.9342L85.6938 102.378L85.4534 102.739H84.9726L84.4918 102.378L84.1312 102.258L84.011 102.017L84.3716 101.657L85.0928 100.815L85.4534 100.575L85.9342 100.454L86.2948 100.334L87.9776 100.935L88.3382 101.296L89.6604 101.416L90.021 101.536L90.2614 101.897ZM108.412 96.848H107.811H107.57L107.089 96.7278L106.729 96.4873L106.609 96.1267L106.729 95.6458V95.4054L106.128 94.9245L106.008 94.8043L106.128 94.4437L106.248 94.3235L106.609 94.4437L106.729 94.5639L106.849 94.9245L106.969 95.165L107.45 95.4054L107.69 95.6458L108.652 95.766L108.892 96.1267L108.772 96.6075L108.412 96.848ZM80.2848 90.1159L80.405 90.4766L79.3232 90.8372H79.0828L78.4818 90.3563L77.6404 90.2361H76.6788L76.0778 89.9957L76.198 88.9138L76.4384 88.3127L76.6788 87.952L76.9192 87.4712L77.0394 86.3892L77.2798 86.0286L77.6404 85.9084L78.3616 85.7881L78.7222 85.9084L78.8424 86.0286L78.4818 86.5094L78.7222 86.7499L78.9626 87.1105L79.5636 87.952L79.6838 88.1925L79.804 88.4329L79.6838 88.9138V89.2744L80.2848 90.1159ZM88.4584 80.6189H89.0594L89.1796 80.9795L89.42 81.22L89.7806 81.821L90.021 82.3019L89.6604 82.903L88.0978 84.8264L87.8574 85.3073L87.7372 85.9084L87.8574 86.269L87.9776 86.3892L88.218 86.5094H88.5786L88.9392 86.6297L89.0594 86.8701V87.7116L88.9392 87.952L89.0594 88.3127L89.42 88.5531H89.6604L90.021 88.4329L90.5018 88.0723L90.9826 87.952L92.6654 87.8318L93.026 87.952L94.1078 88.4329L94.3482 88.5531L94.4684 88.7935L94.829 89.2744L94.9492 89.7553L95.43 89.8755V89.9957L95.3098 90.3563L95.1896 90.717L94.829 91.1978L93.7472 92.2798L93.5068 92.4H93.2664H92.9058L92.5452 92.5202L91.9442 92.8809L91.7038 93.0011L91.5836 92.8809L90.9826 92.4L90.7422 92.2798L90.1412 92.1596L89.7806 92.0394L89.5402 91.6787L89.2998 91.5585L89.0594 91.4383V91.0776L89.1796 90.4766L89.0594 90.2361L88.819 89.7553L88.6988 89.6351L88.3382 89.3946L88.0978 89.6351L87.8574 89.7553L87.3766 89.8755L85.9342 90.717L84.2514 91.1978L84.011 91.0776L83.7706 90.4766L83.5302 89.9957L83.41 88.7935L83.5302 88.5531L84.2514 86.8701V86.5094L83.41 86.269L83.1696 86.1488H82.6888L82.4484 86.0286L82.3282 85.5477L82.208 85.4275L81.7272 85.3073L81.2464 84.4658L81.1262 84.3456L81.006 83.9849L80.1646 83.3838L79.9242 83.1434L79.6838 82.6625L79.5636 82.3019L79.6838 81.821L79.804 81.4604L80.1646 81.0997L80.405 80.7391L80.6454 80.138V79.5369L80.5252 79.2965L80.2848 78.6954H80.6454L81.1262 78.3348H81.4868H81.7272L81.9676 78.5752L82.4484 79.0561L82.6888 79.2965L82.9292 79.4167V80.0178L83.1696 80.2582L83.41 80.4987L83.6504 80.6189L84.011 80.3784L84.2514 79.8976L84.3716 79.2965L84.4918 78.8157L84.7322 78.6954L85.213 78.5752V78.3348L85.3332 77.8539L85.4534 77.7337L85.6938 77.6135L85.9342 77.7337L86.7756 78.0944L87.1362 78.3348L87.2564 78.8157L87.3766 78.9359L87.9776 79.4167L88.0978 79.6572L88.218 79.8976V80.2582L88.4584 80.6189ZM77.6404 76.2911L77.7606 76.5315L78.001 76.4113H78.1212L78.4818 76.6518L78.602 77.0124L78.8424 77.1326L79.6838 77.0124L79.804 77.1326L79.6838 77.373L79.5636 77.7337L79.4434 77.8539H78.9626H78.7222L78.602 78.2146V78.6954L78.8424 79.0561L79.0828 79.2965L79.203 79.5369L79.3232 79.8976V80.2582L78.8424 80.6189V80.9795L79.0828 81.7008L78.9626 81.9412L78.7222 82.3019L78.602 82.7828H78.4818L78.1212 82.6625L77.5202 83.2636L77.1596 83.3838L76.6788 83.5041H75.1162L75.2364 83.1434L74.8758 82.903L74.996 82.6625L75.4768 82.4221V82.0615L75.3566 81.7008L75.1162 81.4604L74.996 81.3402L74.6354 81.22V80.9795L74.8758 80.3784V79.6572L74.996 79.4167L75.2364 79.1763V78.5752L74.996 77.8539L74.8758 77.373L75.1162 77.0124H75.3566L76.0778 76.772L76.5586 76.5315H77.2798L77.6404 76.2911ZM138.582 75.4496H138.341H137.981L137.74 75.2092L137.26 74.7283L136.178 72.8049L133.894 71.8431V71.4825V71.1218V70.7612L133.654 70.641L133.053 69.6793L132.932 69.559L132.331 69.1984L131.73 68.7175L131.851 68.5973L132.091 68.4771L132.331 68.5973L136.178 71.8431L137.62 72.8049L138.221 73.2857L138.702 74.007L139.063 74.3677V74.8485V74.9687L138.822 75.2092L138.582 75.4496ZM82.6888 65.9526L83.41 66.193H83.7706L83.5302 66.6739L84.011 69.9197V70.4006V70.7612L83.7706 70.8814L83.41 70.5208L83.2898 70.4006V69.6793L82.809 69.1984L82.6888 69.559L82.4484 69.6793L82.208 69.0782V68.4771L82.4484 67.0345L82.6888 65.9526ZM82.9292 61.6248L82.3282 62.4663L81.3666 62.3461L81.1262 62.1057L80.8858 61.6248V61.0237L80.7656 60.6631L81.006 60.4227L81.3666 60.062L81.8474 59.9418H82.4484L82.9292 60.5429V61.6248ZM83.2898 50.2043L83.5302 50.4448L83.6504 50.8054V51.4065L83.7706 51.8873L83.6504 52.3682L83.2898 52.7289L82.6888 53.3299L82.208 53.6906L81.8474 53.5704L81.7272 53.2097L81.4868 52.8491L81.3666 52.3682L81.8474 51.5267L82.0878 50.0841L82.5686 50.2043H82.809L82.9292 50.0841L83.2898 50.2043ZM81.006 50.0841H80.6454H80.1646L79.9242 49.8437L79.6838 49.3628L79.4434 48.8819L79.3232 48.5213L79.5636 47.9202L79.9242 47.4394L80.5252 47.3192L81.4868 47.8L81.7272 48.2809L81.8474 48.7617L81.7272 49.3628L81.3666 49.8437L81.006 50.0841ZM56.0044 36.2593H55.8842L55.2832 35.4178H55.0428L54.9226 35.2976L55.163 34.9369L55.4034 34.6965L55.5236 34.5763H55.764L56.0044 34.6965L56.2448 34.8167L56.365 35.0572L56.1246 35.538V35.7785L56.0044 36.2593ZM99.637 12.5768V13.1779L99.3966 13.6588L98.9158 14.7407L98.5552 15.1014L98.0744 15.462L97.834 15.9429L97.233 16.1833L96.9926 16.4237L96.8724 17.145L96.632 18.1067L96.3916 18.5876L96.1512 18.7078L95.6704 18.828L95.1896 18.9483L94.829 19.1887L94.5886 19.4291L94.3482 19.91L94.228 20.6313L94.1078 21.4728L94.228 22.0739L94.829 22.5547L96.5118 22.7952L96.8724 23.1558L97.1128 23.5165L98.1946 24.358L98.5552 24.959L98.3148 26.8825L98.1946 27.1229L97.9542 27.2431L98.1946 27.6038L98.5552 27.9644L98.6754 28.2049L98.7956 28.5655L99.036 29.6474L98.9158 30.1283L98.5552 31.5709V32.2922V33.1337V33.3741L98.435 33.4944L98.0744 33.7348L97.9542 33.9752L98.0744 34.4561L98.5552 35.4178V35.6582L98.3148 35.8987H97.7138H97.4734L97.3532 36.1391L96.9926 36.7402L96.8724 37.1008L96.2714 37.5817L96.031 38.0625L95.43 39.1445L95.3098 39.6253V39.7456L94.9492 39.8658H94.5886H93.9876L93.7472 39.986L91.7038 41.669L89.5402 42.8712L88.6988 43.7127L88.3382 44.9148V45.2755L88.5786 45.7563L88.819 46.2372L89.0594 46.5979L89.5402 46.8383L90.3816 47.1989L90.8624 47.5596L90.9826 47.6798L91.223 48.2809L91.3432 48.4011L91.5836 48.5213H92.0644L92.7856 48.8819H93.2664L93.8674 48.7617L94.228 48.6415L94.829 48.2809L95.6704 47.5596L96.1512 47.0787L96.2714 46.7181L96.3916 44.434V43.9531V43.4722L97.9542 41.5488L98.5552 41.0679L99.036 40.7073L99.5168 40.5871L100.118 40.4669H101.921L102.281 40.2264L102.762 39.6253L103.123 39.0243L103.243 38.5434L103.123 38.0625L102.762 37.5817L102.161 37.3412L101.079 37.5817L100.599 37.4615L100.478 36.9806L100.959 36.4997L101.801 35.7785L102.161 35.2976L102.642 34.3359L103.003 33.9752L103.483 33.4944L104.565 32.7731L105.046 32.4124L105.527 32.172L106.609 31.8113L107.089 31.4507L107.21 31.2103L107.45 30.7294L107.69 30.489H107.811L108.412 30.2485L109.013 29.8879L109.493 29.6474L110.094 29.407H110.695L110.816 29.5272L111.176 29.7677H111.417L111.657 29.6474L111.897 29.5272L112.138 29.0464L112.498 28.8059L113.941 28.5655H115.023L116.826 28.8059L117.066 28.9262V29.407V29.5272L116.345 30.0081L116.104 30.489L115.984 31.09V32.0518L116.104 32.2922L116.225 32.4124L116.705 32.8933L117.066 33.0135L117.427 33.1337L117.547 33.2539L117.427 33.6146L117.547 34.0954L117.667 34.6965L117.547 35.2976L117.427 35.538L116.946 35.7785L116.826 36.2593L116.705 37.3412L116.465 38.6636L116.345 39.2647L116.585 40.9477V41.4286L116.465 41.7892L115.984 42.0297H115.383H115.143L114.902 42.2701L112.859 43.4722L112.378 43.8329L112.258 44.0733L112.018 44.1935L110.455 44.6744L109.974 45.2755L109.614 45.5159H109.133L108.652 45.6361L106.368 46.2372L106.008 46.4776L105.767 46.8383L105.647 47.4394L105.887 47.9202V48.2809L105.767 48.4011H105.407L104.926 48.1607L104.565 48.0404L104.205 48.2809L103.844 48.5213L103.724 49.0022V49.6032L103.844 49.9639L104.205 50.4448L105.166 51.166L105.767 51.8873L106.248 52.3682L107.089 52.6086L107.57 52.9693L107.931 53.0895H108.772H109.493L109.614 53.2097L109.854 53.3299L110.335 53.8108L110.575 54.0512L110.816 54.1714L111.657 54.2917L112.138 54.4119L112.979 54.8927L113.34 55.013L113.821 54.8927H114.181L114.542 55.013L114.902 55.1332L115.143 55.2534L115.503 55.013L115.864 55.3736L115.984 55.614L115.864 56.4555L115.624 56.9364L115.864 57.297L115.984 57.7779V59.8216L116.104 60.7833L116.465 61.1439L118.028 61.3844L118.268 61.5046L119.59 61.745L120.311 62.2259L121.033 63.0674L121.634 64.0291V64.3898L120.552 63.428L120.191 63.3078L119.831 63.1876L116.345 62.2259L115.864 62.3461L115.263 62.1057L114.542 61.745L113.7 61.5046H112.859L112.138 61.2642L111.537 60.7833L110.455 59.7014L110.094 59.4609H109.854L109.013 59.5811H108.652L107.931 59.3407H107.57L105.767 59.7014L104.926 59.5811L104.205 58.9801L103.604 59.2205L103.003 58.8598L102.522 58.2588L102.041 57.8981L99.9976 57.6577L99.5168 57.7779L98.9158 57.5375L97.5936 57.4173L97.1128 57.1768L96.5118 57.6577L96.1512 58.0183L95.7906 58.379L95.43 60.5429L95.0694 61.0237L94.9492 61.3844V61.8652L95.6704 62.5865L95.7906 63.1876L96.031 65.9526V66.3132L95.7906 66.6739L95.43 67.1547L95.1896 67.5154L95.0694 67.9962V69.1984L95.3098 70.2803L95.5502 71.1218L96.3916 72.5644L96.8724 74.1272L97.3532 74.9687L97.4734 76.1709L97.5936 76.6518L97.834 77.1326L98.5552 77.9741L98.6754 78.3348L98.7956 78.9359L99.036 80.138L99.2764 80.6189L100.358 82.3019L100.599 83.2636L101.44 83.9849L101.68 84.3456L104.084 88.3127L105.407 89.7553L106.969 91.0776L107.21 91.3181L107.69 92.0394L108.171 92.4L109.133 92.8809L109.493 93.1213L109.614 93.482H109.373L108.652 93.1213L107.811 92.8809L105.527 92.7607L105.046 92.6404L104.685 92.4L104.325 92.1596L104.084 91.6787L104.205 91.4383L104.565 91.3181L104.926 91.5585H105.166L104.565 90.5968L103.483 89.8755L99.3966 88.4329L98.9158 88.0723L98.6754 87.5914L97.233 84.4658L95.7906 82.3019L95.0694 80.3784L94.7088 80.0178L94.228 79.2965L93.7472 79.1763L92.3048 78.3348L91.3432 77.7337L90.8624 77.6135L90.5018 77.2528L90.021 76.6518L89.5402 75.8103L89.42 75.2092V74.6081L89.7806 73.6464L89.9008 73.0453V70.0399L90.021 69.4388L90.2614 68.8378V68.5973V67.9962L89.9008 67.1547L89.7806 66.6739V65.5919L90.622 62.5865L90.7422 62.1057V61.6248L90.5018 61.2642L90.1412 60.9035L89.9008 60.7833L89.2998 60.9035H89.0594L87.9776 59.9418L87.7372 59.5811L87.2564 59.2205L86.8958 58.7396V58.4992V57.6577L86.6554 56.4555L86.5352 56.0949L85.9342 55.614L85.814 55.3736V55.1332V53.931L86.1746 52.3682L86.2948 51.166L86.5352 50.4448L87.3766 49.9639L87.7372 49.2426L88.0978 48.5213L88.3382 48.0404L87.9776 47.4394L87.1362 47.0787L86.0544 46.9585L85.213 46.7181L84.9726 46.117V45.7563L85.3332 45.2755L85.4534 44.7946L85.3332 44.5542L85.0928 43.8329H84.8524L84.7322 43.7127V42.751L84.8524 42.5105V42.2701L84.4918 42.0297H84.3716L83.7706 42.3903L83.2898 42.5105L82.9292 42.6307H82.5686L82.4484 42.0297V41.669L82.5686 41.4286L82.9292 40.9477L83.1696 40.5871V40.3466V39.7456L82.9292 39.3849L82.6888 39.1445L82.4484 38.7838V38.1828L82.5686 37.7019L83.41 36.4997L84.1312 35.538L84.7322 33.7348L85.6938 32.2922L86.1746 31.2103L85.9342 30.489L85.5736 29.7677L85.6938 29.1666L86.5352 27.9644L86.2948 27.6038L86.1746 27.2431L86.2948 26.8825L86.5352 26.7623L86.8958 26.6421L87.016 26.041L86.8958 25.8006L86.6554 25.6803L86.5352 25.5601L86.6554 25.4399L86.8958 24.959L87.1362 23.9973L88.4584 21.8334L89.0594 21.1121L89.6604 20.0302L90.021 19.5493L91.4634 18.227L92.0644 17.3855L94.4684 14.8609L95.3098 14.1396L95.43 14.0194L95.5502 13.5386L95.9108 13.0577L96.3916 12.697L96.8724 12.4566L97.3532 12.5768L97.834 12.697L98.1946 12.8173L99.3966 12.2162L99.637 12.5768ZM91.824 10.5332L92.5452 10.6534H92.9058H93.1462L93.2664 10.8938V11.4949L93.026 11.9758L92.425 12.096L91.824 11.7353L91.5836 11.1342V10.6534L91.824 10.5332ZM102.522 9.81187L102.161 10.0523L101.801 9.81187L101.56 9.33101L101.32 8.85015V8.4895L101.44 8.24907L101.801 7.64799L102.161 7.04691H102.281H102.642L103.123 8.00863V8.24907L102.522 9.81187ZM113.7 1.63721L114.301 2.95958L114.542 3.32023L114.902 3.56066L115.984 4.88303L116.225 6.08519L115.864 7.16713L115.383 8.12886L114.902 9.09058V10.7736L113.34 13.5386L113.099 14.3801L112.859 14.7407L111.417 15.9429L110.936 16.1833L107.089 16.544L106.729 16.6642L106.368 17.0248L105.647 17.5057L105.166 17.7461L105.286 17.145L105.647 16.544L105.527 16.0631L104.685 15.2216L104.565 14.7407V12.9375L104.445 11.7353L104.205 11.1342L103.724 10.8938L103.243 10.6534L103.483 10.0523L104.565 9.09058L105.286 7.88842L106.488 5.60432L107.45 4.52239L108.532 4.04152L109.013 3.68087L109.373 2.71915L109.493 2.47872L110.094 2.11808L110.335 1.99785L110.455 2.11808L110.816 2.47872L111.537 2.59893L111.777 2.3585L112.018 1.87764L112.378 1.27656L112.859 1.03613L113.34 1.27656L113.7 1.63721Z" fill="#7C7C7C" stroke="white" stroke-width="2" stroke-linecap="round" stroke-linejoin="round"/>
<path d="M103.844 284.865L103.964 285.707L104.325 286.308L104.205 286.548L103.844 286.789H103.483L102.882 286.909H102.041L101.32 286.789L100.839 286.668L100.358 286.308L100.238 286.067L100.358 285.827L100.599 285.466L100.719 285.226L100.839 284.985L101.2 284.865L101.68 285.106L102.402 284.985L103.123 284.625H103.724L103.844 284.865ZM125.119 285.226V285.587L124.879 285.947L124.639 286.308H124.398H124.038L123.677 286.067L123.316 285.827L122.836 285.587L122.595 285.707L122.355 285.947L121.994 286.067L121.273 285.827L120.311 285.226L119.831 284.625L120.552 284.264L121.273 284.024L123.797 284.264L123.917 284.384L124.999 284.865L125.119 285.226ZM90.021 285.707H89.42L88.9392 285.587L88.218 284.985L87.7372 284.865L89.7806 283.423H90.3816H90.8624L91.3432 283.543L91.824 284.024L92.1846 284.505L92.0644 284.985L91.4634 285.226H90.8624L90.021 285.707ZM93.7472 281.98L94.7088 282.22L96.5118 282.822L98.5552 283.182H99.637L100.478 282.822L101.32 283.302L101.44 283.663L101.2 284.144L99.8774 285.226L99.5168 285.346L99.1562 286.067L98.7956 286.308L98.3148 286.188L97.9542 286.067L96.8724 285.346L96.5118 285.106H96.1512L94.5886 284.985L93.9876 284.865L93.627 284.505L92.9058 284.024L92.6654 283.663V283.062L92.5452 282.822L92.3048 282.701L91.9442 282.461V282.22L92.1846 282.1H92.5452H92.7856L93.7472 281.98ZM178.368 283.182L178.488 283.302L178.729 283.423L178.849 283.302L179.089 282.942L179.209 282.822L179.69 282.701L180.051 282.581L180.532 282.461L181.133 282.701L180.652 283.423L179.81 283.783L179.089 284.144L178.007 284.865L176.204 285.587H175.844H175.123L173.8 285.947L173.68 286.067V286.909L173.56 287.149L173.199 287.51L172.118 288.231L171.757 288.592H171.517H170.194L170.555 288.231L171.637 286.909L172.118 286.428L172.358 286.067L172.598 285.707L172.959 285.587L173.199 285.466L173.921 285.226L174.161 284.985L174.401 284.625L174.281 284.384L174.161 284.024V283.543L174.281 283.062L174.522 282.822H174.762L175.123 283.062L175.724 283.182L176.805 281.86L177.406 281.619L177.767 281.74L178.608 282.701L178.488 282.942L178.368 283.182ZM77.8808 282.22L77.2798 282.341L75.9576 281.98V281.74L76.0778 281.499V280.658L76.198 280.297L76.4384 280.057L76.9192 279.816L77.2798 279.936L77.6404 280.057L77.8808 280.417L78.1212 280.778V281.259V281.619L77.8808 282.22ZM144.231 274.406L144.472 274.527H145.313L145.914 274.767L146.154 274.887L146.275 275.008V275.368L146.034 275.969L146.154 276.21L146.515 276.33L146.635 276.691L146.755 277.171L146.635 277.652L146.275 278.013L145.433 278.975L144.592 280.537L144.472 280.898L143.991 280.778L142.308 280.417L142.188 280.177L139.664 277.412L139.423 276.811L139.543 275.008L139.904 274.286L140.745 274.046H143.149H143.39L143.991 274.286L144.231 274.406ZM152.044 273.084L152.285 273.204L152.525 273.445L152.405 273.805H152.044L151.684 273.565L151.443 273.445H151.203H150.962L151.083 273.084H151.563H151.804H152.044ZM150.722 272.603L150.482 272.844L150.241 272.723L150.121 272.483L149.881 272.363L149.76 272.002V271.762L149.881 271.642L150.121 271.521L150.361 271.642L150.482 271.882V272.122L150.722 272.603ZM179.81 269.478L179.57 270.56L179.209 271.04L178.849 271.281L177.647 271.04L177.286 271.161L177.527 271.882L176.084 271.762L175.603 271.521L175.964 270.68L176.084 270.56L176.445 270.319L176.685 270.199H177.406L177.887 270.079L178.248 269.838L178.488 269.598L178.608 269.718H178.849L179.089 269.598L179.45 269.357H179.69L179.81 269.478ZM64.779 270.68H65.1396L66.7022 270.56L67.183 270.68L67.3032 270.92L67.5436 271.401L67.6638 271.762L67.784 272.483V272.723L67.6638 272.964L67.4234 273.084L67.183 272.964L66.8224 272.844L66.582 272.723L65.5002 272.844L64.8992 272.964L64.5386 272.723L62.375 273.445L62.1346 273.565L61.5336 274.166L61.2932 274.286L60.6922 274.527L60.4518 274.647L59.1296 276.45L59.0094 276.57L59.1296 277.051L58.8892 277.292L58.6488 277.652L58.2882 278.253L58.0478 278.494L57.8074 278.253L57.2064 277.652H56.966H55.6438L55.0428 277.532L53.7206 277.171L53.1196 277.051L50.8358 277.412L50.355 277.171L49.9944 276.811L49.5136 276.45L48.9126 276.33L48.3116 276.57L47.8308 276.33H47.35L45.9076 276.57L45.4268 276.811L45.0662 276.931H44.4652H44.2248L43.9844 277.051L43.8642 277.412L43.744 277.652L43.2632 277.773L40.9794 279.576L40.3784 279.816L40.0178 279.576V279.215L40.3784 278.614L40.6188 278.133L40.8592 277.893V277.652V275.849L41.0996 275.488L41.34 275.128L41.7006 274.767H42.0612L42.542 274.527L42.6622 273.926L42.7824 273.325L42.9026 272.964L43.5036 272.603L43.6238 272.483L43.8642 272.002L44.5854 270.92L44.8258 270.68L45.0662 270.439H45.4268H45.6672L46.5086 270.8L46.749 271.04L46.8692 271.161L47.1096 271.281L51.1964 271.882L51.557 271.762L52.2782 271.281L52.759 271.161H53.2398L53.8408 271.281L54.4418 271.401L54.9226 271.161L56.2448 269.958L57.6872 269.357L58.5286 268.756L59.0094 268.636L61.6538 268.035L62.0144 267.795H62.2548L62.375 267.915V268.516V268.756L62.4952 268.997L62.8558 269.237L63.9376 269.838L64.2982 270.079L64.5386 270.439L64.779 270.68ZM141.947 267.674L142.188 267.795H142.428L142.669 267.674L142.789 267.795V268.035L142.308 268.275H141.947L141.827 268.035L141.346 267.795L141.226 267.434L141.346 267.073L141.587 267.194L141.947 267.674ZM82.208 270.199L81.7272 270.319H81.3666L81.1262 269.958V269.478V269.237L81.2464 268.997L81.607 268.877L81.8474 268.756V268.516V268.035L81.4868 267.194V266.833L81.7272 266.352L82.0878 266.232L82.9292 266.472L83.5302 266.713L83.8908 266.833L84.2514 266.953L84.612 267.073L84.7322 267.434V268.275L84.612 268.636L84.2514 268.756L83.2898 269.237H82.9292L82.6888 269.478L82.4484 269.958L82.208 270.199ZM172.839 265.871L173.68 266.592L173.921 266.352L174.281 266.472L174.642 266.713L175.002 266.833L175.844 266.592L175.964 266.713L175.603 267.073L175.964 267.314L176.084 267.434V267.554L175.844 267.674L175.483 267.434L175.363 267.314L174.762 267.674H173.68L172.719 267.434L172.358 267.314L172.238 266.953L172.358 266.592L172.719 265.871H172.839ZM181.133 263.948L180.772 264.188L179.69 265.27L179.089 265.631L178.849 265.751L178.729 266.112L178.488 266.352H178.248L177.887 266.472V266.232L178.128 265.991L178.248 265.631H177.647L177.046 265.871H176.565L176.084 265.51L175.964 265.03L176.204 264.549L176.445 264.188L176.926 263.948H177.166H177.286L177.767 264.068H178.128L179.69 263.827L180.051 263.707H180.532L180.772 263.587L181.012 263.707L181.133 263.948ZM183.777 261.543V261.664L184.017 261.423H184.138L184.258 261.664L184.138 261.904L184.017 262.024L183.416 262.385L183.657 262.746L182.335 262.625L181.974 262.385L182.455 262.144L182.695 261.664L183.176 261.063L183.296 260.822L183.777 261.543ZM193.513 257.456V257.576L193.874 257.456L194.114 257.216L194.475 256.735L194.835 256.494L194.956 256.615L195.076 256.975L195.677 258.177V258.538L195.316 258.778L194.956 258.899L194.595 259.019H194.234L193.994 258.899H193.754L193.513 259.139L193.273 259.5L193.153 259.74L193.273 260.461V260.942V261.183L193.874 262.144L193.994 262.505V262.866L193.633 263.106L193.874 263.467L194.595 263.948H194.835L194.956 264.188H194.595L194.234 264.909L194.114 265.51L193.994 265.631L193.633 265.871L193.874 266.472L193.754 267.073L193.393 267.674L193.153 268.756L192.912 269.357L192.552 269.838L192.191 269.958L192.071 270.079L191.47 271.161L191.35 271.281L190.989 271.642L190.508 271.762L189.787 271.882L189.426 272.122L189.547 272.723L189.426 272.964L189.186 273.084L188.946 273.204L188.585 273.084L188.825 273.685L188.465 273.926L188.104 274.166L187.864 274.286L187.744 274.527L186.542 275.368L186.421 275.729L186.301 276.089V276.57L186.061 276.811L185.7 277.051L185.46 277.292L185.219 277.773H185.46L185.7 277.893L185.82 278.013L185.58 278.494L185.46 278.734V279.095L185.099 279.456L184.618 279.816L184.258 280.057L184.017 279.696L184.378 278.734L184.498 278.133L184.258 277.893H184.017L183.897 277.773L183.777 277.652L183.416 277.893L183.296 278.133L183.176 278.734V279.095L182.455 279.456L181.373 279.576L179.45 279.456L179.209 279.095L179.33 278.614L179.69 277.532V277.051L179.45 276.691L179.089 276.45L178.849 276.57L178.608 275.969L178.729 275.368L179.089 274.887L179.57 274.527H179.931L180.171 274.647H180.411L180.652 274.406V274.046L180.411 273.926L180.051 273.685V273.445H180.532V273.204L180.411 272.844V272.603H180.171H179.931V272.483V272.122H179.69V272.363H179.57L179.45 271.642L179.57 271.281L180.051 271.161L180.652 271.281L181.734 271.882H182.214L182.936 271.642L182.455 271.521L181.974 271.281L181.493 271.04L181.133 270.199V269.958L181.373 269.838V269.718L181.493 268.756L181.734 268.275L182.214 267.434L182.335 267.073L182.455 266.352L182.695 265.871L183.056 265.51L184.618 264.188L184.979 264.068L185.219 264.188L185.46 264.549H185.7L185.82 264.308L186.181 263.467L186.301 263.347L186.542 263.106L186.662 262.746L186.542 262.505V262.265L186.782 262.024L188.224 261.904V261.664L188.104 261.423V261.183L188.224 260.702L188.465 260.341L188.946 259.74L189.186 259.259L189.306 259.139L189.667 259.019H190.148L190.628 258.778L190.268 258.057L190.148 257.576L190.388 257.095L191.229 256.494L191.83 256.254L192.552 256.013L193.032 255.893L193.513 256.013L193.633 256.374L193.513 257.456ZM200.365 255.773L200.725 256.013L201.086 256.374V256.735L201.326 257.095L201.927 257.576L202.047 258.057L202.168 259.019L202.047 259.5L201.567 259.74L201.326 259.62L200.485 258.899L200.244 258.778L200.004 257.817L199.283 257.336H198.441H196.518L195.797 257.216L195.557 256.735L196.158 255.893H199.283H199.884L200.365 255.773ZM115.744 257.696L114.782 258.778L114.301 258.538L113.34 257.696L112.378 257.336L112.018 256.975L111.897 256.494L112.138 256.013L112.859 255.412L113.58 254.932L114.301 254.691L114.542 254.811L114.902 255.172L115.143 255.412L115.383 255.533H115.864H115.984L116.345 255.893L116.465 256.254L116.104 256.494L115.624 256.615L115.263 256.855L115.503 257.216L115.864 257.576L115.744 257.696ZM127.884 253.008H127.764L127.523 252.888L127.283 252.647V252.287L127.523 252.167L127.764 252.046H128.004L128.245 252.407L128.124 252.768L127.884 253.008ZM137.981 245.795L138.101 245.915L137.981 246.156L137.74 246.757L137.5 246.997H137.26L136.899 246.757H136.779L136.659 246.637V246.276L136.899 245.915L137.139 245.795H137.5L137.74 245.675L137.981 245.795ZM192.672 245.435L192.191 245.915L191.59 245.675L191.229 246.036V246.516L191.83 246.877L191.59 247.358L191.109 247.719L190.749 247.839L190.148 247.238L190.388 246.156L191.109 245.074L191.951 244.593L192.552 244.713L192.792 244.954L192.672 245.435ZM272.364 246.637L272.124 247.118L271.763 246.997L270.922 246.396L271.162 246.036V245.915L271.042 245.435L271.162 245.194L272.124 243.872L272.364 242.79L272.485 242.549L272.605 242.309L272.845 242.189H273.206L273.446 242.429L273.807 242.67L273.927 242.91V243.391L273.687 244.232L273.566 244.713L273.326 245.074L273.086 245.314L272.485 246.276L272.364 246.637ZM273.687 241.107L273.326 241.347L273.086 241.227L272.845 241.347L272.605 241.467L272.364 241.588L271.763 241.467L271.643 240.987L271.523 240.385L271.283 240.025L271.042 239.784L270.922 239.544L271.162 239.304L271.523 238.943L272.004 238.702L272.605 238.823L273.086 239.063L273.446 239.544L273.687 240.025L273.807 240.626L273.687 241.107ZM150.842 235.336H150.602H150.482L150.241 235.096V234.856H150.361L150.842 234.976L150.962 235.096L150.842 235.336ZM270.561 237.861L270.441 238.342L270.081 238.702L269.119 239.183L269.48 239.664L269.359 240.265L268.879 240.626L268.037 240.265L267.797 239.905L267.677 239.544L267.556 238.943L267.436 238.702L266.835 237.981H266.475H266.114H265.874L265.753 237.62L265.633 237.38L264.071 236.779L263.83 236.539L263.71 236.178L263.83 235.937L263.95 235.697L264.431 235.336L264.912 235.096L265.273 234.615L265.633 234.375L266.114 234.254L266.475 234.375L266.835 234.615L267.556 234.976L267.917 235.216L268.518 235.937L268.879 236.298L269.359 236.418L269.72 236.659L270.081 236.899L270.441 237.38L270.561 237.861ZM276.571 238.823L276.211 239.183L275.85 238.943L275.49 238.582L275.369 238.342L275.73 238.101V237.981L275.369 237.26L275.49 236.539L275.97 235.817L276.451 235.697V234.976V234.495L276.692 234.375L277.052 234.254L277.413 234.375L277.773 234.615L277.894 234.976L277.773 235.577L277.653 236.058L277.172 237.019L276.571 238.823ZM266.114 238.462H266.234L266.475 238.342L266.595 238.462L266.715 238.582L266.835 238.943L267.316 239.784V240.025L267.436 240.145V240.385L267.196 240.626V240.746L267.316 241.828L268.037 242.068L268.278 242.189L268.157 242.549L267.917 242.79L267.797 243.271L267.677 243.511L267.076 244.112H266.475L265.874 243.872L265.152 243.992V244.232H265.633L265.994 244.593L266.114 244.713L265.994 244.954L265.753 245.314L265.393 245.555L265.032 245.675L263.71 247.839L264.191 247.959L264.071 248.32L262.748 249.402L261.066 250.003L260.104 250.724L259.503 250.844L258.782 249.762L258.541 249.281H258.421L258.061 249.041L257.099 248.801L256.618 248.44L256.378 247.719L256.137 247.118V246.877V246.516L256.378 245.675L256.979 243.631L257.46 239.183L257.58 238.823L257.82 238.582V238.943L258.061 239.424L259.503 239.664L260.224 240.145L260.104 239.664L259.743 238.943L259.623 238.462L258.301 238.582L257.82 237.741L258.061 235.336L257.82 234.375L257.339 232.692L257.219 231.85L257.339 231.489L257.58 231.249H257.94L258.301 231.369L258.541 231.73L258.662 232.091L259.022 232.451L259.864 232.692L260.224 232.932L261.186 233.774L261.907 234.375L262.388 234.615L262.508 234.735V235.096L262.388 235.336L262.268 235.577L262.147 235.697L262.869 236.539L263.349 237.019L263.83 237.26L264.912 237.5L265.273 237.741L265.633 238.101L266.114 238.462ZM258.782 226.921V228.003L258.902 227.883L260.104 227.402H260.344L260.585 227.522L260.825 228.364L260.945 228.725H261.066L261.186 228.604L261.787 228.364L261.667 228.845L261.066 229.326L260.945 229.686L260.825 230.167L261.066 230.528L261.426 230.888L261.787 231.489L262.147 231.369L262.508 231.61L263.349 232.932L263.59 233.052H264.071L263.95 233.293V233.413H264.551L264.792 233.533L265.032 233.774L265.393 233.894L265.753 234.014V234.134L265.032 234.254L264.672 234.615L264.311 235.096L263.71 235.457H263.47L263.229 234.856L262.628 234.254L262.268 234.134L262.147 234.254L261.907 234.014L260.825 233.052L260.344 232.211L259.984 231.85L259.503 232.211L258.902 231.97L259.022 231.61L259.383 231.129L259.623 230.768L259.503 230.287H259.142L258.421 230.888L257.82 229.927L257.7 228.725L257.94 227.643L258.782 226.921ZM260.104 222.233L259.743 222.353L259.383 222.233L259.142 221.752L259.022 221.271L259.142 220.67L259.383 220.309H259.743L260.224 220.43L260.705 220.79L260.585 221.271L260.465 221.872L260.104 222.233ZM220.799 216.703V217.064L220.558 217.424V217.544L220.799 217.785H221.039L221.4 217.665H221.64L221.88 217.785V218.025L222.001 218.506L222.241 219.468L222.481 219.348H222.602L222.722 219.949L222.842 220.43L222.962 221.031L223.443 221.151L223.683 221.391V221.992L223.563 223.195L223.323 223.796L223.082 224.277L222.722 224.757L222.361 225.238L221.88 225.479L221.52 224.998L221.4 224.397L221.159 224.277V224.637L221.039 224.878L220.799 224.998L220.558 224.878L220.438 224.757L220.077 224.277L219.957 224.156V223.796V223.195L219.837 222.834V222.473H220.077V221.031V220.43H220.438L220.318 220.189L220.077 219.227H219.717L219.597 219.107L219.717 218.867L219.837 218.506L219.717 218.386L219.356 218.266L219.236 218.025V217.544V217.424L218.875 216.943L218.755 216.703L218.635 216.342L219.597 216.823H219.717L220.077 216.583L220.438 216.222H220.678L220.799 216.703ZM223.082 215.02H223.563L223.683 215.14V215.381L223.323 216.463V216.943V217.304L223.443 217.785L223.683 218.146L223.563 218.506L223.203 218.266L223.082 218.025L222.842 218.386H222.722H222.481L222.241 218.146L221.88 217.064V216.342L222.121 215.621L222.481 214.78L222.962 214.299L223.082 214.539L223.203 214.78L223.082 215.02ZM211.543 214.539L211.904 214.659L212.385 214.539V214.78L212.144 215.02L212.024 215.26L211.784 215.501L211.423 215.621L211.183 215.501L210.822 215.02L210.582 214.539L210.461 214.178L210.822 213.938L211.543 214.539ZM269.84 211.654L271.042 212.135L271.283 212.495L271.643 213.457L271.884 213.818L272.605 214.299L272.845 214.539L272.725 214.659L272.124 214.9L272.364 215.02V215.14L272.485 215.621H272.364V215.501L271.763 215.621L271.403 215.741L271.523 215.861L272.244 215.982L272.725 216.222L273.206 216.463L273.927 217.304L274.528 218.146L274.047 218.506L273.687 219.227L273.446 219.829V220.309L273.807 220.43H273.927V220.79V221.151L273.807 221.632L273.206 222.113L273.086 222.473H273.566L274.047 222.714L274.408 223.074L274.288 223.555H274.408L274.648 223.916L274.408 224.036L273.807 224.397L273.566 224.637L273.446 224.156L273.206 224.036L272.965 224.156L272.845 224.637L273.086 224.878L273.687 225.118L273.927 225.358H273.566L273.927 225.96H273.566L272.845 225.719L272.364 225.479L272.004 225.118L271.763 224.998H271.403H271.042L270.682 225.118L270.561 225.238L270.441 225.479L271.523 225.358L271.884 225.599L272.004 226.08L272.244 226.44L273.206 227.282L273.687 227.522L274.648 228.725L274.889 229.085L274.768 229.686L274.408 230.287L273.927 230.768L273.446 231.129L273.086 230.888L272.965 231.249L272.845 231.489L272.725 231.73L274.047 231.249L274.528 230.888L274.408 231.369L274.167 231.73L274.047 231.97L274.288 232.571L274.167 232.812L274.047 233.172L273.566 234.134L273.446 234.615L272.965 235.216L271.162 235.937L270.561 236.418L269.96 236.058L269.6 235.937L269.239 236.058H269.119L268.638 235.457L268.157 234.976H268.037L267.797 234.615L266.715 234.014L266.475 233.653H266.114L264.551 233.052H264.431L264.191 232.571H264.071L263.71 232.692L263.349 232.571L263.229 232.331L262.989 231.73L262.268 230.888L261.907 229.927V228.965L262.388 228.244L262.869 228.003L263.349 228.123H263.83L264.311 227.643V227.402L262.869 227.522L262.628 227.162V226.801L262.869 226.32L262.989 225.839L262.869 225.599L262.268 224.757V224.637L262.508 224.517L262.869 224.156L263.109 223.916V223.315L264.071 222.834L263.95 222.473V222.233L264.551 221.632V221.391L264.071 221.031L263.95 221.391L263.59 221.632H263.349L263.229 221.031L262.989 220.79L262.508 220.67H261.667L261.186 220.43L260.825 220.189L260.104 219.708L259.984 219.227L260.344 218.747L260.945 218.506L261.426 218.386L261.907 218.506L262.748 219.227L263.349 219.348L263.83 219.227L264.071 218.987V218.626L264.311 218.146L264.551 217.905L264.912 217.665L265.273 217.304L265.513 216.583L266.595 214.539L266.715 215.02L267.076 215.14L267.316 215.02L267.556 214.659L267.917 214.9V214.419V214.058L267.797 213.938L267.556 213.577V212.255V212.135L267.797 211.894L268.157 211.774L268.398 212.015L268.758 212.135L269.48 211.774L269.84 211.654ZM201.807 210.692H201.567L201.446 210.332L201.567 209.49L201.927 209.009L202.408 208.769H202.769L202.889 209.25L202.528 210.332L202.288 210.452H202.047L201.807 210.692ZM229.814 217.544L229.453 217.665L229.092 218.386L228.491 218.867L228.011 219.588L227.53 220.55L227.289 221.391V221.872L227.53 222.714V223.195L227.289 223.435L224.885 226.44L224.525 226.681L224.405 226.32L225.967 221.872L226.568 221.151L226.688 220.911L226.809 219.227L226.688 218.867L227.65 217.304L228.131 217.424L228.491 217.665L228.732 217.544L228.972 216.463L229.092 215.381L229.213 214.9L229.573 213.938L230.535 210.933L231.136 210.091L231.376 209.73L231.496 208.649L231.737 208.288L232.218 208.047H232.698L233.059 208.288L233.42 208.649L233.54 209.009V209.61L233.42 209.971L233.059 210.211L232.939 210.452L232.218 214.178L231.496 216.102L231.376 216.463L230.655 217.064L230.415 217.184L230.174 217.304L229.814 217.544ZM195.917 194.223L195.677 194.463L195.436 194.102L195.316 193.501V192.9L195.557 192.54L196.037 192.9V193.622L195.917 194.223ZM148.919 187.851V188.933L148.558 189.053H148.078L147.717 189.174L147.477 189.053L147.236 188.933L146.996 188.813H146.635L146.996 188.572L148.198 188.452L148.438 188.212L148.558 187.851L148.799 187.611L148.919 187.851ZM194.114 188.092L193.633 188.332L193.513 188.092L192.431 185.928L192.191 185.567L192.431 185.447H192.552L192.912 185.567L193.393 186.168L193.874 187.13L194.114 188.092ZM186.662 178.354L186.421 178.474L185.58 177.873L184.378 177.392L184.138 177.152L183.897 176.912L183.777 176.671V176.431V176.19L183.897 175.95L184.138 176.07L184.378 176.311L184.739 176.671L185.941 177.513L186.421 177.994L186.662 178.354ZM182.815 175.469L182.695 175.589L182.335 175.349L182.094 174.868L181.854 174.267V173.786L182.575 174.026L182.815 174.267L182.936 174.627V175.229L182.815 175.469ZM188.224 175.83L187.984 176.07L187.383 175.95L186.902 175.589L186.662 175.108L186.061 173.906L185.941 173.546L186.061 173.305L186.301 173.185L186.662 173.065L187.263 173.305L187.503 173.906L187.744 174.748L188.224 175.83ZM78.3616 171.983L77.8808 172.223L77.0394 171.983H76.5586L75.8374 171.382L75.597 170.901V170.3L76.3182 169.458L76.799 169.338H77.1596L78.1212 169.699L78.4818 170.059L78.602 170.42L78.7222 171.021L78.4818 171.502L78.3616 171.742V171.983ZM118.869 166.333L118.388 166.573L118.028 166.453L117.667 166.092L117.547 165.491L117.907 165.01L118.388 164.89L118.869 165.01L118.989 165.491L119.23 165.852L118.869 166.333ZM109.373 164.529L108.412 165.01L108.171 164.529L108.412 164.049L108.532 163.568L108.652 163.087L108.772 162.726V162.366L109.013 162.125L109.253 161.885L110.094 161.524L110.575 161.764L111.537 161.885L111.897 162.125L112.258 162.486L112.739 163.087L112.859 163.688L112.378 163.928H111.897L110.936 164.409L109.854 164.529H109.373ZM106.488 163.087L106.729 163.688L106.849 164.169V164.529L106.248 164.77H106.008L105.527 164.409L105.166 164.289H104.685L104.565 164.409L104.685 164.77L105.286 165.611L105.407 165.852L105.286 165.972L104.806 166.693L104.325 167.054L103.604 167.294H102.882L102.281 167.535L101.921 167.895L101.44 168.256L100.599 168.376L100.839 168.136L101.44 167.775L101.56 167.535L102.041 166.573L103.483 165.611L103.844 165.13L103.363 164.89L102.882 165.13L101.921 165.852L100.839 166.333L100.238 166.693L99.5168 166.813L99.2764 166.934L98.6754 167.415L98.3148 168.016L97.7138 168.376H96.8724L96.3916 168.136L96.1512 167.655V167.174L95.7906 166.573L95.9108 166.333L97.1128 164.89L97.7138 164.409L99.036 163.568L99.3966 163.447H99.7572L101.921 163.568L102.281 163.447L104.445 161.885L105.647 161.404L106.729 161.524L107.21 162.005L107.089 162.366L106.729 162.726L106.488 163.087ZM115.383 162.125L115.624 162.245L115.864 161.644L116.225 161.284H116.585L116.946 161.885L117.066 162.486V164.289L116.585 163.928L115.984 163.447L115.503 163.087L115.143 163.327V163.688L115.263 163.928V164.169L114.902 164.409H114.662L114.542 164.289L114.301 164.049L113.58 163.087L113.34 162.606L112.979 162.005L112.739 161.524V161.043H113.34H113.7L113.941 161.163L114.301 161.644L114.542 161.885L115.383 162.125ZM85.9342 154.792V154.912H86.7756L87.2564 155.153L88.0978 156.234L88.4584 156.595L88.6988 157.076L88.819 157.437L88.3382 157.677L87.7372 157.557L86.7756 157.076L85.5736 156.836L85.0928 156.595L84.8524 156.234L84.4918 155.874L84.612 155.754L85.3332 155.393L85.5736 155.032L85.6938 154.792H85.9342ZM92.3048 154.551L92.0644 154.672L91.3432 154.551L89.7806 154.792L89.1796 154.551L88.819 154.071L89.1796 153.47L89.9008 152.868L90.5018 152.267H91.3432L91.7038 152.147H91.824L92.0644 152.388L92.425 152.628L92.5452 152.989L92.6654 153.349L92.7856 153.71L92.5452 154.311L92.3048 154.551ZM68.7456 151.065L69.2264 151.426L69.8274 151.185L70.3082 151.546L70.9092 151.787L71.5102 151.907L71.991 152.027L72.9526 152.748L73.4334 152.868L74.1546 153.229L74.395 153.47L74.6354 153.71L74.7556 153.95L74.8758 154.191L74.996 155.032L74.8758 155.273H74.395L73.794 155.032L73.4334 154.912L73.0728 155.273V155.633L73.193 156.114L73.4334 156.595L73.6738 156.956H73.794L74.1546 157.316L74.5152 157.677L74.996 157.797L75.2364 157.677L75.597 157.076L75.8374 156.956H76.198L77.0394 157.437L78.2414 157.677L78.8424 157.918L79.0828 158.278L78.9626 158.759L78.4818 159.961L78.2414 160.442L78.3616 164.049L77.8808 165.01L77.4 165.371L76.799 165.491L76.3182 165.251L75.7172 165.13L75.2364 165.251L72.1112 166.813L71.7506 166.934L71.5102 167.174L70.9092 167.895L70.5486 168.256L69.587 168.737L67.5436 169.338L66.2214 169.939L65.2598 170.66L64.6588 170.54L64.0578 170.781L63.4568 170.18L63.0962 170.059L61.2932 169.578L60.4518 168.977L59.6104 168.857L57.3266 167.775L55.8842 166.573L55.4034 166.453L54.4418 166.212L53.1196 165.491L52.6388 165.01L52.2782 164.65H51.1964L50.4752 163.928L50.2348 163.087L49.754 161.885L48.1914 160.803L47.7106 160.442L47.2298 159.841L46.9894 159.12V158.999L46.148 157.557L45.6672 154.672L46.3884 152.628L46.8692 152.147L47.5904 151.666L48.3116 151.065L48.7924 151.306L49.0328 152.027L49.5136 152.388L50.1146 152.628L50.7156 152.868L51.1964 152.989L51.7974 152.748V152.027L52.6388 151.306L53.7206 150.945L56.966 149.983L64.6588 149.743L67.784 150.103L68.385 150.464L68.7456 151.065ZM97.7138 146.858L97.3532 147.459L97.1128 147.699L96.8724 148.42L96.7522 148.661L96.3916 148.901H96.031L93.8674 149.022L93.627 148.901L93.5068 148.661L93.8674 148.18L94.3482 147.94L94.829 147.699L95.1896 147.339L95.43 147.218H95.7906L96.1512 146.978L96.3916 146.737V146.497L96.1512 146.016H96.8724L97.3532 146.136L97.7138 146.377L97.9542 146.617L97.7138 146.858ZM138.341 142.41L138.462 142.77L138.702 142.891L140.144 143.131L143.871 144.694H144.231L144.472 144.934L145.073 145.776L145.313 146.016H145.794L146.034 145.896L146.395 145.776L146.755 145.656L146.876 145.776L146.996 146.257L147.356 146.497L147.597 146.257L147.957 146.377L148.438 146.737L148.799 147.218L149.4 147.459L151.563 147.94H155.891L158.174 147.579H159.256L160.458 148.06L163.103 150.464L163.463 150.705L165.386 151.426L165.627 151.546L165.747 151.787L165.987 152.748V152.868L166.588 153.71L166.829 154.792V156.956L166.949 157.437L167.43 158.158L167.55 158.398L167.67 158.759H168.151H169.113H170.194L171.036 159.12L171.637 159.48L171.997 160.202L171.517 160.322V160.803L171.637 161.404L171.997 161.885L172.839 162.726L173.079 163.207L173.199 163.688L173.079 164.289L172.959 164.529L172.598 165.13L172.478 165.491L172.118 165.972L171.997 166.333L171.877 169.699L171.997 170.059L172.238 170.54V170.781L171.637 170.901L171.156 170.66L170.315 169.939L169.954 169.819H169.353L166.829 168.857L166.348 168.737L166.108 168.496L165.026 167.294L164.665 167.054L164.305 166.813L163.824 166.573H163.103L162.742 166.453L162.502 166.092L162.021 165.371L161.66 165.01L161.179 164.89L160.699 164.65H160.098L159.617 164.529L158.415 163.688L153.607 162.125L153.126 161.644L153.006 161.524H152.645L151.323 161.043L150.361 160.562L149.881 160.202L149.64 159.841V159.721L149.4 159.36L149.28 159.12V158.398V158.158L148.558 157.316L147.477 156.836L138.462 155.994L137.5 156.114L137.26 156.956L138.582 158.759L138.942 159.721L137.981 160.322H136.899L134.735 159.24L133.533 158.879L130.408 158.639L129.206 158.398L127.163 157.316L126.442 157.076H125.72L123.797 157.316L123.196 157.437L122.595 156.836V156.595L122.836 155.994L123.677 154.792L123.437 154.311L122.956 153.95L122.475 153.71H121.874L121.273 153.47H121.033L120.311 154.431L118.749 155.032L118.508 155.273L118.388 155.513L116.225 157.316L115.984 157.677L115.744 158.038L115.624 158.278L115.744 158.519L116.104 158.759L116.225 158.879L115.744 159.48L114.662 159.601L113.46 159.48L112.498 159.601L111.417 160.081L110.695 160.322L110.215 160.081L109.854 159.721L109.013 159.36L108.532 158.879L105.527 153.95L105.166 153.71L104.084 153.59L103.604 153.47L102.882 153.229H102.762V152.508L103.003 151.907L103.363 151.065L103.243 150.584L102.882 150.103L102.402 149.983L101.68 150.103L100.959 150.825L100.478 151.666L100.118 152.388L99.8774 153.349L99.637 155.994L99.5168 156.355L99.2764 156.715L98.9158 157.557L98.6754 157.797L98.435 157.918H97.9542L97.834 158.038L97.5936 158.278L97.4734 158.759L97.1128 159.36L96.8724 159.841L96.5118 160.682L96.3916 161.163L96.5118 161.404L96.632 161.644V161.764L96.2714 162.366L96.1512 162.606L95.43 161.885L95.5502 160.682L96.3916 158.398V157.196L96.2714 156.595L96.1512 156.355L95.9108 156.234L95.0694 155.153L94.829 153.59L94.7088 153.229L93.9876 152.748V152.508L94.5886 152.267H94.829L95.43 152.147L95.6704 152.027L95.9108 151.787L96.5118 151.185L96.8724 150.945H97.233L97.9542 150.344L98.3148 150.103L98.7956 149.983L99.2764 149.863L99.8774 149.983L100.238 150.103L100.839 149.983L100.478 149.022V148.781L100.599 148.42L101.079 148.06L101.2 147.819L100.839 147.579L100.358 147.459H99.8774L100.118 147.098L100.358 146.978L101.079 146.858L101.32 146.737L101.68 145.776V145.415H102.161L102.281 144.934L102.402 144.574L102.642 144.453L103.003 144.333L103.604 144.574L108.051 144.453L109.013 144.213H110.094L111.176 143.852H111.537L112.138 143.973L113.099 144.333H113.821L118.989 144.453L120.071 144.574H120.672L121.754 144.453L122.836 144.093L124.639 143.371L125.6 143.011L125.961 143.492L126.081 144.333L125.841 145.415L126.321 145.656L126.922 146.858L127.403 147.098L127.644 146.978L128.245 146.858H128.605L128.846 147.098L129.086 146.978L128.966 146.617L128.846 146.377V146.257L129.206 146.136L129.687 146.617H129.927V146.257L130.168 146.016L130.528 145.776L131.37 145.415L132.812 144.694L133.533 144.453L133.654 144.093L133.774 143.612L133.894 143.131L134.615 142.77L135.817 142.53H137.861L138.221 142.41H138.341Z" fill="#7C7C7C" stroke="white" stroke-width="2" stroke-linecap="round" stroke-linejoin="round"/>
</svg>
