<svg width="247" height="78" viewBox="0 0 247 78" fill="none" xmlns="http://www.w3.org/2000/svg">
<path d="M151.996 68.2189H152.477H152.597L152.958 68.3391L152.838 68.5795L152.477 68.9401L151.996 69.0604L151.395 69.3008H150.794L150.314 69.1806L150.193 68.9401L150.554 68.5795L151.155 68.3391L151.996 68.2189ZM198.273 67.3774L198.033 67.6178L197.913 67.738L198.033 67.9784H198.153H198.514H198.754L199.355 68.3391L199.596 68.6997L199.475 69.9019L199.355 70.2625H198.754L198.153 70.1423H197.672L197.312 70.3827L195.869 71.4647L195.629 71.5849L195.028 71.8253L194.908 72.0658L194.788 72.6668L194.667 73.2679L194.066 73.869L193.225 73.9892L192.263 74.1094L188.297 75.1914L187.816 75.552L187.455 75.7924L187.936 76.1531V76.2733L185.532 76.7542H184.45L183.97 76.0329L183.729 73.6286L183.609 73.1477L183.729 72.9073L184.21 72.7871L184.811 72.3062L186.494 71.8253H187.095H187.696H187.936L188.417 71.4647H188.778H189.258L189.859 71.104L191.182 69.9019L191.783 69.5412L192.864 69.0604L193.225 68.6997L193.345 68.4593L193.465 67.8582L193.586 67.6178L193.826 67.4976H194.066H194.187L194.307 67.1369L194.547 66.6561L194.908 66.2954L195.99 65.8146L197.312 65.2135L197.793 64.973L198.394 64.0113L198.754 63.7709L198.995 64.1315V64.6124L198.874 64.8528L198.394 65.4539L198.874 65.8146L198.754 66.2954L198.394 66.7763V67.0167L198.514 67.1369L198.273 67.3774ZM161.011 63.6507L161.492 63.8911H161.973L162.454 64.0113L162.694 64.7326L162.454 65.8146L162.334 66.055L161.252 66.8965L160.651 67.2571L160.29 67.6178H159.93H159.689L159.449 68.0987L158.848 68.3391L157.165 68.0987L156.083 68.2189L155.482 68.0987L155.001 67.738L154.521 67.3774L154.4 67.2571L154.881 66.8965L158.006 65.3337L158.848 63.8911L159.329 63.6507L159.93 63.4103H160.531L161.011 63.6507ZM200.557 58.0005L200.437 58.241L200.317 58.6016L199.956 58.7218L199.596 58.4814L199.355 58.1207L198.995 58.3612L199.596 59.4431L199.716 60.1644L199.355 60.5251L199.475 60.8857L199.355 61.1261H199.115L198.754 61.0059V60.8857L198.514 60.5251L198.153 60.2846L198.033 60.4049L197.913 60.7655L197.432 61.2463H197.071L196.831 60.5251V59.8038L196.951 59.3229L197.312 58.9623L197.913 58.4814L198.273 58.0005L198.754 56.9186L199.115 56.4377L199.475 56.1973L200.076 55.9569H200.557L200.798 56.1973L201.038 56.5579L201.759 56.7984L201.879 57.159L201.519 57.5197L200.557 58.0005ZM110.648 35.2798L112.21 37.4437L112.811 37.9245L113.172 38.2852L113.653 38.4054L114.133 38.5256L114.614 38.2852L115.095 38.165L115.696 38.4054L116.297 38.766L116.658 39.2469V40.3288L116.898 41.0501V42.0118L117.138 42.4927L117.379 42.7332L118.941 43.4545L119.422 43.5747L119.542 43.0938L119.783 42.8534L120.504 42.6129L121.706 42.4927H122.307L122.788 42.7332L123.148 43.214L123.269 43.8151L123.629 44.1758L125.432 45.2577L126.153 46.0992L127.235 48.3833L127.836 49.2248L128.557 49.7056L130.24 50.6674L130.961 51.2685L131.562 51.8695L132.043 52.5908L132.284 53.6728L131.923 54.6345L131.683 54.9952L130.841 55.5962L129.639 56.7984L129.279 57.5197L128.918 57.7601L127.355 58.241L127.115 58.3612L126.754 58.4814L125.072 58.3612L124.591 58.4814L123.389 59.0825L123.148 59.3229V59.8038L122.908 60.2846L122.547 60.5251H122.067L121.586 60.1644L120.985 59.4431L120.504 59.2027L116.658 58.7218H116.297L116.057 58.6016L114.374 58.1207L114.254 58.0005L114.013 57.3995L113.893 57.159L112.811 56.6782L112.571 56.5579L111.85 55.3558L111.609 55.2356L111.369 55.3558L111.249 55.2356L111.008 54.0334L110.768 53.4323L109.686 52.11L109.446 51.8695L109.205 51.6291H108.965L108.484 51.5089H108.244L108.003 51.2685L107.883 50.9078L107.643 51.028L107.522 50.9078L107.402 50.6674L107.162 50.5472L106.681 50.1865H106.441L105.359 50.0663L104.998 49.9461L104.037 49.2248L102.474 48.3833L102.234 48.0226L102.113 47.3013L101.873 46.9407L100.791 46.7003V46.0992H100.671L100.19 46.3396L99.5892 46.2194L98.267 46.0992L97.3054 45.7385L96.7044 45.6183H96.2236L95.7428 45.7385L95.262 45.979L95.0216 46.2194L94.7812 46.7003L94.3004 46.4598L93.2186 45.7385H93.0984L92.7378 45.979H92.4974L92.3772 45.8588L91.656 45.3779L91.055 45.4981H89.9732L88.8914 45.3779L87.8096 44.897L86.7278 44.7768L86.3672 44.5364L85.1652 43.6949L84.9248 43.214L84.444 42.3725L84.2036 42.1321L83.843 41.7714L83.1218 41.2906L82.641 40.9299L82.5208 40.4491L82.7612 39.7278L83.1218 39.0065L83.7228 38.4054L84.9248 37.3234L85.5258 36.9628L86.247 36.7224H87.0884L87.449 36.6021L88.1702 36.1213L88.651 36.0011L89.6126 35.7607H90.454H90.6944L91.055 35.5202L91.1752 35.4H92.1368L94.3004 35.7607H94.5408L94.9014 35.5202L96.1034 35.2798H96.7044L97.666 35.7607H98.0266L98.5074 35.4L99.1084 35.1596L100.671 34.7989H101.152L101.512 35.0394L101.633 35.2798L101.993 35.6404L105.118 35.8808L105.599 35.7607L108.965 33.3563L109.205 33.4765L109.325 34.0776L109.566 34.3181L110.648 35.2798ZM244.791 30.351V30.4711V30.7116L244.55 30.8318L243.949 30.7116H243.589L243.228 30.952L242.988 31.1924L242.747 31.3127H242.387L242.146 31.1924L241.906 30.952L241.666 30.7116H241.545H240.944L240.103 30.8318L239.742 31.4329L239.622 32.1542L239.742 33.1159L239.983 33.5968L240.103 33.8372L240.704 34.4383L241.305 34.7989L241.425 34.9191V35.0394V35.5202V35.6404L242.026 36.6021L242.146 36.9628L242.387 38.6458L241.666 39.2469L240.824 39.9682L240.464 41.0501L240.343 42.9736L240.103 43.3342L237.579 45.0172L236.858 45.6183L234.454 48.2631L234.213 49.2248L233.853 49.5855L232.41 50.4269L231.449 51.1482L230.607 51.8695L229.285 52.711L228.804 53.1919L228.444 54.5143L228.083 54.7547L227.722 55.2356L226.52 56.1973L225.679 56.5579L224.597 56.7984L221.833 56.6782L219.909 56.9186L219.068 57.0388H218.707L218.227 56.7984H217.866L217.505 57.159L217.025 58.241L216.784 58.4814L216.183 58.6016L215.943 58.842L215.823 59.2027L215.582 59.5633L215.222 59.6836L212.938 60.0442L210.173 61.9677L209.452 62.2081L209.212 62.0879L208.971 61.7272L208.37 61.8474L207.409 62.0879L206.808 61.9677L206.327 61.7272L205.846 61.4868L205.365 61.7272L204.764 61.9677L204.283 61.8474L203.562 61.2463L203.202 61.1261L202.601 61.0059L202.12 61.1261L201.759 61.607L201.519 61.8474L201.158 61.9677H200.918L200.798 61.7272L200.918 61.3666L201.278 60.8857L201.519 60.2846V59.8038V58.7218L201.639 58.3612L202.12 57.8803L202.841 57.159L204.163 56.6782L204.644 56.4377L204.764 56.3175L205.726 56.1973L205.966 56.0771L208.13 54.8749L208.611 54.2739L208.13 53.5526L207.529 53.3121L207.048 53.0717L206.447 52.9515L205.846 52.8313L205.245 53.0717L204.404 53.6728L203.923 53.5526L203.682 53.1919V52.5908L203.803 50.7876L204.043 50.4269L205.005 49.8259L205.606 49.345L205.846 48.8642L205.966 48.2631V47.662L205.846 47.4216L205.485 46.8205L205.365 46.4598L205.485 46.3396L205.846 46.0992L205.966 45.979L206.086 45.3779V42.9736L206.327 42.4927L206.567 42.0118L207.168 41.4108L208.13 40.9299L208.37 40.8097L209.091 39.7278L209.332 39.4873L210.053 39.2469L210.173 39.1267L210.414 38.766L210.654 38.6458H211.135L211.976 37.4437L212.337 37.2032L212.457 37.083L213.659 36.0011L214.14 35.2798L214.5 35.0394L214.981 34.9191L215.462 34.7989L216.303 36.3617L217.025 36.9628L217.866 37.083L218.227 36.8426L218.707 36.1213L219.068 35.8808L219.549 35.6404H219.909L220.27 35.7607L220.631 36.1213L220.871 36.4819L221.111 36.9628L221.352 37.4437L221.472 37.8043L221.352 38.5256V39.0065L221.833 38.8862H222.313L222.794 38.766L223.155 38.5256L223.395 38.165V37.9245L223.275 37.4437V37.2032L223.395 37.083L223.636 36.7224L223.756 36.4819V35.6404L223.996 35.4L224.477 35.2798L225.198 34.5585L225.679 33.9574L225.919 33.717L226.04 33.4765L226.16 32.5148L226.52 31.0722V30.5914L228.203 30.4711L229.405 30.351L230.487 29.8701L232.17 28.7881L232.53 27.7062L232.771 27.586L234.454 27.1051L234.694 26.8647L235.295 26.2636L236.257 26.0232L236.617 25.7827L237.459 25.6625L238.18 25.0614L238.661 24.821L238.781 25.4221L238.42 26.2636V26.7445L238.54 27.2253L238.781 27.4658L239.021 27.7062L239.502 27.8264H239.863L240.223 27.7062L240.944 27.2253L242.146 26.7445L242.507 26.3838L242.627 26.2636L242.747 25.6625L242.868 25.5423L243.108 25.4221L243.469 25.7827L243.949 26.1434L244.43 26.3838L244.791 26.8647L245.031 27.3456V27.9466L244.55 29.6297L244.671 29.8701L244.791 30.351ZM101.873 16.7666L102.354 17.007L102.714 16.7666L102.955 16.2857L103.075 15.8049L103.436 15.6846H104.277L104.878 15.8049L104.758 16.2857L104.037 16.8868L103.676 17.1272L103.796 17.4879L103.436 17.6081H103.075L102.714 17.7283L102.594 17.9687V18.4496L103.075 18.9305V19.5315L102.955 19.772L102.594 20.2528L102.474 20.4933H102.234L101.993 20.2528L101.633 20.0124L101.512 19.772L101.392 19.6517L101.032 19.772L100.791 19.8922L100.551 20.0124L100.31 19.8922L100.07 19.6517L100.31 18.9305L100.431 18.69L100.791 18.5698L100.551 18.2092L101.032 17.9687L101.392 17.7283L101.512 17.4879L100.911 17.2474L101.152 16.7666L100.551 15.6846L100.791 15.0836L101.272 15.5644L101.512 15.6846L101.633 15.9251V16.5262L101.873 16.7666ZM173.152 12.1984L172.31 12.6792L171.709 12.0782L171.469 11.2366L171.95 10.7558L172.671 10.876L173.272 11.1165L173.512 11.4771L173.152 12.1984ZM96.464 12.0782L96.7044 12.1984L98.0266 12.0782H98.5074L98.868 12.1984L99.1084 12.559L99.2286 12.7995L99.1084 12.9197L98.868 13.0399V13.4005L99.3488 13.8814L99.5892 14.242L99.1084 14.3623V14.6027V14.8431V14.9633L98.267 15.0836L97.9064 14.9633L97.666 14.4825L97.4256 14.3623L97.065 14.4825L96.7044 14.9633L96.464 15.0836H96.1034L96.3438 15.4442L96.464 15.5644H96.7044L96.8246 15.324L97.065 15.4442L96.7044 16.1655L96.5842 16.4059L96.3438 16.5262L96.1034 16.4059L95.863 16.6463L95.7428 17.2474V17.6081L95.9832 18.0889L96.1034 18.5698L96.464 18.9305L95.863 19.0507L94.661 18.5698L94.1802 18.9305V18.8102L94.06 18.4496L94.1802 18.0889L94.661 17.2474V17.007V16.2857V16.1655L94.3004 16.0453L94.1802 15.9251V15.2038L94.06 14.4825L94.1802 14.3623L94.3004 14.0016H94.5408L94.9014 14.1218L95.0216 14.0016L95.262 13.5208V13.2803L95.1418 12.4388L95.3822 12.1984L95.262 11.8377L95.0216 11.1165L95.262 10.9962L96.1034 10.6356L96.2236 10.9962L96.3438 11.5973L96.464 12.0782ZM193.105 10.7558L193.345 11.1165L193.225 11.4771L192.864 11.8377L191.783 12.1984L189.619 12.3186L188.778 12.7995L187.455 14.8431L186.854 15.324L186.374 15.4442L186.133 15.324L185.532 14.7229L186.253 12.9197L188.657 11.2366H188.898L189.379 11.3569L189.739 11.2366L190.581 10.9962H190.821H191.302H191.662L192.263 10.6356H192.384L193.105 10.7558ZM155.482 8.59192L154.881 8.71214L154.521 8.4717L154.04 7.50999L154.28 7.38976L154.641 7.14932L155.001 7.02909L155.602 7.14932L155.843 7.63017V8.23125L155.482 8.59192ZM196.11 5.82694L196.831 6.30783L196.951 6.06738H197.192L197.552 6.18761L197.672 6.42802L197.793 6.78868L197.312 7.26954L197.192 9.07277L196.951 9.55363L196.11 10.0345H195.028L192.864 9.67385L190.701 10.1547L189.739 10.2749L189.138 9.67385V8.83233L189.619 8.11106L191.903 6.18761L192.263 5.94716L192.744 5.82694L193.586 5.58653H193.946H194.788L195.509 5.70675L196.11 5.82694ZM213.178 5.82694L213.058 6.42802L212.938 6.54824L212.697 6.66846L211.495 6.90891L209.813 7.02909L209.212 7.14932L208.851 7.38976L208.611 7.87062L208.25 8.83233L207.649 9.79408L206.567 10.876L206.327 10.9962L206.086 10.6356L205.966 10.2749L205.726 10.0345L205.365 10.2749L204.884 10.6356L204.524 11.1165L204.283 11.4771L204.163 11.5973L203.562 11.8377L203.442 12.0782L203.562 12.3186L204.524 13.5208L204.163 14.0016L203.803 14.3623H203.322H202.841L202.601 14.242L202 13.4005L201.639 13.1601L200.437 14.3623L200.197 14.4825L199.836 14.8431L199.596 14.9633H199.235L198.995 14.8431L198.634 14.3623L197.672 13.7612L197.071 13.5208L196.711 13.8814L196.47 14.0016H195.99H195.869L195.268 13.641L195.028 13.8814H194.908L194.547 13.2803L195.268 12.4388L196.831 11.3569L197.913 10.2749L198.394 10.0345H198.754L200.798 9.07277L201.158 8.83233L201.278 8.59192V8.11106L200.918 7.87062L200.076 7.7504H198.273L198.153 7.38976L198.514 7.02909L198.995 6.54824L199.475 6.42802L199.716 6.54824L200.197 6.66846L200.557 6.78868L200.798 6.42802H201.158L201.759 5.82694L202.12 5.70675L202.721 5.82694L203.442 5.94716L203.322 6.06738V6.54824L203.202 6.78868L203.081 7.02909L202.36 7.7504L202.12 8.23125V8.71214L202.36 8.95255L202.841 9.193L203.442 9.31322L204.043 9.193L204.404 8.95255L204.524 8.4717L204.283 8.11106L203.923 7.7504L203.803 7.50999L204.283 7.14932L204.644 7.50999H205.005L205.245 7.14932L205.365 6.66846L205.245 6.30783L204.884 5.82694L205.005 5.58653L205.365 5.22586H205.606H205.726L205.966 5.34608L206.086 5.70675V5.94716L206.447 6.06738H206.928L207.168 5.82694L207.048 5.58653V5.34608L207.649 5.22586L208.25 4.86523L208.611 4.5046L209.452 4.14393H209.813L209.933 4.38437L210.053 4.5046L210.534 4.86523L210.774 4.98545L211.135 5.10567L211.736 5.22586L212.818 5.34608L213.058 5.46631L213.178 5.82694ZM220.751 9.43341L220.39 10.0345L220.15 10.5154L219.909 11.7175L219.669 12.3186L219.429 12.9197L219.068 13.2803L218.587 13.641L218.106 13.8814L217.505 14.0016H216.904L216.303 13.8814L216.063 13.641L216.183 12.559L216.063 12.0782L215.582 11.4771L215.462 11.1165L215.222 10.7558H214.741L214.14 10.876L213.178 11.4771H212.697L212.337 11.3569L212.457 10.9962L212.938 10.6356L213.899 8.95255L214.38 8.35147L215.342 7.63017L215.823 7.38976L216.183 7.50999L216.664 7.87062L216.904 8.59192V8.71214L217.265 9.31322L217.626 9.55363V8.95255L217.866 8.59192L218.587 8.11106L219.549 6.54824L220.03 6.06738L220.751 4.86523L221.111 4.5046L221.472 4.14393H221.712L222.193 4.26415L222.434 4.5046L222.794 5.22586L222.434 6.18761L222.313 6.78868L222.434 7.26954L222.554 7.7504L222.073 8.35147L221.111 8.95255L220.751 9.43341ZM229.525 2.82155L230.006 3.18222L230.126 4.38437L230.487 4.86523L231.449 4.14393L232.05 3.90352L232.651 3.78329L234.934 3.54285L238.18 3.78329L239.141 3.54285L239.622 3.30244L239.983 3.42263L240.343 3.66307L240.704 3.78329L242.026 3.54285H242.868L243.228 3.66307L243.469 3.90352L244.07 4.86523L244.31 5.10567L244.43 5.58653V7.87062L244.31 8.35147L244.07 8.71214L243.469 8.83233H242.868L241.425 9.193L239.021 9.31322L234.694 10.1547H233.612L232.17 10.0345H231.689L231.449 10.1547L230.848 10.5154L230.247 10.6356L229.766 10.876L229.285 10.9962L228.924 11.1165H228.804L228.444 10.876L228.323 10.7558H227.843H227.362L226.4 11.2366L226.16 11.5973L225.919 11.7175L225.679 11.5973L225.318 11.2366L225.078 11.1165L224.958 11.2366L224.357 11.4771H223.996L223.876 11.2366L223.756 10.9962L223.515 10.7558L223.395 10.2749L223.756 9.79408L224.597 9.193L224.838 8.83233L225.318 7.87062L225.439 7.50999L227.001 6.42802L227.843 6.30783H228.083L228.684 5.82694L228.924 5.70675L229.045 5.46631V5.22586H228.804L228.203 5.34608L227.602 5.58653L225.679 6.42802H224.958L225.078 5.22586L225.318 4.98545L225.679 4.745L226.04 4.38437L226.16 4.0237L226.28 3.66307L226.52 3.30244L226.761 3.06199L227.121 2.82155L227.722 3.06199L228.924 2.82155H229.525ZM188.177 3.66307L188.056 4.5046L188.778 6.30783L189.138 6.78868L189.258 7.02909L189.379 7.26954L189.258 7.87062L189.138 8.23125L188.657 8.35147L187.095 8.4717L186.614 8.59192L186.133 8.95255L185.893 9.67385L186.133 10.6356V11.1165L185.893 11.4771L185.412 11.5973L184.811 11.3569L184.21 11.1165L183.97 10.876L183.849 10.6356H183.729L183.489 10.876L183.369 11.2366V11.7175L183.609 12.1984L184.691 14.0016V14.7229L183.609 15.4442L183.369 15.5644L182.046 15.6846L181.806 15.8049L181.566 16.1655H181.325L180.484 16.0453H180.243L179.642 16.4059L179.522 16.6463H179.162L177.238 17.007L176.998 17.2474L176.277 17.9687L175.916 18.2092L174.233 18.8102L173.152 18.9305H170.507H170.026L169.425 19.1709H169.065L168.464 18.8102L166.781 18.5698L165.459 18.69L164.497 19.2911L163.656 20.0124L162.694 20.4933L159.329 21.455L158.247 22.056L157.165 22.6571L156.804 22.7773H156.564L155.963 22.6571H155.602L155.122 22.4167L154.641 22.056L154.4 21.8156L154.04 22.1763L153.679 23.138L153.319 23.2582L153.198 23.0178L152.838 21.9359L152.597 21.455L151.636 20.9741L150.554 20.8539L149.472 20.9741L148.39 20.7337L147.429 20.4933L146.708 20.373L146.347 20.4933L145.986 20.9741L146.107 21.5752L146.227 22.1763V22.6571L145.265 23.6189H144.183L141.9 22.8976L140.698 23.0178L139.736 23.3784L138.173 24.22L137.693 24.3402L136.25 24.22L135.529 23.9795L135.289 23.8593H134.688H134.447L133.966 23.4986L132.885 22.2965L132.644 21.9359L132.404 21.3348L132.043 20.9741L131.562 20.8539L130.961 21.0943L130.721 21.455L130.481 21.9359L130.24 22.1763L129.88 22.4167L129.279 22.2965L128.918 22.056L128.557 21.8156L128.197 21.6954H127.836H127.355H127.115L126.634 21.2146L126.394 21.0943L126.033 20.4933L125.793 20.373L125.432 20.2528H124.831H124.23L123.148 20.4933H122.547L121.706 20.373H121.466L120.865 20.4933H120.624L120.264 20.373L118.701 21.3348L117.619 21.2146L116.658 21.0943L116.177 20.8539L115.095 19.8922L114.614 19.6517H114.133L113.773 19.772L112.811 20.2528L111.85 20.4933L109.686 20.8539L108.965 21.3348H108.724L108.604 21.5752L108.845 21.9359V22.056L108.604 22.1763L108.244 22.4167H107.883L107.763 22.1763L107.522 20.7337L107.282 20.6135L106.681 20.4933L106.08 20.2528L105.719 20.0124L105.479 19.5315L105.239 18.9305V15.0836L105.359 14.3623L105.599 13.7612L106.921 12.4388L107.042 11.8377L106.921 11.2366L106.801 10.2749L107.643 11.1165L108.244 11.5973L108.604 11.3569L109.325 10.9962L109.686 10.876L109.926 10.9962L110.047 11.1165L110.407 10.9962L110.527 10.6356L110.768 10.0345L111.008 9.55363H111.249L111.729 9.67385L112.09 9.55363H112.33H112.571V9.9143H112.811L113.172 9.67385L113.292 9.43341V9.07277L113.532 8.59192L113.893 8.95255L114.013 9.193H114.254L114.494 8.59192L115.456 7.7504L115.576 7.26954L115.936 7.14932L117.499 6.42802L120.143 6.66846L120.504 6.42802L121.105 5.58653L121.345 5.34608L121.706 5.46631L121.946 5.94716L122.067 6.30783L122.307 6.66846L122.908 6.78868L123.99 6.06738L124.471 6.42802L124.711 6.54824L125.192 6.78868L125.552 6.90891L125.793 6.78868L126.033 6.54824V6.18761L125.793 5.58653L126.875 5.94716L127.355 6.30783L127.596 6.66846L127.836 7.14932L129.279 7.87062L129.759 8.11106L131.562 7.87062L132.043 7.99084L132.404 8.23125L133.005 8.35147L134.087 8.4717L135.289 8.23125H135.769L136.25 8.59192L136.851 9.31322L137.212 9.79408L137.813 10.0345L139.135 10.5154L139.736 10.6356H140.217L140.577 10.7558L140.698 10.876L140.938 10.9962H141.659H141.9L142.14 11.1165L142.38 11.4771L143.462 11.5973L143.703 11.7175L143.943 11.9579L144.664 12.9197L145.265 13.2803L146.347 14.4825L147.068 14.7229H147.549L147.789 14.4825L148.15 14.3623H148.751L149.232 14.6027L149.352 14.7229L149.472 15.2038L149.713 15.324L150.073 15.0836L150.193 14.9633L151.155 14.3623H151.395V13.8814V13.5208H151.636L152.237 13.641L152.117 13.1601V12.4388L152.357 11.9579L152.718 11.7175L153.078 11.8377L154.16 12.9197L154.641 12.7995L156.083 12.3186L156.564 12.1984L156.925 12.3186L157.165 12.4388H157.526L157.646 12.3186L158.247 11.8377L158.607 12.1984L159.208 12.3186L159.689 12.4388L160.771 11.8377L161.011 11.7175V11.4771L161.132 11.3569L162.093 11.1165L162.334 10.9962L162.694 10.6356H163.055L163.295 10.7558L163.536 10.9962V11.2366L163.175 11.5973L163.055 12.0782L163.175 12.559L163.536 12.9197L163.776 13.0399L164.377 12.9197H164.617L164.978 13.0399L165.459 13.4005L165.819 13.5208L166.18 13.641L168.464 15.6846L169.305 16.0453L170.026 16.1655L174.233 15.324L174.955 15.0836L175.556 14.6027L175.916 14.0016V13.2803L175.676 13.1601L175.315 13.0399L175.195 12.9197L175.075 12.6792L175.195 12.1984L175.435 11.9579L176.758 11.3569L177.118 10.9962L178.08 9.79408L178.561 9.55363H179.522L180.003 9.31322L180.484 9.55363L180.844 9.43341L181.325 9.07277L181.686 8.95255H182.287L182.647 8.71214L183.248 7.87062L183.97 7.38976L185.532 6.90891L187.215 5.10567L187.335 4.745L187.095 4.5046L186.494 4.38437L185.412 4.26415L184.811 4.38437L184.21 4.745L183.609 5.10567L183.128 5.46631H183.008L182.046 5.58653L181.926 5.46631L181.806 5.22586L181.926 4.86523L182.768 3.66307L182.888 3.30244L183.008 2.70136L183.248 2.34069L184.33 1.73961L184.811 1.37898L185.051 1.25876H185.412L185.652 1.37898L185.893 1.85984L186.013 1.98006L186.494 2.10028L186.975 2.34069L187.696 2.82155L188.056 3.30244L188.177 3.66307Z" fill="#7C7C7C" stroke="white" stroke-width="2" stroke-linecap="round" stroke-linejoin="round"/>
<path d="M25.3056 9.67385L25.0652 10.1547L24.2238 11.4771L23.9834 11.7175L23.8632 12.0782L23.743 14.0016L23.3824 14.4825L22.3006 15.5644L22.0602 16.1655L21.5794 17.007L20.3774 19.0507L19.536 19.8922L18.935 20.6135L19.1754 21.3348V21.6954V22.056H19.536L19.7764 21.5752L20.0168 21.455L20.2572 21.6954L20.4976 21.8156L20.8582 22.056L21.339 22.1763L20.738 23.0178L19.6562 23.138L19.1754 23.0178L18.334 23.6189H17.6128L17.2522 23.3784L17.733 22.7773L17.9734 22.1763L18.2138 21.5752L17.8532 21.3348L17.0118 21.455L16.2906 21.9359V22.6571L16.4108 23.6189V24.5806L16.0502 24.4604V23.7391L15.8098 23.4986L15.5694 23.3784L15.329 23.7391L15.0886 23.8593L14.728 23.2582L14.4876 23.138L14.0068 23.2582L13.0452 23.6189H12.5644H12.4442L12.2038 23.3784L12.0836 23.2582L11.8432 23.3784L11.4826 23.6189H11.2422L11.0018 23.4986L10.6412 22.7773L10.2806 22.5369H9.91998L8.71798 22.4167L8.59777 22.8976L8.23719 23.0178H7.99677L7.63619 22.6571H7.87657L8.11698 22.4167V22.1763L7.99677 22.056L7.7564 21.9359L7.27557 22.1763H7.03519L6.91498 22.4167V22.6571L7.03519 23.2582L6.67457 23.3784H6.43419L6.19377 23.2582L5.9534 23.138L5.83319 22.8976L5.59277 22.2965L5.47257 22.056L5.11198 21.8156L4.87157 21.9359L4.51098 22.056L4.03019 21.9359L2.46757 21.0943L1.7464 20.9741L1.50598 20.2528V19.6517L1.62619 19.1709L1.98677 18.5698L2.46757 18.69L2.82819 18.5698L2.9484 18.69V19.0507L3.06857 19.2911H3.78977H4.39077H4.7514L5.11198 19.0507L5.47257 18.8102L5.71298 18.9305H5.9534L6.5544 19.1709L7.03519 18.8102H7.27557L7.39577 19.1709L7.63619 19.4113L7.99677 19.0507L8.23719 18.8102L8.3574 18.5698L7.51598 18.2092L7.63619 17.1272L7.7564 16.2857L7.87657 14.6027L7.51598 13.1601L6.91498 12.559L6.67457 11.1164L7.27557 10.2749L7.7564 10.1547H8.47757L8.71798 10.0345L8.83819 9.91429L8.9584 9.4334L9.07857 9.31321L9.5594 8.95255L10.2806 8.59191L10.6412 8.23124L12.925 5.94715L13.4058 5.58652L15.6896 4.745H16.1704L17.0118 5.10567L18.935 5.58652L20.0168 5.82693L20.3774 6.06738L20.8582 6.30782L21.339 6.54823L22.4208 6.66846L23.3824 7.02909L24.344 7.75039L25.0652 8.71214L25.3056 9.67385ZM46.4608 9.4334L45.98 9.55362L45.7396 9.4334L44.8982 8.95255L44.6578 8.59191V8.47169L45.0184 8.11106L45.379 7.14931V6.78868L45.0184 6.42801L44.6578 5.94715L44.5376 4.86522V4.50459L44.778 4.26414L44.8982 4.0237L46.3406 3.30243L46.7012 3.18221L49.3456 3.30243L49.8264 3.54284L50.0668 3.78329L50.187 4.0237L50.0668 4.26414L49.9466 4.38437L49.4658 4.62478L48.7446 5.34608L48.2638 6.06738L46.8214 8.95255L46.4608 9.4334ZM86.848 6.06738L86.247 6.30782H85.5258L84.8046 5.58652V4.38437L85.2854 3.30243L86.4874 2.82154L87.2086 3.30243L87.6894 3.78329L87.8096 4.38437L87.5692 5.22585L87.2086 5.58652L86.848 6.06738ZM57.399 1.98005L57.5192 2.22046H57.7596L58 1.98005H58.2404L58.7212 2.10028L60.0434 2.22046L61.1252 2.34069L62.0868 2.94176L62.5676 3.90351L62.6878 4.98544L62.808 5.4663L62.9282 5.70675L63.0484 5.94715L63.8898 7.02909L64.4908 8.11106L64.7312 8.35147L64.8514 8.47169L65.212 8.23124L66.0534 9.07277L66.2938 9.19299L66.6544 9.07277L67.1352 8.83232L67.616 8.47169L68.3372 7.75039L68.5776 7.50998V7.26953L69.0584 7.02909L69.2988 6.78868L69.6594 6.1876L70.2604 5.94715L70.8614 5.82693L71.222 5.94715L71.4624 6.06738L71.9432 6.42801H72.3038H73.2654L73.5058 6.54823L73.9866 6.78868L74.828 6.9089L75.0684 7.02909L75.429 7.38976L76.2704 9.19299L76.1502 9.67385L76.03 10.2749L75.9098 11.4771L75.3088 13.2803L75.1886 13.6409L75.5492 13.8814L75.9098 13.4005L76.2704 12.9197L76.7512 11.8377L77.1118 11.3569V10.9962L76.8714 10.3951V9.4334L77.232 8.59191L77.833 7.99084L78.434 7.50998L79.2754 7.14931L80.5976 7.02909H81.7996L82.8814 7.14931L83.4824 7.38976L83.9632 7.50998L84.2036 7.87061L84.3238 8.47169L84.444 9.19299L84.8046 10.3951L85.5258 11.8377L85.4056 12.7995L85.045 13.8814L85.2854 14.7229L85.1652 15.4442L85.2854 16.0453L85.646 16.4059L86.247 16.6463L86.6076 16.5262L87.0884 16.2857L87.5692 16.0453L87.9298 15.8049V15.5644L87.6894 15.2038L88.2904 15.0836L88.4106 14.8431V14.6027V14.3622L88.651 14.1218L88.8914 14.4825L89.3722 15.0836L89.4924 15.4442L89.1318 15.6846L89.252 15.9251L88.8914 16.1655L88.7712 16.4059V16.7666L88.8914 17.1272L89.0116 17.4879L89.1318 17.8485L88.8914 18.0889L89.0116 18.4496L88.5308 18.69L88.1702 18.9305L87.8096 19.0507L87.3288 18.8102V19.1709L87.0884 19.2911H86.848L86.6076 19.0507L86.247 18.9305H85.8864L85.646 19.0507L83.9632 19.2911L83.4824 19.1709L82.7612 18.69L82.2804 17.8485L82.04 17.6081H81.5592L81.439 17.7283L81.3188 17.9687L81.0784 18.2092L80.4774 18.4496L79.3956 18.0889L78.7946 18.4496L78.0734 18.0889L77.5926 18.3294L77.1118 18.69L76.3906 19.1709L76.7512 19.2911L77.1118 19.6517L77.3521 19.772L77.5926 19.8922H79.636L81.7996 20.2528L82.2804 20.373L82.5208 20.6135L82.641 20.8539L82.8814 21.2146V21.3348L82.7612 21.5752L82.5208 21.6954L81.7996 21.8156H81.5592L80.9582 21.6954H80.7178L80.3572 21.455L80.237 21.5752L79.8764 21.8156H79.7562L79.5158 21.6954L78.434 20.8539L77.833 20.4933H76.7512L75.5492 20.7337L70.2604 22.1763L68.9382 21.9359L68.217 20.373L68.3372 19.6517L68.6978 19.1709L69.1786 18.69L69.5392 17.9687V17.6081L69.6594 17.1272L69.5392 16.7666V16.4059L69.2988 16.0453L69.0584 15.6846L68.9382 15.2038V14.7229L68.5776 15.0836L68.4574 15.6846L68.5776 16.8868L68.4574 17.1272L67.9766 17.3676L67.3756 17.4879L67.015 17.6081L66.2938 18.5698L65.9332 19.4113L65.813 19.5315L65.5726 19.772H65.3322L62.207 22.2965L61.8464 22.4167L61.2454 22.1763L60.6444 21.8156L60.1636 21.6954H59.9232L59.0818 22.056V21.9359L58.7212 21.8156L58.601 22.1763L58.3606 22.2965L58.1202 22.6571L55.2354 24.0997L54.995 23.8593H54.7546L54.394 23.9795L54.2738 23.8593L54.0334 23.3784L53.9132 23.2582H53.5526L53.3122 23.3784L53.0718 23.8593L52.591 23.9795H52.2304H52.1102L51.5092 23.7391L51.2688 23.3784L50.9082 23.4986L50.5476 23.6189L49.4658 24.0997L46.581 25.7827L45.4992 26.2636L42.1336 27.2253L40.6912 27.3456L39.8498 26.9849L39.1286 26.8647L37.9266 26.3838H37.0852L36.4842 26.6243L36.0034 27.3456L35.763 27.8264L35.2822 28.187L33.8398 28.4275L32.2772 28.6679L31.7964 28.0668L31.1954 27.7062L30.7146 27.3456L30.1136 27.4657H29.6328L28.0702 26.9849L27.5894 26.8647L26.9884 26.7445L26.147 26.1434H25.7864V25.903L25.4258 25.3019L24.945 24.821L25.0652 24.3402L25.4258 23.7391L25.3056 23.2582L25.0652 22.4167L25.7864 21.8156L26.147 21.2146L27.2288 20.9741L27.4692 20.4933L27.349 20.1326L26.8682 19.772L26.748 19.2911L26.5076 19.0507L26.0268 19.1709L25.9066 18.8102L26.0268 17.9687V17.3676L25.4258 17.007L26.5076 14.8431L27.5894 14.6027L27.8298 14.0016V12.7995L28.3106 13.1601L28.551 13.2803H28.9116H29.152L31.6762 12.4388L32.8782 11.7175L34.4408 10.6356L35.2822 10.0345L35.0418 9.55362L35.6428 9.19299L36.6044 9.07277L37.0852 8.83232L37.6862 9.55362L38.0468 9.67385H38.8882L39.1286 9.79407L39.4892 10.0345L40.3306 10.3951L41.2922 11.1164L43.3356 12.0782L43.2154 11.5973L43.3356 11.3569L43.4558 10.9962L43.576 10.7558V10.2749L43.6962 10.1547L43.9366 10.2749L44.2972 10.3951H45.6194L46.2204 10.2749L46.581 10.0345L46.8214 10.5154L47.0618 12.1984L47.5426 12.9197L47.6628 12.4388V11.1164L48.0234 10.7558L48.2638 10.9962L48.5042 11.4771L48.6244 13.2803L48.7446 13.6409L48.985 14.0016L50.3072 14.6027L50.5476 14.4825L50.788 14.3622L51.1486 14.242L51.389 14.3622L51.2688 14.7229L51.7496 14.9633L52.1102 15.324L51.99 15.5644V15.8049L52.591 15.9251L52.7112 16.1655H52.3506L51.99 16.2857L51.7496 16.4059L51.99 16.7666L52.3506 17.7283L52.591 18.0889L53.0718 18.3294H53.5526L55.1152 17.8485H55.3556L55.4758 18.0889L55.596 18.5698H55.9566L56.4374 18.69L56.9182 18.8102L57.2788 19.1709L57.8798 18.69L58.9616 17.4879L59.3222 17.2474H59.4424L59.9232 16.6463L61.3656 16.4059H62.207H62.4474L62.9282 16.7666H63.1686H64.4908L65.0918 16.6463L65.4524 16.2857L65.6928 15.8049V15.324L65.4524 14.8431L65.212 14.4825L64.7312 14.3622L64.4908 14.0016L64.2504 13.8814L64.1302 14.0016L63.8898 14.242L63.5292 14.6027L63.1686 13.8814L61.9666 12.9197L61.606 12.1984H61.4858L61.1252 12.4388L60.7646 12.3186L60.0434 11.4771L59.6828 11.2366L59.0818 11.4771L58.2404 11.8377H57.8798L57.399 11.5973L56.9182 11.2366L56.5576 10.7558L54.995 9.91429L53.5526 8.71214L53.192 8.35147L52.591 7.38976L52.1102 7.02909L51.389 6.42801L51.1486 6.06738L50.9082 5.82693L50.6678 5.70675L50.4274 5.4663L50.5476 4.745L50.788 4.0237L51.0284 3.54284L51.389 3.30243L51.6294 3.18221H51.99L52.591 2.70135H52.8314L53.192 2.58113L55.3556 1.73961L55.9566 1.61938H57.0384L57.2788 1.73961L57.399 1.98005Z" fill="#7C7C7C" stroke="white" stroke-width="2" stroke-linecap="round" stroke-linejoin="round"/>
</svg>
