<svg width="297" height="270" viewBox="0 0 297 270" fill="none" xmlns="http://www.w3.org/2000/svg">
<path d="M102.156 140.398L103.478 141.961L103.959 142.201H103.358L102.757 141.6L102.036 140.879L101.555 140.638H101.194L100.593 140.758H100.353H99.872H99.6316L99.3912 140.518L99.0306 140.278L98.67 140.037L98.069 139.797L97.7084 139.677L97.468 139.436L97.2276 139.075L96.9872 138.835H96.6266L96.266 138.715L96.0256 138.354L95.9054 137.994V137.633L96.0256 137.152H96.3862L98.1892 138.474L98.5498 138.595V138.715L98.7902 139.196L99.271 139.436L99.5114 139.677H99.7518L100.473 139.797L101.194 139.917L101.675 140.157L102.156 140.398ZM79.3178 119.24L79.7986 120.081L80.039 120.442L80.1592 120.923V121.404L79.7986 121.764L79.5582 121.524L79.1976 121.163L78.9572 120.682L78.837 120.081L78.7168 119.961H78.3562L78.1158 119.841L77.635 119.24L77.8754 119.12L78.236 118.879L78.4764 118.759L78.837 118.879L79.3178 119.24ZM51.0708 99.1639H50.4698L50.3496 99.0437L50.4698 98.9235L51.0708 98.683L51.792 98.2022L52.1526 98.0819H52.5132L52.1526 98.4426L51.6718 98.8032L51.0708 99.1639ZM101.675 93.5138L102.036 93.7542V93.634H102.276L102.877 93.9946L103.358 94.235V94.8361L102.877 95.4372H102.276L102.156 95.1968L101.194 94.8361L100.954 94.4755L100.834 94.1148L100.593 93.7542L100.353 93.2733L100.834 93.1531L101.675 93.5138ZM128.48 93.7542L127.999 93.8744L127.758 93.634L127.638 93.3935L127.999 93.0329L127.278 92.6722L127.398 92.3116L128.119 91.5903L128.359 91.2297L128.48 90.6286V89.6668L128.72 89.7871L128.84 90.0275V90.3881V90.7488V92.9127L128.96 93.5138L128.84 93.634L128.48 93.7542ZM123.551 85.9402L123.071 86.0604L122.59 85.5795L122.349 84.9784V84.2571L122.59 83.5359L122.83 82.9348L123.191 82.4539L123.431 82.2135L123.792 82.0933L124.032 82.2135L124.393 82.3337L124.753 82.5741L124.874 82.9348L124.753 83.2954L124.032 84.4976L123.912 85.4593L123.551 85.9402ZM118.743 79.9294L118.263 80.5305L117.902 79.3283V78.8474L118.142 77.6453L119.585 75.3612L119.825 75.241L120.186 75.3612V75.842L120.066 76.6836L119.825 76.8038L119.465 77.1644L119.104 77.5251L119.585 78.1262L119.224 78.9677L118.743 79.9294ZM18.6168 74.0388L18.4966 75.241L19.939 76.3229L20.1794 76.6836L20.54 77.1644L20.7804 77.7655V78.1262L20.4198 78.2464L20.1794 78.3666L20.0592 78.9677L19.939 79.0879H19.338L18.6168 79.689L18.2562 80.1698L20.6602 81.1315V81.372L20.54 81.4922H20.1794L19.939 81.6124L19.6986 81.7326L19.338 82.2135L19.0976 82.3337L18.8572 82.2135L18.6168 82.0933L18.136 81.8528V81.6124L18.2562 81.2517L18.136 80.7709L17.8956 81.0113L17.4148 81.8528L17.1744 81.9731L16.8138 82.2135L16.4532 82.5741L16.2128 82.9348L15.9724 83.1752L15.131 83.5359H13.328L12.6068 83.7763L12.2462 83.4156L11.8856 83.1752L12.2462 83.055L11.525 82.6944L11.0442 82.5741L9.60183 82.6944L8.52 82.2135L7.318 82.0933H7.07758L6.83717 81.8528L5.99583 81.6124L5.515 81.2517L5.15441 81.1315L5.03417 81.0113L4.55341 80.5305L4.313 80.4102L3.23117 79.9294L2.63017 79.689L2.38983 79.5687L1.909 78.9677L2.63017 78.4868L5.99583 77.2847H6.116V76.924L6.59683 76.6836H6.83717L7.67858 76.5633L8.27958 76.3229L9.60183 75.4814L10.0826 75.3612L10.6836 75.241L11.7654 75.1208L12.8472 74.8803H13.4482L15.0108 75.1208H15.3714L15.732 74.6399L16.333 74.2793L16.8138 74.0388L17.6552 73.6782L18.0158 73.558H18.2562L18.4966 73.6782L18.6168 74.0388ZM8.27958 60.5747L8.03917 60.8151L7.43817 61.4162L7.19783 61.0555V60.8151L6.23617 61.6566L5.63517 62.0173L4.914 62.1375L5.99583 61.4162L6.116 61.1757L5.99583 61.0555L5.75541 61.1757L5.27458 61.4162H4.914H3.111L2.63017 61.1757L2.75041 60.8151L3.23117 60.4545L5.63517 59.6129H6.116L6.59683 59.9736H7.07758H7.67858L8.15941 60.214L8.27958 60.5747ZM33.762 53.9628L33.8822 54.2032H34.0024L34.363 53.9628L34.8438 53.7224H36.0458H36.2862L36.767 54.2032L37.368 55.0448V55.2852L37.0074 55.6458L36.8872 55.8863L37.2478 56.4873V56.7278V57.9299L36.4064 61.7768L35.8054 62.979L35.6852 63.4599L35.565 64.0609L35.3246 64.5418L34.964 65.0226L34.363 65.1429L34.0024 65.0226L33.6418 64.4216L33.2812 64.3014H33.0408L32.6802 64.5418L32.1994 64.7822L31.8388 64.662L31.5984 64.5418L30.8772 63.5801L30.757 63.2194L30.156 62.8588L29.4348 62.3779L29.0742 62.1375L28.8338 61.7768V61.5364V61.0555V60.9353L28.4732 60.6949L28.353 59.8534L28.1126 59.6129L27.5116 59.0119L27.2712 58.7714L27.8722 58.2906V57.6895L27.6318 57.0884L27.2712 56.6075L26.3096 55.6458V55.2852L27.0308 54.8043L29.9156 54.083L30.9974 53.4819L31.959 53.1213L32.56 53.0011L33.161 53.1213L33.5216 53.6022L33.762 53.9628ZM31.2378 49.8755H31.5984L32.0792 49.7553L32.56 49.8755L32.9206 50.1159L33.4014 50.2361L33.2812 50.3563L32.56 50.5968L32.1994 50.717L32.0792 50.9574L32.1994 51.1978H32.56L32.6802 51.4383L32.56 51.5585L32.3196 51.6787L32.0792 51.7989L31.4782 52.0394L30.6368 52.5202L30.156 52.6404H29.1944L25.4682 53.4819L23.545 53.7224L22.5834 53.8426V53.7224L22.944 53.4819H22.4632L21.9824 53.3617L21.742 53.4819L21.5016 53.8426H21.3814L21.141 53.6022H20.6602L19.6986 54.083L19.939 53.6022L20.4198 53.3617L20.7804 53.1213L20.6602 52.6404L21.0208 52.2798V51.1978L21.3814 50.8372V51.1978H21.5016L21.6218 50.8372L21.742 50.717H22.1026L22.4632 50.8372L22.2228 51.4383L22.8238 51.6787L23.6652 51.5585L24.0258 50.8372L24.2662 50.9574L24.5066 51.0776V51.3181L24.6268 51.5585L25.348 50.9574L25.8288 50.8372L26.1894 51.0776L26.0692 51.1978L26.4298 51.3181L26.6702 51.1978L26.7904 51.0776H27.0308H27.3914L28.1126 51.3181L28.4732 51.4383L29.0742 51.1978L29.6752 50.8372L30.156 50.717L30.6368 51.1978V50.9574L30.5166 50.717L30.6368 50.3563L30.156 49.8755L30.2762 49.6351L30.5166 49.7553L30.757 49.8755H31.2378ZM27.2712 41.9412L27.151 42.3019L26.4298 43.2636L26.0692 43.6243L24.8672 43.8647H24.5066L24.2662 43.7445L24.5066 43.5041L24.8672 42.6625V41.9412L24.0258 42.3019L23.9056 42.7827L23.7854 42.903L23.545 43.0232L23.1844 43.1434L23.0642 43.2636H22.8238L21.3814 43.5041L21.6218 43.2636L22.1026 42.903L22.2228 42.6625L21.8622 42.7827L21.5016 42.6625L21.3814 42.3019L21.141 41.9412L21.5016 42.0615L21.742 42.3019L21.8622 41.9412L22.2228 41.5806L22.4632 41.3402L22.5834 41.4604L22.7036 41.821L22.944 42.0615H23.3046L23.6652 41.9412L23.9056 41.7008L24.146 41.3402L24.5066 41.0997L25.1076 40.9795L25.4682 40.6189L25.5884 40.4987H25.8288L26.1894 40.7391L26.7904 40.9795L27.0308 41.22L27.2712 41.5806V41.9412ZM6.35641 42.6625L6.116 42.903L5.75541 42.7827L5.39483 42.4221L5.27458 41.821V41.4604L5.39483 41.0997L5.515 40.9795L5.99583 40.6189L6.47658 40.4987H6.717L6.95741 40.6189L7.07758 40.9795V41.3402L6.717 41.821L6.59683 42.3019L6.35641 42.6625ZM131.124 103.973L126.316 107.819L125.955 108.06L125.595 108.3L125.354 108.541V108.781L125.475 109.863V110.224L124.753 111.185L122.349 113.109L121.628 113.95L121.027 114.912L120.306 116.235L119.945 117.437L119.825 118.158L120.426 118.639L146.75 128.016L136.533 140.999H136.172L135.211 141.119L134.85 140.999L134.369 140.638L133.047 139.677L132.807 139.556V139.196L132.687 138.234L132.566 138.114L132.086 137.873H131.485H130.884L130.643 137.392L130.763 136.912L131.605 136.311L131.845 135.709V135.469L131.485 135.229L131.364 134.988L131.244 134.748L131.364 133.305L131.605 132.944L132.086 132.824L132.566 132.704H133.047L134.129 133.065H136.293L136.773 133.185L137.374 133.666L137.615 133.786L137.855 133.666L138.216 133.425H138.456L138.937 133.065L139.057 132.944L138.937 132.704H138.817L138.576 132.944L138.336 133.065L137.975 132.944L137.735 132.704V132.464L137.615 132.343H137.374L136.894 132.584L135.692 132.464L133.768 132.223L131.725 132.103L131.364 131.983L131.124 132.103L131.004 132.584L130.283 132.944L129.922 133.185L129.682 133.546V134.026L129.441 134.387L128.96 134.507L127.638 134.868L127.398 134.988L127.037 134.748L126.316 134.147L125.835 133.786L126.196 133.305L125.835 132.824L125.354 132.464L124.874 131.983L124.513 131.863L123.912 131.742H123.431L122.349 130.901L122.83 131.742L123.071 132.343L122.83 132.824H121.628V133.065L121.989 133.185L122.349 133.546L122.47 133.786L122.59 134.267L122.229 134.868H121.869L121.628 134.628L121.388 134.387L121.147 134.026L120.787 133.546L120.306 133.425L119.825 133.305L119.224 133.185L118.743 132.824L118.503 132.464L118.383 132.223L118.263 131.502L118.142 131.382L117.902 131.502L117.421 131.742L117.181 131.502L117.421 131.021L118.503 130.18L118.743 130.059L118.623 129.819L118.263 128.737L117.902 128.376L117.541 128.016L117.061 127.655L116.94 127.895V128.256L117.061 128.617L116.94 129.098V129.218L116.58 129.578L116.099 129.699L115.618 129.458L115.137 129.098L114.777 128.977L114.296 129.218L113.695 130.3L113.334 130.54L112.974 130.42L112.613 130.059L111.411 127.294L110.93 126.573L109.849 125.251L109.608 124.89L109.488 124.289V123.808V123.568H109.248H109.007L108.647 123.928L108.406 124.049V124.65L108.526 125.251L108.887 125.852L109.127 126.573L109.248 126.813V127.054L108.887 127.174L108.767 127.054L108.406 126.212L108.166 125.972L107.925 125.732L107.565 125.491L107.084 125.371L106.723 125.491L106.243 125.732H106.002L105.762 125.13L106.002 124.65L106.122 124.409V124.169L105.882 123.568L105.642 122.967L104.56 121.404L104.319 120.803V120.202L104.68 119.841L105.281 119.601L105.762 119.36L105.882 118.759V118.038L105.401 116.114V114.311L105.642 113.83L106.122 114.191L106.243 114.071V113.83V113.229L106.483 112.989H106.844L107.324 113.109L107.685 112.748L108.046 111.666L108.526 111.426L109.007 111.185L109.728 110.464L110.089 110.224L110.69 110.584L111.051 111.185L111.411 111.426L111.892 111.185L111.652 110.945L111.531 110.584L111.411 110.344L110.81 110.104L110.57 109.863L110.329 109.623L110.089 109.262V108.901V108.42L110.45 107.579L110.57 107.218V106.978L110.45 106.617L110.089 106.136L109.608 106.257H109.127L108.887 106.497L109.248 106.978V107.098L108.887 107.699L108.767 108.42L108.526 108.661L106.723 109.502L106.363 109.863L105.642 110.584L105.041 111.426L104.68 113.109L104.92 117.677L103.959 119.12L103.598 119.24L102.156 119.48H102.036L101.795 119.24L101.435 118.278L101.314 118.158L100.954 118.038V118.278L101.074 118.759L101.194 119.48L100.954 119.601H100.353V119.841L100.954 120.081L101.915 120.442L102.396 120.803L102.757 121.284L102.997 121.885V122.486L102.877 122.967L102.637 123.327L102.156 123.808L101.675 124.169L101.194 124.289L100.834 124.409L98.3094 127.054L97.9488 127.895L98.3094 129.098L99.0306 129.819L99.5114 130.3L99.3912 130.781L99.1508 131.021L98.5498 131.261L98.3094 131.382L98.069 131.622L97.7084 132.343L94.5832 135.709L94.1024 136.07L93.1408 136.431L91.8186 136.311L89.655 135.95H88.9338L88.5732 136.19L87.852 137.032L87.3712 137.272H86.7702L85.448 136.671H85.2076L85.0874 136.431L84.847 136.19L84.9672 135.589L84.7268 135.349L84.4864 135.108L83.8854 134.748L83.645 134.628L83.4046 134.267L83.1642 133.666L83.044 133.425L82.5632 133.065L82.3228 132.824L82.2026 132.464L82.3228 132.223L82.5632 132.343L83.044 132.704V132.464V132.103L82.443 130.66L82.0824 130.3L81.9622 130.059V129.218V128.977L80.5198 125.972V125.13L81.241 124.529L82.3228 124.77L83.5248 125.13L84.4864 125.01L84.7268 124.77V124.529V124.049V123.688L84.847 123.568L85.3278 123.087L85.6884 122.846L85.8086 122.726L85.6884 122.366L84.9672 121.885L84.847 121.524L84.4864 120.562H84.246L83.645 120.442L83.1642 120.202L82.9238 119.601L82.6834 118.398V117.797L82.9238 116.114L82.6834 115.513L82.2026 115.273H81.7218L80.8804 115.393L80.64 115.513L80.5198 115.633V115.994L80.7602 116.595L80.64 116.836L80.1592 117.076H79.5582L78.9572 116.715L78.5966 116.355L78.4764 116.114L77.9956 115.273L77.8754 115.032L77.2744 114.551V114.191L77.635 114.071L77.9956 113.83L77.8754 113.349L77.7552 113.229L77.034 112.868L76.9138 112.748L76.6734 112.628L76.433 111.907L76.1926 111.546L76.0724 111.306L75.9522 110.945L75.4714 110.705L74.9906 110.224L74.7502 110.104L74.3896 109.983L74.2694 109.863L73.9088 109.382L71.024 107.819L70.423 107.579V107.098L69.9422 106.737L68.7402 106.497H68.4998H67.5382H67.2978L66.4564 106.016L66.3362 106.497L65.8554 106.737H65.4948L65.1342 106.497L64.8938 106.617H64.7736L64.2928 106.497L64.413 106.978L64.1726 107.098H63.4514V106.858L62.9706 106.016L62.4898 106.257L61.408 105.896L61.0474 106.377H60.9272V105.896L61.0474 105.776L61.6484 105.415L62.009 105.054L62.1292 104.333H61.6484L61.2878 104.213V103.973H61.6484L62.1292 103.732L62.4898 103.371L62.61 103.011L62.3696 102.77L61.8888 102.65L60.5666 102.77L60.4464 102.65L60.807 102.289L61.7686 101.929H62.2494H62.61L62.9706 101.809L63.211 101.448L63.4514 101.809H63.5716L63.6918 101.688L63.5716 101.328L63.812 101.208L64.8938 101.328L65.615 101.208L66.216 100.967L65.7352 100.727L64.413 100.847V100.486L64.6534 100.246L65.7352 99.8852H66.216L66.817 99.765H69.5816H69.9422L71.024 100.246L71.5048 100.366L72.3462 100.246H72.7068L72.5866 100.606L72.7068 100.847L72.827 101.208L72.4664 101.448L72.9472 101.568L73.5482 101.208L73.9088 101.087V100.967L73.7886 100.486L74.1492 100.366L74.7502 100.246L74.9906 100.366L75.231 100.606L75.7118 100.727H76.3128L76.7936 100.847L77.7552 101.448L79.1976 103.011L80.1592 103.371L80.5198 103.251H80.7602L81.241 102.891L81.4814 102.53L81.7218 102.41L83.2844 101.328L83.7652 100.847L85.0874 98.9235L85.6884 98.4426L86.2894 97.2404L87.852 95.4372L88.0924 94.9563L88.453 94.5957L90.4964 93.634L91.2176 93.3935H91.5782L92.059 93.0329L92.5398 93.1531L92.7802 93.2733L93.1408 93.1531L93.862 92.9127H94.3428L95.7852 93.634L95.9054 93.9946V94.8361L96.1458 95.1968L96.3862 94.9563H96.867L97.2276 95.1968L97.5882 95.4372L97.8286 95.7979V96.1585L97.7084 96.8798V99.0437L97.5882 99.765L98.069 99.6447L98.1892 99.2841L98.069 98.0819L98.1892 97.4809L98.3094 96.8798L99.0306 95.1968L99.271 94.9563L99.5114 95.0765V95.317V96.2787L99.6316 97.6011V98.2022L99.3912 98.8032L99.7518 98.683L99.9922 98.0819V97L99.872 96.2787V95.9181L99.9922 95.6776L100.233 95.5574L100.473 95.6776L100.593 96.0383L100.834 96.3989L100.954 97L101.194 97.4809L101.675 97.3607V96.8798L101.795 96.7596L101.915 96.6394H102.396L102.877 96.5191L103.117 96.2787L103.478 95.9181L103.598 96.1585H103.839H104.199L104.319 96.2787L105.041 96.7596L105.161 97L105.281 97.3607V99.0437L105.041 99.5245L105.401 100.847L105.642 100.486V100.126V99.765V99.1639V98.683L106.002 97.6011L106.122 97.1202V95.6776L106.243 95.4372L106.723 95.5574L107.084 95.9181L107.565 96.8798L108.046 97.6011L108.406 98.8032L108.767 99.1639L108.887 99.0437L109.007 98.5628V97.9617L109.248 96.3989L109.007 96.0383L108.647 95.5574L108.526 95.317L108.647 95.0765L108.767 94.8361L109.007 94.4755L108.526 94.3553H107.565L107.204 94.1148L106.964 93.634L107.084 93.5138L107.565 93.3935H108.046L109.127 93.1531H109.728L110.089 93.3935L110.209 93.634L110.93 94.235L111.171 94.4755H111.291L111.051 93.9946L110.45 93.3935L110.209 92.7925L110.69 92.552L112.493 92.6722H113.334L113.815 92.1914H112.373H111.652L111.051 91.951L110.93 91.5903L112.253 90.9892L112.733 90.5084L112.132 90.6286L110.93 90.869L110.209 90.9892V90.7488L111.411 90.3881L112.012 90.1477L112.373 89.6668L112.613 89.186V88.4647V87.8636L112.373 87.3828L112.132 88.7051L111.892 89.186L111.291 88.8253H111.171L110.57 89.3062L110.45 89.4264L109.849 89.6668L109.488 89.9073L109.127 89.7871L108.647 89.0658L108.406 88.9456L108.286 88.8253L108.406 88.5849L108.767 88.2243L109.728 87.9838L110.089 87.7434L110.45 87.3828L110.57 87.0221L111.171 87.2625L111.531 87.0221L111.892 86.6615L112.373 86.421L112.253 86.3008L111.892 86.421L111.411 86.6615H111.051L110.93 86.3008L111.051 86.1806L111.652 86.0604L111.892 85.9402V85.6997L112.012 85.3391L112.132 85.0987V84.8582L111.652 84.738L111.051 84.8582L110.69 84.9784L109.969 84.8582L109.849 84.9784L109.488 85.5795L109.368 85.6997L109.127 85.8199H108.647L108.406 85.9402L107.805 86.3008L107.565 86.421L106.603 86.5413L106.122 86.6615L106.002 87.1423L105.762 87.2625L105.281 87.3828L104.92 87.6232L104.56 88.1041L104.44 88.2243L104.199 88.1041L104.079 87.9838L103.839 87.8636L103.598 87.9838L103.117 88.2243V87.1423V86.7817L102.637 87.7434L102.276 88.2243L101.915 88.4647L101.555 88.2243L101.194 87.503L100.713 87.3828V87.503L101.074 87.9838L100.593 88.1041H99.9922L99.271 88.2243L98.1892 87.8636L97.7084 87.7434L96.5064 87.8636H95.9054L95.5448 87.6232L95.3044 87.3828H94.7034L93.6216 87.7434L92.66 87.6232L92.059 87.7434L91.0974 88.2243L90.4964 88.3445L89.2944 88.4647L88.0924 88.7051L87.1308 89.186L86.1692 89.4264L85.0874 89.3062L83.4046 88.5849L82.8036 88.4647L82.2026 88.5849L81.6016 88.8253L79.6784 90.0275H79.438L79.3178 89.9073L78.9572 89.5466H78.7168L78.1158 89.3062L77.8754 88.7051L77.7552 88.1041L77.5148 87.503L77.2744 87.2625L76.6734 87.0221L76.0724 86.9019L75.5916 87.1423L75.1108 87.3828L73.428 87.7434L71.5048 88.7051L70.5432 89.0658L69.4614 88.9456L68.8604 88.5849L68.3796 87.9838L68.019 87.3828L67.6584 86.7817L67.0574 86.421L63.4514 84.738L62.7302 84.2571L62.61 83.5359L62.8504 83.4156L63.5716 83.055L63.6918 82.8146L63.812 82.4539L64.1726 82.2135L64.7736 81.9731L64.0524 82.0933L62.8504 82.4539L62.2494 82.5741L61.6484 81.6124L61.0474 81.372L60.807 81.1315L60.6868 80.7709L60.807 80.29L60.9272 80.0496L60.807 79.689L60.206 79.5687L59.9656 79.3283L59.8454 78.9677L59.9656 78.1262V77.7655L59.8454 77.5251L59.605 76.924L60.206 76.6836L60.5666 76.2027L60.807 75.7218L61.2878 75.3612L61.6484 75.0005L62.009 74.7601L62.1292 74.3995L62.009 73.7984L62.1292 73.558L61.5282 73.6782L60.6868 74.159L59.605 74.3995H59.3646L59.1242 74.2793L58.8838 73.9186V73.7984L59.1242 73.4377L58.8838 73.3175L58.6434 73.0771L58.5232 72.9569L58.7636 71.8749V71.6345L59.1242 71.2739L59.2444 71.1536L59.4848 71.0334L60.206 70.9132L60.3262 70.793L60.9272 70.1919L61.0474 69.9515H60.5666L59.004 70.6728L58.403 70.9132L58.6434 70.4323L58.403 70.3121H58.1626L57.802 70.5526L56.8404 71.5143L56.3596 71.7547L56.2394 71.0334L56.4798 70.3121L56.6 69.4706L55.999 68.8696V69.5908L55.8788 70.1919L55.5182 70.6728L55.0374 70.9132H54.3162L53.8354 70.4323V69.8313L54.3162 69.4706L53.7152 69.2302L53.2344 69.3504L52.7536 69.5908H52.2728L51.792 69.4706L51.4314 69.2302L50.7102 68.6291L50.3496 68.5089L49.8688 68.3887H49.0274L48.4264 68.1483H48.186L47.8254 68.2685L47.585 68.3887V68.6291V68.8696L47.3446 68.9898L47.1042 69.11L46.5032 68.8696L46.0224 68.1483L45.782 67.9078L45.5416 67.7876V67.6674L45.782 67.427L45.9022 67.0663L45.6618 66.7057L45.4214 66.4652L45.181 66.2248L44.3396 66.4652L43.8588 66.345L42.6568 65.7439L42.5366 66.1046L43.0174 66.5854L44.0992 67.427L44.2194 67.7876L43.8588 68.1483L43.378 68.5089L43.0174 68.7493L42.176 68.8696L41.3346 69.3504L40.7336 69.5908L40.6134 69.4706L40.4932 68.8696L40.2528 68.6291L39.772 68.1483L38.6902 67.7876L37.6084 67.6674L35.4448 67.7876H34.8438L34.363 67.5472L34.1226 67.1865L34.0024 66.7057L34.1226 66.4652L35.0842 66.1046L35.4448 65.8642L35.565 65.6237L36.166 63.7003V63.3396V63.0992L36.4064 62.979L36.5266 62.8588L36.8872 62.3779L37.368 62.1375L39.4114 61.7768L40.1326 61.5364L40.373 61.296L40.7336 60.214L41.4548 59.2523L41.575 59.0119L41.6952 58.6512L42.0558 58.0501L42.176 57.5693L42.0558 56.6075V56.2469L42.4164 56.0065L42.2962 55.6458L42.5366 54.5639L42.2962 54.083L42.4164 53.9628L43.0174 53.7224L41.9356 52.6404L41.575 51.9191L41.6952 51.1978L44.0992 50.4766L45.181 50.3563L45.5416 50.2361L45.782 49.7553L46.5032 49.6351L46.8638 49.5148L47.1042 49.3946L48.186 49.2744L48.5466 48.9138H48.9072H49.388L49.6284 49.034L49.0274 49.7553L48.9072 49.9957V50.3563L49.2678 50.2361L49.8688 50.1159L50.3496 49.8755L50.4698 49.6351L50.8304 49.5148L55.7586 48.5531L57.9222 47.8318H58.2828L58.5232 47.5914L59.1242 46.3892L60.206 45.1871L60.9272 44.586L61.6484 44.2253L62.9706 43.7445H63.3312L63.4514 43.5041L63.9322 42.4221L64.0524 42.0615L65.4948 41.22L65.8554 41.0997L66.6968 40.6189L67.6584 40.2582L68.4998 39.8976L68.9806 39.7774L69.7018 39.6572L71.8654 39.0561L72.9472 38.8156L79.1976 39.4167L80.039 39.1763L85.0874 41.5806L85.6884 41.7008H85.9288L86.5298 41.3402L86.8904 41.4604L87.0106 41.5806V41.821L87.1308 42.0615L87.6116 42.3019L88.453 42.7827L88.8136 43.0232L89.054 43.1434H89.4146H89.8954L90.1358 43.2636L90.3762 43.6243L90.4964 43.7445H90.857L91.3378 43.6243L91.5782 43.7445L95.1842 46.269L95.7852 46.8701L96.1458 47.4712L96.3862 47.8318L97.468 48.5531L97.8286 48.6733L102.156 49.2744L102.516 49.3946H102.757L102.877 49.034L103.238 48.7935H103.358L103.718 48.9138L104.079 49.1542L104.68 49.2744L107.084 49.3946L107.445 49.2744L107.204 48.9138L107.445 48.6733L107.805 48.5531H108.166L108.647 48.6733L108.767 48.7935L109.248 49.2744L109.488 49.1542H109.849L111.291 48.9138H112.373H112.733L113.094 48.6733L113.575 48.9138L115.137 50.5968L115.378 50.717L115.979 50.8372L116.339 51.0776L116.58 51.1978L116.94 51.6787L117.181 51.9191L118.022 52.1596L118.142 52.4V52.6404L117.662 52.8809L115.979 53.0011L115.618 53.1213L115.498 53.4819L115.378 54.2032L115.258 54.5639L114.897 54.6841L114.657 54.8043L115.738 57.0884L116.099 57.5693L116.219 57.8097V58.4108L116.46 58.6512L116.58 58.8917L117.061 59.7332L117.421 60.214L117.902 60.6949L118.383 61.0555L118.743 61.1757L118.984 61.4162L120.667 64.5418L121.027 65.0226L119.945 66.8259L119.705 67.3067V68.3887L119.465 70.0717L119.344 70.5526L119.104 70.9132L117.782 72.3558L117.301 72.5962L116.94 72.9569L116.46 73.0771L116.219 73.1973L116.099 73.4377L115.979 73.7984V74.159L116.339 75.241L117.421 80.4102L117.541 82.4539V82.6944L117.782 83.055L117.662 83.2954L117.301 83.1752L117.181 83.2954L116.82 84.9784V85.5795L116.94 85.8199L117.421 86.0604L117.541 86.3008L117.662 86.6615L117.541 87.503L117.662 87.9838L118.022 88.8253L118.142 89.3062L117.902 89.9073V90.1477L118.022 90.3881L118.383 90.7488L118.503 90.9892V91.4701L118.743 91.951L118.984 92.3116L119.344 92.6722L120.426 93.5138L120.787 94.235L121.147 94.5957L121.508 94.8361L121.869 95.0765L121.989 95.1968L122.349 95.6776L122.47 96.1585L122.71 97.1202L123.191 98.2022L123.071 98.683L123.672 99.1639L123.912 99.8852L124.152 101.448L124.393 101.809L124.633 102.049L124.994 102.41L125.234 103.131L125.835 104.333V104.574H126.436L126.917 104.333L127.638 103.852L127.398 103.492L127.278 102.41L127.157 102.169L126.797 101.688L126.677 101.328V100.967L126.797 100.246L126.677 99.8852L126.556 99.5245L126.316 98.9235L126.196 98.683L126.076 97.8415V97.2404L126.196 96.6394L126.316 96.1585L126.677 95.5574L127.037 95.317L128.119 94.8361L127.879 94.7159L127.638 94.5957V94.3553L127.999 94.1148L128.239 94.235L128.72 94.5957L128.96 94.7159L129.441 94.8361L129.922 95.0765L130.403 95.4372L130.643 95.7979L130.884 96.7596L131.124 103.612V103.973ZM13.2078 32.0836L12.6068 32.324L11.7654 31.9633L11.0442 31.8431L11.4048 31.4825L12.2462 30.7612H12.6068L13.0876 31.0016L13.328 31.4825L13.2078 32.0836ZM30.8772 29.9197L34.363 31.0016L34.7236 31.2421H34.8438L35.2044 31.0016L35.9256 30.7612H36.5266L36.8872 30.8814V31.1218L36.5266 31.4825H37.0074L37.6084 31.7229H38.3296L38.6902 31.8431L39.4114 32.0836L39.6518 32.2038L40.1326 32.6846L40.373 32.8049L40.4932 32.9251L40.6134 33.1655L40.974 33.4059L41.3346 33.2857L41.575 33.4059L42.0558 33.5261H42.2962L42.5366 33.7666L43.1376 34.007L43.378 34.2474L43.7386 35.089L43.378 35.4496L43.2578 35.69L43.1376 36.0507L43.378 36.4113L44.2194 37.0124L44.4598 37.373L44.2194 37.4933L43.6184 37.6135L43.4982 37.8539L43.378 38.2146L42.8972 38.5752L42.777 39.0561L42.2962 38.8156V39.4167L42.0558 39.8976L41.575 40.0178L41.0942 39.6572L40.1326 38.8156L39.5316 38.455L39.2912 38.5752L39.171 38.455H38.3296L38.0892 38.3348L37.969 38.2146L37.6084 38.3348L37.2478 38.455L36.0458 39.4167L35.9256 39.0561L35.8054 38.9359L35.3246 39.0561L35.2044 39.1763H34.8438H34.6034L34.363 38.9359L34.1226 38.8156L33.6418 38.0943L32.9206 37.6135L32.8004 37.373L32.9206 37.2528L32.56 36.6518L32.1994 36.4113L31.8388 36.2911H31.1176L30.6368 36.1709H30.3964L30.156 36.0507L30.0358 35.8103L30.156 35.2092L30.0358 34.7283L29.7954 34.4879L28.353 33.1655L28.1126 32.8049L27.9924 32.2038L27.6318 32.324L27.2712 32.2038L27.5116 31.8431H27.0308H26.3096L25.5884 31.9633L25.348 32.2038L25.949 32.324L26.1894 32.5644L26.4298 32.8049H25.949L25.5884 33.0453L25.7086 33.5261L26.6702 33.8868L27.151 34.2474L27.9924 35.4496L28.5934 36.5315L28.7136 37.0124L28.954 37.2528L30.0358 37.8539L30.5166 38.0943L30.6368 37.7337L30.757 37.4933L30.8772 37.373L32.0792 37.4933H32.4398L32.6802 37.7337V37.9741L32.9206 38.0943L33.2812 38.3348L33.5216 38.5752L33.8822 39.0561L34.0024 39.4167L33.8822 39.5369L33.6418 39.6572L33.4014 39.8976L33.2812 40.3784L32.9206 40.6189L31.8388 40.9795L29.6752 41.4604H29.0742L28.4732 41.3402L27.9924 40.9795L27.752 40.4987L27.0308 38.6954L27.3914 38.455L27.5116 38.0943L27.3914 37.7337L27.2712 37.373L25.2278 37.9741L24.3864 38.5752L24.0258 39.5369H24.2662L24.5066 39.4167L24.3864 39.7774L23.9056 40.9795L23.7854 41.0997L23.545 41.22V41.0997V40.7391L23.9056 39.8976L23.4248 39.7774V39.4167L23.545 38.9359V38.3348L23.3046 38.0943L22.944 37.7337L22.8238 37.373V37.1326L23.0642 36.772L22.944 36.5315L22.5834 36.2911L21.9824 36.4113L21.141 36.8922L20.9006 37.2528L20.6602 37.1326L20.54 36.8922H20.4198H19.939L19.5784 36.6518L19.2178 37.0124H19.0976L18.8572 36.6518H18.136L17.535 36.5315H17.4148L17.2946 36.4113L17.1744 35.9305L16.934 35.8103L16.2128 35.69L15.3714 35.3294L15.0108 35.089L15.6118 34.9687H15.8522L16.333 35.2092H16.5734H17.2946L18.136 35.089H18.6168L18.9774 35.2092L19.338 35.4496H19.6986L20.0592 35.2092L20.4198 34.9687L20.54 34.6081H20.1794H19.6986L19.338 34.3677L19.8188 34.2474L20.0592 33.8868V33.5261L19.939 33.1655L19.6986 33.6464L19.338 33.8868H19.0976L18.9774 33.2857H18.8572L18.737 33.5261L18.6168 33.6464H18.3764L18.136 33.5261L18.2562 33.8868L18.3764 34.2474L18.4966 34.4879L18.2562 34.7283H18.0158L17.535 34.6081L17.1744 34.3677L17.0542 34.1272L16.934 33.7666L16.5734 33.2857V32.8049V32.5644L16.934 32.4442H17.2946L17.535 32.5644L17.8956 32.324L18.136 31.8431L18.2562 32.2038V32.6846L18.3764 32.9251L18.6168 33.1655L18.9774 32.9251V32.6846L18.8572 32.2038L18.6168 31.8431L19.2178 31.7229L19.5784 31.9633L19.939 32.324L20.4198 32.5644L20.2996 32.0836L20.4198 31.8431L20.6602 32.2038L21.742 31.7229L22.343 31.4825L22.5834 31.0016L22.8238 31.1218L23.0642 31.2421L23.545 31.7229L23.6652 31.3623L23.9056 31.7229V31.4825L24.2662 31.0016L24.6268 31.3623L24.8672 31.0016L25.5884 31.1218L26.0692 31.0016H26.55L27.3914 30.7612L27.9924 30.641L28.1126 31.1218L28.4732 31.0016L29.3146 31.1218L29.7954 31.0016L29.555 30.7612L29.3146 30.641H29.0742H28.8338L29.1944 30.2803L29.6752 30.0399L30.156 29.9197H30.8772ZM122.59 10.565L122.109 10.6852H121.628L121.508 10.4448L121.748 10.0841L122.229 9.84367H122.59L122.71 10.2043L122.59 10.565ZM42.2962 2.27008L42.0558 2.51052V2.27008V1.90944L42.2962 1.66901L42.5366 1.78923L42.4164 2.14987L42.2962 2.27008Z" fill="#7C7C7C" stroke="white" stroke-width="2" stroke-linecap="round" stroke-linejoin="round"/>
<path d="M241.708 248.712L241.828 249.313V249.794L241.468 250.034L236.299 249.794L235.217 249.313L234.496 249.193H233.294L232.693 249.073L232.332 248.592L232.453 247.871L232.813 247.51L234.736 246.188L235.217 245.707L235.458 245.346V244.745L235.698 244.384L236.059 244.144L237.14 244.024L238.583 243.543L239.424 243.663L239.785 244.264L239.905 245.106V246.067L240.025 246.668L240.506 247.27L241.468 248.231L241.708 248.712ZM241.347 240.417L241.708 241.379H240.506L239.905 241.499L239.424 241.86L238.703 242.822L238.222 243.182L237.621 243.423H236.419L235.818 243.543L235.337 243.783L234.977 244.384L234.256 245.587L233.775 246.067L232.092 247.39L231.611 247.51L231.371 247.75L230.409 248.832L229.688 249.433L228.847 249.794L227.885 250.155L226.803 250.395H225.721L223.918 249.674L222.716 249.554L218.99 249.433L214.182 249.313L212.86 249.433L211.778 249.794L209.615 250.636H208.653V249.674L210.937 243.182L211.538 242.1L211.658 241.619L211.778 241.259L212.62 240.778L212.86 240.537L213.1 238.975L213.461 238.494L215.384 234.527L215.985 233.685L217.187 232.483L217.428 232.122V231.521L217.668 230.92L218.269 229.838L218.87 229.117L220.433 227.795L224.519 225.03L228.366 223.707L231.852 223.226L232.573 222.986L234.256 222.625L236.78 222.505L239.064 222.866L240.025 224.188L240.266 224.549L241.468 226.352L241.828 226.713L242.189 227.073L242.549 227.314L243.511 227.554L245.434 227.795L246.155 228.155L245.675 228.756L245.314 229.117L245.074 229.598L244.713 230.68L243.992 232.002L243.872 232.483L243.751 234.887L243.631 235.128L243.271 235.488L241.828 236.21L241.347 236.691L241.107 237.652L241.227 239.576L241.347 240.417ZM237.621 209.402L237.14 209.522H236.78L236.539 209.281H236.179L235.938 209.041L235.698 208.079L235.337 207.839L235.097 207.719L234.736 207.478L234.376 206.877L234.135 206.396L234.256 205.915L234.496 205.675L234.857 205.915L235.458 206.516L235.818 206.637L236.179 206.757H237.14L237.621 206.997L237.741 207.238L237.862 207.598L238.583 208.199V208.56L238.463 208.801L238.102 209.041L237.621 209.402ZM152.279 71.2739L155.044 71.9951L160.333 72.3558L162.136 72.7164L163.217 72.8367L164.78 72.3558L166.703 72.9569L167.424 72.7164L168.506 72.9569H170.91L171.992 73.1973L172.112 73.3175L172.353 73.6782L172.473 73.7984H172.713L173.434 73.6782L173.675 73.7984L174.035 74.159L174.516 74.3995L175.478 74.8803H176.079L177.762 74.6399L182.089 75.241L184.252 75.0005L184.733 75.1208L185.695 75.4814L186.176 75.6016H187.137L187.618 75.7218L187.979 75.9623L189.301 76.6836L189.421 76.8038L189.06 76.924L188.94 77.2846H188.7L186.656 77.4049L185.695 77.5251H184.974L184.853 77.6453L184.733 77.8857L184.493 78.0059L184.252 78.1262L183.772 78.2464L183.291 78.607L183.05 78.7272L182.69 78.8474L180.286 78.607H179.805V78.7272L180.045 78.8474L180.166 79.0879V79.3283L179.925 79.4485H179.565L179.084 79.2081L178.843 79.0879H178.603L178.002 79.2081L177.762 79.3283L177.521 79.2081L176.68 78.9677L176.199 78.8474L175.237 78.4868L174.757 78.3666L174.516 78.4868L174.276 78.7272H174.156L173.675 78.8474L173.434 78.9677L173.314 79.0879L173.194 79.3283L173.074 79.689H172.833L172.713 79.3283L172.473 79.2081L172.232 79.3283L171.992 79.4485L171.511 78.7272L170.67 78.2464L168.747 77.8857H168.506H167.905H167.665L167.424 77.7655L167.064 77.4049L166.823 77.2846H166.222L165.862 77.1644L165.501 77.0442L164.78 76.5633L163.578 76.0825L163.338 75.9623L163.097 75.7218L162.616 75.6016H161.535L161.054 75.3612L160.212 74.8803L159.371 74.7601H159.131L158.77 74.3995L158.53 74.2793H158.169L157.808 74.5197L157.568 74.2793L157.207 74.0388L156.967 73.9186L156.606 74.0388L156.246 74.159L155.885 74.2793L155.525 74.159L154.924 73.7984H154.323H153.481H152.76L152.399 73.558L152.279 73.3175V73.0771L152.039 72.7164L151.919 72.5962L151.558 72.7164H151.318V72.2356L151.197 72.1154L150.837 71.8749L151.077 71.6345L151.558 71.5143H151.678L151.919 71.2739H152.279ZM237.621 72.2356H237.261L236.66 71.9951L236.539 71.5143L236.9 71.0334L237.621 71.7547V72.2356ZM143.144 68.3887L143.745 68.5089L145.187 68.3887L145.788 68.6291L146.029 68.7493L147.231 68.3887L147.591 68.5089L147.712 68.6291H148.072L148.553 68.5089L147.952 69.2302L146.99 69.5908H144.707L142.543 69.4706L142.303 69.2302V68.6291L142.663 68.2685L143.144 68.3887ZM136.533 140.999L146.75 128.016L120.426 118.639L119.825 118.158L119.945 117.437L120.306 116.235L121.027 114.912L121.628 113.95L122.349 113.109L124.753 111.185L125.475 110.224V109.863L125.354 108.781V108.541L125.595 108.3L125.955 108.06L126.316 107.819L131.124 103.973L131.965 107.098L132.687 107.819L133.889 107.579L135.331 105.896L135.932 105.535L136.172 106.617L135.932 108.3L135.812 108.661L135.331 109.022L135.211 109.262V109.502V110.344L134.97 111.306L135.091 111.787L135.932 112.027L136.172 112.388L136.293 113.47L136.533 113.83V114.191L136.653 114.551L137.134 115.032L137.615 115.153L137.975 115.032L138.817 114.431V114.672L138.697 115.273V115.513L138.817 115.633L139.177 115.994L139.418 116.836L139.899 116.956H140.98L141.581 117.076L142.303 117.557L142.663 117.677L146.99 117.797L147.471 117.918L148.192 118.278L148.673 118.398L149.274 118.278L150.356 117.918L152.039 117.677L152.52 117.557L153 117.316L153.361 116.956L154.563 115.754L154.683 115.513L154.803 115.273V114.912L154.683 114.672L154.803 114.431L155.525 113.47L156.486 112.868L158.53 112.027L159.371 111.546L159.852 111.065L159.732 110.825L159.371 110.584L159.251 110.224V109.983L159.611 109.623L159.852 109.382H160.092L160.693 109.623L161.054 109.262L161.775 108.541L162.977 108.18L163.578 107.819L163.939 107.339L164.299 106.737L164.179 106.257L163.939 105.295V105.054L164.66 104.333L164.9 103.973L165.02 103.492V102.289L165.141 102.169L165.742 101.688L165.862 101.448L166.222 101.568L166.463 100.486L166.823 100.246L167.304 100.126L167.545 100.005L167.785 99.6447L168.146 99.5245L168.747 99.4043L171.03 98.3224L172.112 97.6011L172.833 96.6394L173.074 96.1585L173.314 95.6776L173.434 93.7542L173.555 93.3935L173.795 93.0329L174.636 92.0712L174.877 91.7105L174.997 91.2296V90.869L174.877 90.3881L174.757 89.5466L174.997 89.186L175.358 88.5849L175.838 88.1041L176.439 87.7434L177.161 87.503H178.483H178.723L179.565 87.0221H179.805L179.925 87.2625L179.805 87.6232V87.9838L180.045 88.1041H180.767L181.368 88.2243L181.608 88.5849H181.848L182.449 88.4647H182.81L183.772 88.8253L184.252 88.2243L184.613 88.3445L185.094 88.5849H185.454H185.695L186.055 88.2243L186.176 88.1041L186.897 87.9838L187.137 87.8636L188.58 86.9019L190.142 86.6615L190.383 86.5412L190.503 86.3008L190.623 86.0604L190.743 85.6997L191.464 85.3391L192.666 85.0987L196.032 84.9784L196.633 84.8582L197.114 84.6178L197.955 84.0167L198.075 83.6561L197.835 83.055L197.234 82.5741L196.994 82.2135L197.114 81.973L197.354 81.8528L197.474 81.4922V81.1315L197.354 80.7709L196.994 80.5305L196.393 80.29L196.032 80.1698L194.59 79.0879L194.95 78.7272V78.2464V77.0442L195.191 76.8038L195.671 76.4431L201.08 74.5197L204.085 72.7164L204.686 72.476L205.047 72.1154L205.287 71.6345H205.408L205.888 71.5143L212.74 68.5089L213.942 68.2685L215.024 68.1483L216.105 68.5089L216.346 68.7493L216.947 69.4706L217.187 69.5908L217.668 70.0717L217.788 70.1919H218.149L218.389 70.3121L219.591 71.5143L220.072 71.8749L221.154 71.9951L224.039 72.8367L227.404 74.5197L231.852 75.7218L233.655 76.0825L234.256 76.2027L235.458 76.5633L237.261 78.0059L239.064 79.9294L240.025 80.7709L240.626 80.8911H242.309L242.91 81.0113L246.997 82.3337L251.564 85.2189L254.209 86.0604L255.651 86.9019L256.012 87.0221L256.372 87.1423L257.574 88.1041L261.902 89.6668L264.546 91.3499L265.628 91.5903L266.71 91.7105L271.878 91.3499L272.479 90.9892L272.84 90.5084L272.96 90.3881L273.441 90.6286L274.042 90.9892L274.282 90.869V90.5084L274.402 90.3881L274.643 90.5084V90.869L274.763 91.1094L275.725 92.552L276.205 92.6722L277.768 93.2733L278.369 93.7542L278.97 93.9946L279.451 93.634L279.691 93.7542H279.932L280.172 93.5138L280.292 93.2733L280.172 93.0329L279.932 92.7925L279.811 92.6722L280.172 92.3116L280.412 92.4318L282.937 93.2733L283.297 93.3935L286.182 93.5138L289.307 94.8361L289.668 95.0765L289.788 95.5574L289.668 96.3989L289.548 96.7596L288.466 97.9617L288.706 98.2022L288.947 98.4426L289.187 98.5628L289.427 98.683L289.548 98.4426L289.668 97.8415L289.908 97.7213L290.509 98.2022L290.75 98.3224L290.99 98.2022L291.591 97.9617H291.952H294.356L295.437 97.7213H295.678V98.5628V108.18V114.672V123.447V129.098V138.835L295.798 154.583V160.474V195.577H295.678L295.437 195.937L295.317 196.418L295.197 196.539V196.779L295.437 196.899L295.558 197.14L295.437 197.38L295.077 197.741L295.197 198.101H294.596H294.356V198.342L294.596 198.462V198.702V198.943H295.077L295.197 199.424L295.077 199.905L294.957 200.145H294.476L294.356 200.385L294.235 200.626V201.347L293.995 201.467L293.634 201.588L293.875 202.068V202.189L293.514 202.549L293.033 202.67L292.673 202.79L292.432 203.15L292.913 203.271V203.872L292.673 204.713L292.432 205.194V205.555L292.673 205.795L293.274 206.276L293.394 206.516L293.274 206.757L293.033 207.238L293.154 207.478L293.274 207.719L293.755 208.079L293.995 208.56V209.041L294.235 209.402L294.836 209.281L294.957 210.123L295.437 210.363H295.798V213.128V220.461V239.456V243.904V250.876V255.564V260.493V268.548L294.596 267.947L294.356 267.826L292.673 267.105L286.543 260.734L283.538 256.165L282.095 254.843L281.975 254.603L280.172 253.16L279.932 252.799L279.811 252.319H279.571L278.129 251.718L277.287 250.756L276.806 250.155L271.157 245.827L269.955 244.505L269.594 243.783L269.474 243.182L269.715 242.581L270.195 242.1L270.796 241.74L271.157 241.619H271.518L271.758 241.499L271.878 241.139L271.998 240.177L271.758 239.335L271.638 238.614L271.878 238.013L272.479 237.652L273.2 238.013L273.681 237.652L274.282 236.33L273.801 236.57L273.441 237.171L272.96 237.292H272.239L271.878 237.412L271.638 237.652L271.518 238.854L271.397 240.537L271.157 240.898L270.676 241.379L269.594 241.98L268.513 242.22L264.306 242.341L260.7 242.701L259.858 242.942L258.416 243.783L257.574 244.144L255.531 244.625H254.449H253.488L252.526 244.384L251.564 243.904L250.843 243.182L250.483 242.341V242.1L250.603 241.499L250.723 241.139L250.603 240.658V239.816L250.483 239.456L249.882 238.854L250.362 238.734L250.723 238.854L251.204 238.975L251.685 238.734L250.483 238.253L249.882 238.133L249.521 238.374L249.641 238.734L249.761 239.576L250.122 239.696L250.242 239.816L250.122 240.177L250.002 241.379L249.401 241.86L247.357 242.461L246.516 242.942L243.511 245.466L243.271 245.827L243.15 246.428L242.91 246.789L242.67 247.029L242.549 247.149H242.069L241.948 247.029L240.987 245.106L240.386 244.264L240.025 243.663V243.062V242.461L240.506 242.1L241.588 241.86L242.189 241.499V241.259V241.018L242.069 240.778L241.708 240.537V240.177L241.828 239.576V237.292L241.948 236.811L242.309 236.57L243.271 236.33L243.992 235.849L244.232 235.008L244.352 232.964L245.074 231.161L245.314 230.8L245.434 230.68L245.675 229.718L245.795 229.478L246.035 229.237L246.276 228.997L246.516 228.756L246.636 227.795L246.035 227.073L245.074 226.592L244.232 226.472L243.03 226.352L242.79 226.112L242.429 224.909L242.189 224.308L241.227 222.505L240.626 221.904L240.025 221.303L238.102 219.981L237.741 219.86L237.381 219.5L237.14 219.38H236.539L236.179 219.139L235.698 218.899L235.458 218.538V218.298L236.059 218.057L241.708 218.298L242.79 218.418L243.15 218.658L243.992 219.259L244.232 219.38L248.319 219.5L248.8 219.259L249.04 218.658L249.401 218.057L249.761 217.456L250.483 217.216V216.975L250.002 216.855L249.521 216.975L248.92 217.696L248.559 218.177L248.319 218.418H248.079H246.877L245.795 218.658H245.194L244.713 218.177L243.271 217.336L242.79 217.216L242.189 217.095L240.506 216.975L240.025 216.855L239.304 216.494L237.982 216.013L237.741 215.893L237.621 215.653L234.977 213.008L233.054 211.565L232.693 210.844L233.294 210.123L233.655 209.882L234.015 209.762H235.217L235.698 209.882L236.78 210.363H237.381L237.862 210.123L238.583 209.402L238.943 209.281L241.107 209.041L242.069 208.921H242.429H242.67L243.15 209.161L243.391 209.281L243.872 209.522L244.593 210.604L245.194 210.844L246.035 211.565V211.686L246.396 211.806L246.877 211.926L247.237 212.167L247.478 212.287H247.838H248.92H249.16L248.92 211.926L248.319 211.806H247.718L247.357 211.686L247.237 211.445L246.035 210.844L244.232 209.161L243.271 208.68L242.189 208.44L240.386 208.32L239.905 208.199L239.544 207.959L238.102 206.637L237.501 206.156L236.419 205.915L235.938 205.555L235.698 205.074L235.578 204.353L235.938 203.751H236.419L237.501 204.232L237.982 204.353L239.785 205.314L236.539 203.271L235.818 202.549L234.616 201.107L234.256 200.866L233.895 200.626L230.289 197.38L229.087 195.096L228.847 194.375L228.366 193.413L228.246 192.932L228.366 191.61L228.246 191.249L227.765 190.047V189.566L227.645 189.205L227.164 188.604L227.044 188.244L226.923 187.883L225.241 185.358L224.88 184.517L225.12 183.796L226.082 183.315L227.885 182.954L228.606 182.473H228.125L227.044 182.834H226.443L223.558 182.233L222.837 181.752L222.716 181.632V181.391L222.476 181.151L222.236 180.79L224.64 179.348L226.082 178.747L227.524 178.386L227.044 178.146H226.443L225.361 178.386H224.64L224.159 178.506L223.678 178.626L222.596 179.348L222.115 179.468L220.793 179.588L220.312 179.949L220.192 179.829L219.952 179.588L219.832 179.348V178.867L219.591 177.785L219.471 176.583V175.982L219.591 175.621L219.832 175.381L220.192 175.02L220.433 174.9H220.673L220.913 174.78V174.539L220.793 174.419L220.312 174.178H220.072L219.711 173.938V173.337L220.072 172.135V171.534L219.952 171.293L219.711 171.173L219.591 171.534L219.471 171.894L219.11 172.015L218.75 171.774L218.99 172.495V172.976L218.75 173.217L218.029 173.097L217.788 172.856L217.067 171.774L215.865 170.692L215.745 170.091L216.105 169.129L215.625 169.009L214.302 169.971L213.461 170.091L213.1 169.73L212.379 168.889V168.769V168.288L212.86 167.567L213.1 167.206L212.139 167.687L211.658 167.807L211.057 167.687L210.696 167.206L210.456 166.364L209.975 166.124H209.735L209.494 166.244L209.254 166.364L208.893 166.124L208.052 165.884L207.571 165.643L207.09 165.282L206.97 164.922L207.571 164.681V164.441L207.09 164.321L206.97 163.72L206.61 163.599L206.489 163.72L206.129 164.321L205.888 164.441H205.528L205.287 164.201L204.807 163.72L204.566 163.599H204.326L204.206 163.359L204.085 162.998L203.244 163.239L202.523 163.119L201.802 162.638L201.321 162.157L201.441 161.916L201.561 161.796L201.681 161.436V161.195H201.441L201.08 161.556L200.72 161.315L199.999 160.474L200.119 161.075L199.878 161.195L199.157 161.075L199.037 160.835L198.917 160.474L199.398 158.911H199.277L198.075 159.753L197.835 160.113L198.075 160.474L197.715 160.835L196.393 160.354L195.912 159.873V159.031L194.95 159.993L194.349 159.512L194.229 159.031L194.469 158.43L194.59 157.589H194.469L193.868 158.55L193.027 159.031L192.186 159.151L190.743 158.55L190.623 158.43L190.503 158.19L190.743 157.829L190.984 157.709L191.344 157.468L191.464 157.348L191.224 157.108L190.623 157.228L188.7 158.43L188.219 158.671L187.618 158.791L187.378 158.671L187.137 158.43L186.897 158.19L186.777 157.949L186.897 157.468L186.777 157.348L186.416 157.228H185.815L185.575 157.348L185.334 157.468L184.012 156.507L182.209 155.906L179.925 154.583L178.002 153.622L177.401 153.02H177.161H176.68L176.439 152.9L175.718 152.299L175.117 152.059H172.833L170.55 151.337L169.708 150.736V150.616L169.107 150.496L168.626 150.376L168.386 150.135L168.025 149.895L167.545 149.775H167.184L166.823 149.654L166.343 149.294L165.141 147.971L164.54 147.611L163.578 147.37H161.414L160.453 147.01L160.092 147.25L159.371 147.37L158.65 147.25L158.049 147.13L156.967 147.01L155.765 146.769L155.525 146.649L155.164 146.409L151.919 146.048L151.318 145.928L150.957 145.567L150.596 145.808L149.154 145.928L148.433 145.808L146.87 146.288L145.788 146.409L144.586 146.048L138.697 142.682L138.336 142.321L138.096 141.961L137.855 141.6L137.374 141.239L136.653 140.999H136.533ZM137.855 57.8097L138.336 58.0501L138.817 57.8097L139.177 56.6075L139.778 56.3671L139.658 56.7278L139.538 57.2086V58.0501L138.697 59.2523L138.336 59.3725L137.855 59.4927H137.014L136.653 59.3725L136.172 59.1321L135.932 58.7714L135.451 57.8097L134.85 57.2086L134.61 56.6075L134.97 55.8863L135.091 55.766V55.2852L135.211 55.0448L135.451 54.8043L135.812 54.4437L136.172 54.3235L136.653 54.2032L137.855 54.5639L138.216 54.8043L138.336 55.0448V55.2852L138.576 55.6458L138.697 55.8863L138.576 56.6075L138.456 56.848L137.975 57.4491L137.855 57.8097ZM150.837 46.8701H150.957H151.318H151.558L152.039 47.1105L152.76 47.3509L154.202 47.4712H154.443L155.044 47.2307L155.284 47.4712L155.525 47.952L157.207 47.5914L157.448 47.7116L157.808 48.3127V48.5531L157.929 48.9138L158.169 48.7935L158.53 48.5531H158.77L159.611 49.1542L160.092 49.3946L160.333 49.1542L160.453 48.7935L160.934 48.4329L161.414 48.0722L161.895 47.952L162.496 48.1925L163.097 48.6733L165.02 50.5968L167.064 52.0394L167.665 52.5202L167.905 53.3617L168.266 53.8426L168.626 54.083L168.747 54.3235L168.867 54.9245L169.227 55.4054L169.708 55.6458L170.189 56.0065L170.429 56.7278L170.79 57.2086L171.03 57.6895L171.391 57.5693L171.752 57.3288L172.353 57.2086H173.074L173.675 57.3288L173.915 57.9299L174.156 58.1704L175.718 58.4108L175.959 58.7714L175.838 59.1321L175.478 59.4927L175.117 59.6129L174.757 59.7332L173.555 60.6949L171.872 60.9353L171.511 61.1757L171.151 61.296L170.67 61.5364L170.069 61.6566L169.588 61.7768L168.506 61.5364L166.823 60.5747L165.621 60.3342L165.02 60.4545L164.059 60.8151H163.458L162.857 60.6949L162.376 60.3342L161.895 59.7332L161.535 59.2523L161.414 58.7714L161.535 57.2086V56.9682L161.054 56.2469L160.934 56.0065L160.693 55.165L160.212 52.6404L159.732 51.6787L159.131 51.1978L158.53 51.3181L158.049 51.9191L157.688 52.4L157.087 53.0011L156.486 52.8809L152.399 49.6351L152.279 49.8755V50.1159L152.64 50.8372L151.798 50.4766L150.837 49.7553L150.116 48.6733L149.394 46.8701L149.515 46.3892L149.995 46.1488L150.236 46.269L150.596 46.7499L150.837 46.8701Z" fill="#7C7C7C" stroke="white" stroke-width="2" stroke-linecap="round" stroke-linejoin="round"/>
</svg>
