<svg width="371" height="312" viewBox="0 0 371 312" fill="none" xmlns="http://www.w3.org/2000/svg">
    <path d="M56.8546 101.101L56.9748 101.582V102.063L56.8546 102.183L56.2536 102.544V102.664V103.025L56.0132 103.145H55.7728L54.8112 101.342H55.0516L55.292 100.981L55.5324 100.861L55.6526 100.62H56.2536L56.6142 100.741L56.8546 101.101ZM43.7528 101.582L43.272 101.702L42.9114 101.462V100.741L43.0316 100.5L43.1518 100.26L43.3922 100.14L43.7528 100.26L44.1134 100.38L44.3538 100.62L44.474 100.861L44.3538 101.222L43.7528 101.582ZM58.0566 98.096H58.5374L58.7778 97.9757L59.1384 97.7353L59.499 97.4949H59.9798L60.4606 97.6151L60.5808 97.7353L60.4606 98.096L61.0616 98.697L61.4222 98.9375L61.5424 99.1779L61.6626 99.6588L61.7828 100.26L62.0232 100.861V101.342V102.063L61.7828 102.424L61.4222 102.784V102.304V102.063H61.0616L60.8212 101.702L60.5808 101.342L60.3404 100.861L59.1384 99.779L59.0182 99.4183L58.5374 98.9375L55.7728 97.9757L55.893 97.8555L56.3738 97.7353L57.4556 97.4949H57.696L57.8162 97.6151L58.0566 98.096ZM24.641 79.8232V80.7849L24.1602 80.304L23.9198 80.4243V81.5062L24.7612 81.0253L25.1218 81.5062L26.0834 81.9871L26.444 82.9488L27.045 83.3094L27.7662 83.4296L29.3288 83.7903L29.8096 84.0307L30.2904 84.3914L30.4106 84.8722L29.5692 85.9542L29.6894 86.435L30.05 86.1946H30.4106L30.5308 86.3148L31.0116 86.6755H31.252V86.435L31.1318 86.3148L30.7712 86.0744V85.834H31.1318L33.4156 87.8776L33.656 88.1181L34.4974 88.4787L34.858 88.5989L35.3388 88.7191L35.6994 89.0798L36.3004 89.9213L36.4206 90.2819L36.5408 90.7628L36.7812 91.2437H37.1418L37.262 91.1235L37.3822 90.6426L37.262 89.8011L37.7428 90.2819H37.863H37.9832L38.5842 90.7628L39.065 92.0852L39.4256 92.6862V93.1671L39.5458 93.648V94.0086L39.1852 94.1288L38.2236 94.4895L37.9832 94.6097H37.7428L36.661 94.0086L36.1802 94.2491H35.6994L35.3388 94.1288L34.9782 93.7682L35.5792 93.2873L34.9782 92.9267L34.3772 92.2054L33.1752 91.8447L28.7278 88.4787L28.1268 88.1181L27.5258 87.8776H27.2854H26.5642L26.444 87.7574L26.2036 87.517H26.0834L25.843 87.8776L25.3622 87.9978H25.1218L24.641 87.6372L24.1602 87.517L23.9198 87.3968L23.7996 87.1563V86.9159L23.6794 86.6755L23.439 86.435H21.5158L21.3956 86.3148V85.9542L21.636 85.3531L21.5158 85.1127L20.6744 84.6318L20.7946 84.2712L20.434 83.9105L20.0734 83.7903V83.5499L20.1936 83.1892H19.833H19.3522H19.1118L18.9916 82.8286V82.3477L19.1118 81.8668L19.4724 81.6264H20.9148L21.2754 81.5062V81.2658L21.1552 81.0253L20.9148 80.9051V80.6647L21.035 80.1838V79.9434L21.3956 79.3423L21.5158 78.9817L21.7562 79.1019L22.1168 79.4625L23.9198 79.5827L24.641 79.8232ZM86.1834 43.7585L84.14 43.5181L83.7794 43.6383L83.0582 43.7585L82.8178 43.8787L82.4572 44.2393L82.2168 44.4798L81.8562 44.6H81.135L80.8946 44.7202L80.7744 44.9606L81.135 45.4415V45.6819L81.0148 45.9224L80.7744 46.283L80.6542 46.5234L80.2936 47.7256L80.0532 48.5671L79.8128 49.6491V49.8895L79.6926 50.4906L79.4522 50.8512L79.332 51.3321L79.2118 51.8129L78.8512 52.1736L78.0098 52.7747L77.7694 53.1353L77.529 53.3757V53.6162L77.4088 53.8566H77.1684H76.8078L76.327 53.496L76.2068 54.2172V54.8183L76.327 55.2992L75.9664 55.9003L73.5624 57.9439L73.322 58.1844V58.4248L73.5624 58.7854L74.1634 59.8674L74.524 60.4685L74.8846 61.911L75.125 62.2717L75.3654 62.5121L75.726 62.7526L75.9664 62.993L76.0866 63.2334L76.2068 63.8345L76.4472 64.1951L76.8078 64.5558L76.928 64.7962L76.8078 65.0367L76.6876 65.5175V65.7579V66.1186L76.928 66.4792L77.0482 66.8399L77.2886 67.0803L78.3704 67.8016L78.4906 68.042L78.8512 68.7633L78.4906 69.6049L77.8896 69.9655L76.2068 70.3261L75.8462 70.5666L75.6058 70.6868L75.8462 71.0474L76.2068 71.4081L76.4472 71.6485L76.6876 72.1294V72.6102L76.8078 72.8507L77.529 73.8124L77.6492 74.0528V74.4135L77.529 75.1348L77.2886 75.3752H77.0482L76.5674 75.255H76.4472L76.327 75.6156L76.4472 75.9763L76.928 78.0199L76.8078 79.1019V79.4625L76.928 79.5827L77.1684 79.8232L77.529 79.9434L78.0098 80.0636L78.2502 80.1838L79.0916 81.2658L79.332 81.5062L79.6926 81.7466L80.1734 81.8668L80.4138 81.9871L80.6542 82.3477L80.7744 82.7084L80.4138 83.1892L80.2936 83.6701L80.4138 84.1509L80.6542 84.9924L81.0148 85.4733V85.5935V85.834L80.6542 86.1946L80.1734 86.5553V86.6755V87.1563L80.0532 87.3968L79.933 87.8776L79.8128 88.4787L80.0532 89.8011L80.6542 91.6043L80.7744 91.965L81.0148 92.0852H81.2552L81.4956 92.2054L81.736 92.4458L81.8562 93.0469L82.337 94.0086L82.4572 94.9704V95.4512L81.8562 98.697L81.4956 98.4566L78.731 97.1342L78.0098 96.4129L77.4088 96.5332L76.0866 97.014L75.726 97.1342L75.2452 97.014L74.7644 96.6534L74.4038 96.7736L74.1634 96.6534L74.0432 96.4129L73.8028 96.2927H73.5624L73.0816 96.4129H72.8412L72.4806 96.1725L71.519 94.4895L70.6776 93.7682L70.4372 93.2873L70.1968 92.8065L70.317 89.8011L69.8362 86.0744L68.9948 81.386L68.7544 80.9051L68.514 80.7849L68.1534 80.6647L67.0716 80.304L65.7494 79.703L65.1484 79.5827L64.5474 79.4625L64.0666 79.3423L63.5858 78.8615L61.7828 76.5774L61.302 75.8561L60.9414 75.0146L60.4606 72.7305L60.1 71.7687L59.3788 71.1677H58.4172L57.8162 71.0474L57.5758 70.807L57.4556 70.4464L53.6092 63.7143L53.0082 63.1132L50.9648 61.5504L50.6042 60.8291L50.2436 59.9876L50.0032 59.6269L49.5224 59.2663L48.9214 58.9057L48.8012 58.7854L48.08 58.545L47.2386 57.9439L46.7578 57.8237L41.5892 57.9439L40.5074 57.7035L39.4256 57.1024L38.2236 55.9003L34.257 50.6108L32.454 48.8075L32.2136 48.2065L32.0934 48.0863L31.9732 47.966L31.4924 47.8458L31.3722 47.6054H31.1318L30.7712 47.4852L30.5308 47.6054L30.2904 47.7256L29.9298 47.365L28.7278 45.9224L28.247 45.6819L27.7662 45.5617L27.2854 45.3213L24.4006 42.1957L22.1168 39.9116L21.8764 39.5509L20.6744 38.5892L19.833 37.3871L18.03 36.0647L16.9482 34.8625L16.4674 34.6221H15.8664H15.626L15.5058 34.3817L15.626 34.2615L15.8664 34.021V33.7806V33.6604L15.3856 33.5402L14.6644 33.0593L14.3038 32.5784L13.5826 31.2561L13.1018 30.5348L12.8614 30.4145L12.3806 30.0539L12.02 29.573L11.8998 29.0922L11.7796 28.7315L11.419 28.0102L11.2988 27.4092L10.9382 26.8081L10.818 26.0868L9.97663 24.0431L9.73623 23.6825L9.37563 23.2016L9.01503 22.841L8.89483 22.3601L8.65443 21.9995L8.17363 21.8792L8.65443 21.1579L8.77463 20.5569L8.41403 20.076L8.05343 19.5951L7.57263 19.2345L7.33223 18.9941V18.7536L7.21203 18.393L7.09183 18.0323L6.97163 17.6717L6.61103 17.5515L6.01003 17.4313L6.25043 17.0706L6.61103 16.4695L6.97163 15.9887V15.628L7.21203 15.1472L7.45243 14.6663V14.3057L7.33223 13.945L6.97163 13.2237L7.33223 12.9833L7.09183 12.6226L6.73123 12.262V11.7811L6.13023 11.0598L6.01003 10.6992L6.37063 10.0981L6.73123 9.85767L7.09183 9.97789L7.45243 9.85767L7.93323 9.97789H8.17363L8.41403 9.85767L8.77463 9.49703L9.13523 9.37681L9.61603 9.01617L9.85643 8.89595H10.217L10.4574 8.77573L11.6594 8.05444L12.1402 7.93422L12.621 8.05444L13.3422 8.77573L13.823 9.01617L13.9432 9.2566H14.1836L14.424 9.13638L14.7846 8.77573L15.8664 8.5353L16.828 8.65552L20.7946 9.97789L22.838 11.18L23.1986 11.4205H23.6794L24.04 11.6609L24.1602 12.1418L24.4006 13.2237L25.1218 14.1854L28.3672 16.8302L29.2086 17.311L30.2904 17.6717L34.4974 18.2728L34.858 18.393L35.9398 18.9941L36.4206 19.1143L37.6226 19.3547H38.2236L38.7044 19.1143L39.1852 18.8738L39.666 19.1143L40.1468 19.3547L40.7478 19.5951H41.8296L43.9932 19.3547L44.8346 19.1143L47.479 18.2728L48.5608 17.6717L49.1618 17.7919L50.3638 18.1526H50.6042L51.085 18.0323L52.4072 17.9121L53.8496 18.5132L55.0516 18.8738L55.893 19.4749L56.9748 19.8356L57.4556 20.5569L57.696 20.7973L58.1768 20.9175L59.0182 21.2782L60.1 21.0377L65.9898 18.5132L66.8312 18.7536L70.4372 23.2016L74.7644 26.6879L75.8462 27.1687L76.4472 27.5294L76.8078 28.0102L78.0098 30.0539L78.2502 30.5348L78.4906 32.8189L78.731 33.5402L79.332 34.6221L79.4522 34.9827L79.332 35.5838L79.0916 36.3051L78.9714 36.786L79.0916 36.9062L79.8128 36.786H80.1734L80.4138 37.1466L80.534 36.786H80.7744L81.135 36.9062L81.3754 37.2668H81.4956L82.0966 37.1466L82.8178 37.2668L83.2986 37.6275L83.7794 38.1084L84.0198 38.5892H84.14L84.2602 38.469L84.5006 38.2286L84.8612 38.5892L85.4622 39.3105L85.8228 39.6712L86.3036 40.152L86.4238 40.3924L86.544 41.7148L86.1834 43.6383V43.7585ZM5.52923 8.65552L5.88983 9.13638H5.52923H5.28883L5.16863 9.2566L4.92823 9.49703L4.68783 9.2566L4.08683 9.13638L3.72623 9.01617V8.77573L3.96663 8.5353L4.20703 8.29487L4.44743 8.17466L4.56763 7.69379L4.92823 7.81401L5.52923 8.65552ZM3.00503 5.65013L3.48583 6.13099L4.08683 6.61185H4.20703L4.32723 6.9725V7.21293L4.08683 7.57358L3.36563 7.09272L2.40403 7.81401V7.57358V7.09272H2.16363V6.9725L2.40403 6.73207V6.49164L2.16363 6.2512L2.40403 6.13099V5.89056L2.16363 5.77034H1.92323L1.44243 5.89056L1.20203 5.77034V5.52991L1.44243 5.28948L1.80303 5.16926H2.40403L3.00503 5.65013ZM7.93323 2.28409L8.29383 2.64474L8.65443 2.52452L8.89483 2.16387L9.13523 1.80323L9.37563 1.5628H9.73623L10.0968 1.80323L10.818 3.00538V3.96711H10.6978L10.4574 3.60646L10.0968 3.36603V4.20754L9.97663 4.56819L9.73623 4.6884L9.25543 4.56819L8.77463 4.44797L8.29383 4.20754L8.05343 3.96711L7.81303 3.48625L7.69283 3.00538L7.45243 2.64474L6.85143 2.28409L6.61103 1.80323L6.49083 1.44258V1.20215H7.09183L7.33223 1.32236L7.69283 1.5628L7.93323 2.28409Z" fill="#7C7C7C" stroke="white" stroke-width="2" stroke-linecap="round" stroke-linejoin="round"/>
    <path d="M193.522 298.736L193.762 298.976L193.402 299.217L192.2 298.856H192.08L191.959 298.976L191.479 298.856L191.358 298.976L191.238 299.097L190.998 299.577L190.637 299.337L190.277 298.495L190.036 298.135L186.911 295.73L186.19 295.25L187.392 294.168L187.993 293.927L188.834 294.047L189.555 294.408L189.916 294.528L190.277 294.649L190.757 294.769L190.998 295.009L191.479 295.49L193.161 295.971L193.883 296.332L194.123 297.173L194.003 297.534L193.642 297.774L193.161 298.135V298.375L193.522 298.736ZM185.348 228.53L185.829 229.251L186.55 229.732L186.791 229.973L187.031 230.333L187.392 231.175L187.752 231.656L188.954 232.617L189.435 232.978L189.555 233.218L189.676 233.579L189.796 234.18L189.676 234.3L189.195 234.42H188.954L189.075 234.781L189.796 235.743L190.156 235.863L190.277 235.983H190.878L191.479 236.224L191.839 236.344H192.08L192.681 235.863H192.921H193.161L194.844 236.464L195.445 237.065L195.926 237.426L196.166 237.666L196.287 237.907V238.147V238.388L196.046 238.868L195.926 239.71V239.95L195.565 240.311V240.551V240.672L195.806 240.912L196.046 241.032L196.407 241.153L196.647 241.513L196.888 241.874L197.248 242.114L197.609 242.595L197.969 242.956L198.21 243.196L198.57 243.316H198.691L199.532 243.797L200.013 243.918L200.253 243.797L200.494 243.677L201.455 242.836L202.537 241.994L203.018 241.633L203.499 241.513H203.739L203.979 241.754L204.22 242.595L204.46 242.956L205.903 243.918L206.263 244.038L207.826 244.278L208.307 244.398L209.028 244.519L209.388 244.639L209.629 244.879L209.749 244.999L209.989 245.48L210.11 246.202V246.923L209.869 248.967L209.509 249.447L208.787 249.327L208.547 249.447L207.826 249.568L207.465 249.447L206.864 249.207H206.624L206.504 249.327L206.624 249.568L206.864 249.928L206.984 250.289V250.65L206.624 251.01L206.143 251.371L205.542 251.611L205.061 251.972L201.816 254.857L201.455 255.098L200.013 255.458L200.133 255.819L200.854 256.3L201.095 256.66L201.455 257.021L201.696 257.382L202.657 257.983L203.018 258.343L203.619 259.305L203.979 259.666L204.46 259.906L205.662 260.387H205.903H206.383L207.225 260.147L207.706 260.267L207.946 260.387L209.148 261.229L209.629 260.988H210.23H210.59H211.071L211.792 260.868H212.033H212.514L212.874 261.108L212.994 261.229L213.355 261.589L213.475 262.431L214.196 263.994L214.437 264.595L214.557 266.638L214.797 267.239H215.278H215.519L215.999 267.48L216.721 267.84L217.802 268.081L219.004 268.802L219.846 269.043L221.408 269.163L222.49 270.004L223.211 270.245H223.692L224.774 270.365H225.135L225.375 270.605L225.615 270.846L225.736 271.327L225.856 273.611L226.096 274.212L226.337 274.693L227.058 275.654L227.418 276.496L227.659 276.736L227.779 277.097L228.38 279.501V279.862L228.5 280.223L228.741 280.343L229.221 280.704L229.462 280.944L229.582 281.425L228.861 282.266L228.019 282.867L227.298 283.348L226.337 283.949L225.976 284.07L225.495 284.31L225.135 284.19H224.894H224.293H224.053L223.812 283.829L223.572 283.709L223.211 283.228L222.971 283.108L222.37 282.867L222.009 282.747H221.649L221.408 282.867L220.687 283.108H220.447L220.327 282.867L219.966 281.665L219.726 281.425L219.485 281.305L219.004 280.944L218.644 281.305L218.283 281.184L217.923 280.704L217.562 279.622L217.081 279.02L214.196 276.496L210.951 274.573L207.585 273.25L207.105 272.889L206.744 271.808L206.383 271.327L201.816 267.36L197.368 264.234L193.161 260.988L192.44 260.627L191.719 260.147L191.118 259.425L190.998 258.584L191.118 258.103L191.599 257.261L191.719 256.781L191.479 256.3L190.757 255.338L190.397 254.977V254.617V254.016L190.277 253.655L189.916 253.174V252.813L189.796 251.972L189.676 251.371L189.315 251.01L185.228 248.606L180.3 245.24L174.05 240.672L173.449 240.071L172.727 238.748L172.247 238.388L168.4 232.257L168.16 231.175L165.996 227.328L165.275 226.486L164.313 225.885L162.15 224.803L161.068 224.202L160.227 223.361L158.183 220.596L159.505 219.394L161.909 217.59L162.39 217.47L163.712 217.109L164.193 216.869L165.395 216.027L166.237 215.787L168.4 214.224H168.881L169.242 214.585L169.482 214.825L170.083 215.426L170.564 215.667L170.804 215.787L170.924 216.027L171.045 216.508L171.525 217.23L172.126 219.754L172.367 220.235L172.727 220.475L173.569 220.716L173.929 221.077L174.17 221.317L174.29 222.038L175.252 222.88L175.853 223.721L176.694 224.683L177.656 225.404L179.098 226.126L179.459 226.246L180.06 226.486L180.42 226.727L180.901 227.328L181.262 227.568L181.502 227.448L181.983 227.328L182.223 227.208H182.584L183.425 227.568L184.026 228.049L184.387 228.169L185.108 228.289L185.348 228.53Z" fill="#7C7C7C" stroke="white" stroke-width="2" stroke-linecap="round" stroke-linejoin="round"/>
    <path d="M257.829 307.752L257.589 307.992L257.108 307.872L256.387 307.151L256.026 306.79L255.906 306.55V306.309L256.026 305.949H256.266L256.867 306.309L257.468 306.43L257.829 306.79L257.949 307.031L257.829 307.752ZM283.432 264.474L283.071 266.638V267.48L283.191 268.201L283.552 268.802L283.912 269.523L284.273 270.365L284.153 270.966L284.513 271.086L284.754 271.447L285.235 272.288L285.355 272.168L285.475 272.649L285.355 273.731L285.595 274.693L285.355 275.174L285.114 275.654L284.994 276.135L285.114 276.496L285.475 277.939L285.114 278.059L284.874 278.54L284.513 280.824V281.906L284.634 282.507L285.595 284.19V285.031L285.235 285.873L284.754 286.714L284.513 287.556L284.393 289.84L284.513 292.124L284.393 293.206L283.792 295.37L283.552 296.572L283.792 298.856L283.672 299.457L283.311 300.419L283.552 302.102V303.184V303.665L283.071 304.747L282.831 305.348L282.59 307.391L282.23 308.233L281.749 308.954L281.028 309.916L280.907 310.036L280.667 309.796V308.834L280.427 308.353L279.585 307.992L277.542 307.752L277.181 307.271L277.061 305.227L276.7 304.386L276.099 303.785L275.739 304.266L275.619 304.386L275.258 304.266L274.897 304.025L274.417 303.785L273.575 302.823L272.253 301.741L271.652 301.14L269.969 298.736L269.128 298.135L268.407 298.616L268.286 299.097L268.527 300.058L268.286 300.659V300.78L268.046 301.501L267.926 301.621H267.565L267.084 301.501L266.604 301.741V302.222L266.844 302.703L266.964 303.304V304.025L267.084 304.386L267.445 304.747V304.867L267.084 305.107L266.483 305.348L265.882 305.588L266.003 306.069L266.483 306.189L267.084 306.309L267.445 306.43L267.084 306.79L266.604 307.031L266.123 307.151H265.281L264.921 307.031L263.719 306.069L259.271 304.146L257.589 302.823L256.387 302.463L255.786 302.102L254.223 300.299L253.983 300.058L253.502 299.818L252.54 299.577L252.059 299.337L251.699 299.097H251.579L251.699 299.577H251.098L250.617 299.698L250.136 299.818L249.655 300.299L249.535 300.659L249.655 301.26L253.742 307.752L253.983 308.714L254.103 309.796L254.343 310.397L254.463 310.637L254.343 310.878H253.983H250.377L250.136 310.637L250.377 309.675L250.256 309.074L249.896 308.594L248.453 307.391L248.213 307.271L247.852 307.031L247.732 306.79L247.492 306.309L245.809 304.747L245.328 304.506L243.525 303.424L243.285 302.943L244.006 302.342L243.645 301.861L242.443 300.659L241.963 300.299L241.121 300.178L240.881 299.938L240.761 299.818L240.52 299.457L240.4 299.217L239.559 298.976L239.078 298.616L238.597 298.255L236.794 295.851L235.592 294.769L235.472 294.288L235.712 293.807L235.832 293.446L235.472 292.965L235.111 292.605L234.751 292.485L234.27 292.364H233.669L233.188 292.244L232.948 291.763L233.068 291.523L233.428 291.042L233.549 290.681V290.201L233.308 289.72L232.948 289.239L231.385 288.277L230.784 287.676L230.303 287.315L229.822 287.195H229.221H228.861L228.62 286.955V286.714L228.861 285.993L228.741 285.753L228.019 285.392L227.659 285.272L227.418 285.392L227.178 285.512L226.697 285.993L226.096 284.791L225.736 284.43L225.495 284.31L225.976 284.07L226.337 283.949L227.298 283.348L228.019 282.867L228.861 282.266L229.582 281.425L231.145 282.266L231.505 282.387L231.746 282.507L231.986 282.747V282.867V283.228V283.709L232.106 284.19L232.226 284.55L232.467 284.671L232.827 284.791H233.909L235.352 285.031H236.313L237.155 285.151H237.876L239.799 284.671L241.241 283.709H242.203L243.044 283.829L243.525 283.709L244.126 283.108L244.487 282.387L244.607 281.785L244.487 281.665L244.006 281.184L243.886 280.944L243.405 280.583L243.285 280.102L243.165 279.381V279.261L242.804 279.141L242.684 278.9V278.66V278.419L242.804 277.939V277.818L243.285 277.578L243.645 277.217L243.766 276.736L243.886 276.376L243.766 275.895L243.525 274.092L243.405 273.25L243.525 272.529L243.766 271.808L246.17 270.966L246.41 270.605L247.251 269.884L247.852 269.403L249.535 268.682L250.136 268.562H251.458L253.382 268.081L257.709 266.157L258.791 265.797L259.872 265.436L261.195 265.196L262.036 264.715L262.276 264.474L262.637 264.234L262.998 263.873L263.238 263.633L263.358 263.272L263.478 262.912L263.719 262.551L263.959 262.311L264.801 261.95L264.921 261.709V261.589L264.68 261.349L264.56 260.988L264.68 260.868L265.041 260.267L265.161 260.026V259.185L265.402 258.944L265.522 258.824L266.003 258.584L266.243 258.464L266.604 257.983L266.844 257.863H267.084L267.445 257.983H267.806L268.166 257.863L268.407 257.742L268.767 257.382L268.887 257.141L269.248 256.3V256.059V255.578L269.368 255.338L269.609 255.218L269.729 254.857V254.617L269.849 254.136L269.969 253.895H270.089H270.21L270.45 254.136L270.69 254.737L270.931 254.977L271.171 255.098H271.412L271.772 254.977H272.013H272.373L272.614 255.218L273.094 255.939L273.335 256.18L274.176 256.3L275.018 256.66L275.258 256.901L275.378 257.261L275.498 257.742L275.739 257.983H275.979L276.22 258.103L276.58 258.584L276.821 258.944L277.061 259.185L277.301 259.546L277.422 259.906L277.662 260.387L277.782 260.627V260.868V261.108L277.542 261.589V261.709L277.662 261.83H278.143H278.383L278.503 261.95L278.744 262.19V262.912L278.984 263.032H279.465L279.705 263.272L279.946 263.513L280.186 263.994L280.306 264.234H281.388L281.869 263.994L282.47 263.873L283.432 264.474Z" fill="#7C7C7C" stroke="white" stroke-width="2" stroke-linecap="round" stroke-linejoin="round"/>
    <path d="M249.655 201.121L249.776 201.842V202.082L249.655 202.323L249.295 203.044L249.175 203.405L248.574 204.367L248.333 204.968V205.328L248.453 205.689L248.694 206.41L249.175 205.929L249.535 204.607L249.776 204.246L250.497 204.367L251.098 204.847L251.579 205.449L252.059 205.689L252.42 205.929L252.18 206.651L251.819 207.492L251.458 207.853L251.098 208.334V208.574H251.579L251.939 208.334L252.54 207.612L252.781 207.252L253.021 207.733V208.334V208.815L253.502 209.055L253.622 209.175H253.862L253.983 208.935L254.343 208.815L254.824 208.334L255.906 207.973L256.988 208.213L257.949 209.055L258.55 210.137L258.791 211.339L258.67 212.301L258.19 213.263L257.348 214.465L255.545 216.629L255.185 216.989H254.704L253.622 217.109L253.261 217.23L252.901 217.59L252.059 218.191L251.579 218.552L253.382 217.711H254.223L254.824 218.672V219.874L254.704 220.475L254.343 221.437V222.639L254.223 223L253.983 223.24L253.502 223.481L253.021 223.601L252.54 223.721L252.3 223.842L251.458 224.443L250.617 225.164L250.016 225.885L249.776 226.847V227.929H249.655V228.289L250.016 227.929L250.497 227.328L250.737 226.727L250.857 226.126L250.978 225.765L251.458 225.404L252.3 224.803L254.103 223.962L254.824 223.481L255.305 222.639L255.786 220.956L255.906 220.475L255.786 219.273L255.906 218.913L256.266 218.312L257.108 217.59L257.468 217.109L257.829 215.907L258.31 215.547L258.791 215.426L259.271 215.667L259.512 216.148V216.869V217.47L259.993 217.831V217.23L260.353 216.869L260.714 216.629L261.315 216.508L261.916 216.749L262.276 216.989L262.637 217.35L262.998 217.59H263.238L263.839 217.47H264.079L264.44 217.59L264.801 217.951H264.921L265.522 217.831L267.084 217.109L267.685 216.989H268.286L268.887 217.109L269.849 217.711L270.45 217.831H271.772L274.056 218.191H275.138L275.859 218.312L276.22 218.552V218.672H275.859L276.22 219.033L276.58 218.913L276.941 218.552L277.301 218.312L277.782 218.432L278.143 218.552L278.383 218.913V219.634L278.263 220.235L277.782 221.317L277.662 221.798L277.782 222.519V223L278.023 223.601L278.263 224.082L278.503 224.563L278.984 225.044L279.465 225.404L280.186 225.525L280.667 225.885H281.028H281.629H281.869L282.109 226.126L282.59 226.967L282.47 230.574L282.951 231.535L283.792 232.377L284.754 232.858L285.956 233.098L286.196 232.978L286.677 232.858H287.038L287.278 232.978L287.759 233.218H287.999L288.36 233.339L288.72 233.699L289.081 234.541L289.321 235.382V237.546L289.442 238.628L289.562 238.868L289.922 239.47L290.043 239.71V240.071L289.922 240.552L289.802 240.912L289.562 241.153L287.879 241.994L286.917 242.715L286.076 243.677L285.355 244.879L284.874 245.961L283.191 251.732L283.432 252.813L284.033 253.655L286.196 255.218L286.677 255.939V256.901L286.316 257.983L284.513 260.387L284.273 261.349L284.153 262.19L283.552 263.994L283.432 264.474L282.47 263.873L281.869 263.994L281.388 264.234H280.306L280.186 263.994L279.946 263.513L279.705 263.272L279.465 263.032H278.984L278.744 262.912V262.19L278.503 261.95L278.383 261.83H278.143H277.662L277.542 261.709V261.589L277.782 261.108V260.868V260.628L277.662 260.387L277.422 259.906L277.301 259.546L277.061 259.185L276.821 258.944L276.58 258.584L276.22 258.103L275.979 257.983H275.739L275.498 257.742L275.378 257.261L275.258 256.901L275.018 256.66L274.176 256.3L273.335 256.18L273.094 255.939L272.614 255.218L272.373 254.977H272.013H271.772L271.412 255.098H271.171L270.931 254.977L270.69 254.737L270.45 254.136L270.21 253.895H270.089H269.969L269.849 254.136L269.729 254.617V254.857L269.609 255.218L269.368 255.338L269.248 255.578V256.059V256.3L268.887 257.141L268.767 257.382L268.407 257.742L268.166 257.863L267.806 257.983H267.445L267.084 257.863H266.844L266.604 257.983L266.243 258.464L266.003 258.584L265.522 258.824L265.402 258.944L265.161 259.185V260.026L265.041 260.267L264.68 260.868L264.56 260.988L264.68 261.349L264.921 261.589V261.709L264.801 261.95L263.959 262.311L263.719 262.551L263.478 262.912L263.358 263.272L263.238 263.633L262.998 263.873L262.637 264.234L262.276 264.474L262.036 264.715L261.195 265.196L259.872 265.436L258.791 265.797L257.709 266.157L253.382 268.081L251.458 268.562H250.136L249.535 268.682L247.852 269.403L247.251 269.884L246.41 270.605L246.17 270.966L243.766 271.808L243.525 272.529L243.405 273.25L243.525 274.092L243.766 275.895L243.886 276.376L243.766 276.736L243.645 277.217L243.285 277.578L242.804 277.818V277.939L242.684 278.419V278.66V278.9L242.804 279.141L243.165 279.261V279.381L243.285 280.102L243.405 280.583L243.886 280.944L244.006 281.184L244.487 281.665L244.607 281.785L244.487 282.387L244.126 283.108L243.525 283.709L243.044 283.829L242.203 283.709H241.241L239.799 284.671L237.876 285.151H237.155L236.313 285.031H235.352L233.909 284.791H232.827L232.467 284.671L232.226 284.55L232.106 284.19L231.986 283.709V283.228V282.867V282.747L231.746 282.507L231.505 282.387L231.145 282.266L229.582 281.425L229.462 280.944L229.221 280.704L228.741 280.343L228.5 280.223L228.38 279.862V279.501L227.779 277.097L227.659 276.736L227.418 276.496L227.058 275.654L226.337 274.693L226.096 274.212L225.856 273.611L225.736 271.327L225.615 270.846L225.375 270.605L225.135 270.365H224.774L223.692 270.245H223.211L222.49 270.004L221.408 269.163L219.846 269.043L219.004 268.802L217.802 268.081L216.721 267.84L215.999 267.48L215.519 267.239H215.278H214.797L214.557 266.638L214.437 264.595L214.196 263.994L213.475 262.431L213.355 261.589L212.994 261.229L212.874 261.108L212.514 260.868H212.033H211.792L211.071 260.988H210.59H210.23H209.629L209.148 261.229L207.946 260.387L207.706 260.267L207.225 260.147L206.383 260.387H205.903H205.662L204.46 259.906L203.979 259.666L203.619 259.305L203.018 258.343L202.657 257.983L201.696 257.382L201.455 257.021L201.095 256.66L200.854 256.3L200.133 255.819L200.013 255.458L201.455 255.098L201.816 254.857L205.061 251.972L205.542 251.611L206.143 251.371L206.624 251.01L206.984 250.65V250.289L206.864 249.928L206.624 249.568L206.504 249.327L206.624 249.207H206.864L207.465 249.447L207.826 249.568L208.547 249.447L208.787 249.327L209.509 249.447L209.869 248.967L210.11 246.923V246.202L209.989 245.48L209.749 244.999L209.629 244.879L209.388 244.639L209.028 244.519L208.307 244.398L207.826 244.278L206.263 244.038L205.903 243.918L204.46 242.956L204.22 242.595L203.979 241.754L203.739 241.513H203.499L203.018 241.633L202.537 241.994L201.455 242.836L200.494 243.677L200.253 243.797L200.013 243.918L199.532 243.797L198.691 243.316H198.57L198.21 243.196L197.969 242.956L197.609 242.595L197.248 242.114L196.888 241.874L196.647 241.513L196.407 241.153L196.046 241.032L195.806 240.912L195.565 240.672V240.552V240.311L195.926 239.95V239.71L196.046 238.868L196.287 238.388V238.147V237.907L196.166 237.666L195.926 237.426L195.445 237.065L194.844 236.464L193.161 235.863H192.921H192.681L192.08 236.344H191.839L191.479 236.224L190.878 235.983H190.277L190.156 235.863L189.796 235.743L189.075 234.781L188.954 234.42H189.195L189.676 234.3L189.796 234.18L189.676 233.579L189.555 233.218L189.435 232.978L188.954 232.617L187.752 231.656L187.392 231.175L187.031 230.333L186.791 229.973L186.55 229.732L185.829 229.251L185.348 228.53L186.31 227.448L186.671 227.208L187.752 226.967L188.233 226.847L189.676 225.885L190.397 224.803L191.358 225.525L192.681 225.765L193.883 226.606L194.484 226.847L195.205 227.087H195.806H196.287L196.647 226.967L197.008 226.847L198.691 226.727L199.171 226.606L199.412 226.366L199.532 226.005L199.652 225.645L200.133 225.284L201.335 224.563L201.816 224.202L202.297 223.721H202.417L202.657 223.962L203.018 223.842L203.499 223.601L203.859 223.24L204.22 222.88L206.143 220.115V219.754V219.514L205.903 219.273L205.662 219.033L205.542 218.792L205.422 218.432L205.542 217.951L205.782 217.59L206.023 217.23H206.383L206.864 217.35L207.585 217.59L208.427 217.711L209.268 217.951L210.11 218.071L210.831 217.711L212.153 218.191L212.874 218.432L213.355 218.312L214.557 217.951L214.797 217.711L215.038 217.47V217.109L214.918 216.749L214.797 216.388L214.557 216.027L214.317 215.787L214.076 215.547V215.066L214.317 214.585L214.677 213.984L215.278 212.902L215.759 212.782L216.12 212.902L216.36 213.142L216.721 213.503L217.201 214.465L217.322 215.066L217.562 215.426L220.567 218.312L221.048 218.552H221.408H221.529L221.649 218.191V217.831V217.59L221.769 217.23L221.649 216.508L221.408 215.306V214.825L221.529 214.465L221.649 214.224L221.889 214.104L222.851 213.984L223.332 213.864L223.692 213.743L223.933 213.503L224.053 213.383V213.142L223.692 212.782L223.572 212.541L223.332 211.94L223.211 211.219L223.452 207.973L223.211 207.492L223.572 207.252L232.827 202.684L233.669 202.563H234.63L239.078 203.645L240.28 203.766L241.963 203.525L244.126 202.924L244.607 202.563L244.847 202.323L245.569 200.52L245.689 200.279L246.17 199.919H246.53L246.891 200.039L247.612 200.52L248.453 201.001L248.694 201.241H249.175L249.655 201.121Z" fill="#7C7C7C" stroke="white" stroke-width="2" stroke-linecap="round" stroke-linejoin="round"/>
    <path d="M310.597 234.901H310.477L309.275 234.661L308.794 234.42L307.712 233.579L306.75 233.339L306.871 232.978L307.231 232.737L307.351 232.257L307.472 232.136L308.073 231.776L308.674 231.415H309.154L309.515 231.656L309.996 231.896L311.198 232.136L311.679 232.377L311.799 232.858L311.198 234.06L311.318 234.661L310.597 234.901ZM316.366 231.656L316.246 231.776H315.886L315.645 231.656L315.164 231.535L314.924 231.295L314.443 231.054L315.285 229.973L315.645 229.732L315.765 229.492H316.006L316.126 229.612L316.246 229.973L316.607 230.453V231.175L316.366 231.656ZM326.944 230.934L326.583 231.535L326.103 232.016L325.261 232.257L324.78 232.858L324.42 232.617L323.699 231.656L322.977 231.175L323.098 230.934L323.578 231.054L324.3 230.694L324.54 230.213L325.141 229.852L325.982 229.612L326.704 229.492L326.944 229.612V229.973L327.184 230.333L326.944 230.934ZM336.199 222.399L337.161 222.76L338.002 222.88L338.483 222.76L339.805 223L340.286 223.24L340.527 223.481L341.007 224.803H341.128L341.368 224.082L341.488 223.842L341.849 223.601L342.69 223.962L342.81 224.082L343.171 224.563L343.291 224.683L343.652 224.803L344.012 225.044L344.253 225.404L344.373 225.885L344.974 225.645L345.335 225.765L347.138 227.809L347.378 228.77L347.739 229.732L347.859 230.213L347.739 230.694L347.138 231.295V231.535L346.897 232.257L345.815 233.579L345.455 234.3V234.541L345.575 235.022L345.695 235.262L345.575 235.502L345.335 235.983V236.224L344.974 236.705V236.945L345.094 237.065L345.455 237.426L345.695 237.787H345.094L344.133 238.147L343.652 238.267H342.931L342.57 238.388L342.209 238.628L342.089 239.109V240.071L341.849 240.191H341.128L340.406 240.311L340.046 240.551L339.685 240.431L339.445 239.83L339.325 238.628L339.204 238.147L338.603 237.666L337.281 236.464V236.224V235.983L337.041 235.743L336.8 235.502L336.44 235.623L336.079 235.743L335.598 235.863V236.224L335.959 236.945V238.027L335.358 238.508L333.675 239.349H331.992L331.271 240.311L330.55 240.431L329.829 240.191L329.588 239.59L329.829 238.748L330.79 237.666V237.306L330.55 237.185L330.31 236.945L329.709 236.344L329.588 236.103V235.262L329.468 234.901L329.228 234.42V234.18L329.348 233.819L329.829 233.218L329.949 232.978V232.016L329.829 231.896L329.348 232.016L328.747 232.257H328.507L328.386 232.016V231.656L328.627 231.415L328.987 231.175L329.348 231.054L329.829 230.814L329.949 230.093L329.829 229.251L329.588 228.53L329.949 228.41L330.31 228.169L330.67 227.809L330.79 227.568L330.67 225.885L331.151 223.361L331.512 222.76L332.593 222.519H333.074L333.795 222.639H334.276L334.637 222.519L335.358 221.918L335.839 221.798L336.199 222.399ZM284.754 194.749H285.235L285.715 194.87L285.956 195.11L286.076 195.471L286.316 195.951H286.557L286.917 196.072L287.398 195.951L287.639 196.072L288.841 196.913L289.081 197.154V197.394V197.634L288.841 197.875V198.236V199.318V199.678L289.081 199.798L289.442 200.159L289.562 200.279L289.802 200.76V201.001L290.283 201.361L290.403 201.962L290.523 202.203L290.764 202.323L291.004 202.443L291.245 202.563V202.804L291.124 203.285L292.447 204.847L292.687 205.088L292.567 205.328L292.206 207.132V208.213L293.168 212.661L294.851 217.23L295.452 218.312L296.293 219.273L297.134 220.115L297.615 220.355L298.336 220.596L298.937 220.716L299.178 220.475L299.418 220.355L302.423 221.317L305.789 221.918L307.472 222.639H308.073H309.275L309.755 222.88V223.24L309.515 223.361H309.034H308.794L307.952 223.842L307.712 223.962L307.231 224.082L306.75 224.443L305.548 226.366L303.866 230.814L303.745 231.776L303.986 232.617L304.827 233.218L305.548 233.339L305.789 233.459L306.029 233.579L306.149 233.819L306.39 234.06L306.75 234.18L307.231 234.3L307.472 234.661L307.351 235.142L307.231 235.623L307.592 236.103L307.351 236.224H307.111L306.75 236.584H306.39L305.909 236.464L305.428 236.705L305.308 236.584L305.068 236.224L303.625 235.983L302.904 236.224L302.784 236.825L302.423 236.584L301.822 236.945L301.462 236.705L301.221 236.103L301.101 235.502L300.981 235.142L300.74 234.901L300.139 234.541L299.899 234.3L299.659 233.699L299.298 233.459L298.817 233.218L297.615 233.339L297.134 233.098L295.812 231.896L290.403 229.973L289.922 229.852L287.999 229.732L287.639 229.492L285.956 226.727L285.595 225.645L285.355 224.443L285.715 223.361L286.196 222.158L286.557 221.077L286.076 219.995L285.235 219.394L284.273 219.033L283.432 218.312L283.191 217.109L283.432 216.388V216.027L283.311 215.787L283.071 215.426L282.951 214.946L282.71 214.465V214.224V213.263L282.59 212.541L282.47 212.181L282.23 211.94L281.749 211.7L281.388 211.58L279.826 211.339L279.465 211.099H279.104L278.744 211.219L277.902 211.099L277.662 210.978L277.301 210.738L276.941 210.017L276.58 209.776L275.979 210.137L274.657 210.618L274.176 210.858L273.575 211.219H273.335H272.854H271.171L269.849 211.58L269.609 211.459L269.488 211.339L268.887 210.498V210.377L267.806 209.897L267.445 209.776L266.483 209.897L266.003 210.017L265.642 210.137L265.161 209.175V208.093L265.402 207.132L265.882 206.41L266.604 205.809L269.609 204.727L271.652 203.405L272.373 202.323L272.133 201.241L271.171 200.64L270.57 200.159L270.811 199.919L271.051 199.798V199.678L270.931 199.077V198.837L271.171 198.716L271.532 198.596L271.772 198.476L271.892 198.356L272.013 197.995L272.133 197.755H272.253H272.614H272.734L273.816 196.673L274.176 196.553H275.378L275.859 196.432L276.099 196.312L276.34 196.072L276.58 195.831L277.301 195.591L277.782 196.072L278.023 196.673V197.274L278.263 197.995L278.744 198.476L279.465 198.837L280.186 199.077L279.946 199.438L278.864 200.399V200.76L279.104 201.241L279.585 201.602L279.946 201.962L280.547 202.082H280.907L281.148 201.962H281.749H281.869L281.989 202.443L282.109 202.563L282.35 202.684L283.071 202.563L282.831 202.082L282.47 201.602L281.749 200.76L281.508 200.279L281.388 199.798L281.629 198.716H281.508L281.028 197.995V197.755L280.907 197.033L280.787 196.673L280.547 196.312L280.306 196.072L279.946 195.831L280.667 195.591H282.951L283.672 195.471L284.754 194.749Z" fill="#7C7C7C" stroke="white" stroke-width="2" stroke-linecap="round" stroke-linejoin="round"/>
    <path d="M250.016 166.138L251.218 167.46L251.338 167.941L251.218 168.422L250.737 168.903L249.655 169.624L249.535 170.105L249.415 171.428L249.054 171.788H248.213L247.372 171.187L246.771 170.826L246.049 171.788L245.809 172.87L245.569 172.99L245.088 173.111L244.727 170.947L244.487 169.985L244.246 169.624L243.886 169.744L242.443 168.182L242.323 167.821L242.564 167.46L242.924 166.619L243.165 166.258L243.886 165.657L244.246 165.296L244.487 164.816H244.607L244.727 165.296L244.487 166.378L244.607 166.98H244.727L244.847 166.499L244.968 165.898H245.088L245.689 166.258L246.65 165.777L247.973 164.455L248.574 164.936L248.694 165.056L249.295 165.296L249.655 165.537L249.896 166.018L250.016 166.138ZM248.574 163.854L247.973 163.974L247.612 164.094L247.372 164.215L246.65 164.094L246.41 163.974L246.17 163.613L246.29 163.253L246.771 163.012L248.333 162.892L248.453 163.012L248.694 163.133V163.373V163.613L248.574 163.854ZM251.098 155.559L251.939 155.92L253.382 157.242L253.502 157.482L252.66 157.723V157.963L252.781 158.084L253.141 158.444L253.382 158.324L253.622 158.084H253.862L254.223 158.324L254.944 159.165L255.425 160.247L255.786 160.728L256.266 160.969L256.988 160.849L257.108 160.608V160.247L257.348 159.646L257.949 159.406L258.67 160.127L259.993 162.051L262.156 163.133L261.916 163.493L261.435 163.373L260.714 163.133L260.113 163.012L259.632 163.253L259.752 163.613L259.993 163.974L260.113 164.455L258.791 163.854L258.31 163.734L257.949 163.613L257.468 163.133L256.026 162.532L255.665 162.171L255.305 161.69L254.944 161.45L254.343 161.209L253.261 161.329L252.901 161.45L252.42 161.69L251.819 162.051L251.579 162.171H251.458L250.978 162.051L250.497 162.411L250.136 162.772L249.896 162.892H249.535L249.415 162.772L249.295 162.291L248.934 161.93L248.694 161.81L248.333 161.69H247.732L247.372 161.57L247.251 161.45L247.131 161.089V160.849V160.488L247.251 160.368L247.612 160.247L248.694 159.286L249.054 158.805L249.295 158.084L249.415 156.04L249.776 155.198L250.377 155.679L250.497 155.198L251.098 155.559ZM247.251 151.953L248.574 153.636L248.694 153.996L248.213 154.116H247.973L248.333 154.597V154.838V155.198H248.213L247.732 154.597L246.53 153.395L246.17 152.674H246.41L246.65 152.914H246.771L246.41 151.832V151.592V151.351L246.53 151.231H246.771L246.891 151.472L247.251 151.953ZM249.175 149.668L249.655 150.029L249.776 149.789L250.016 149.909L253.742 153.996L254.223 154.718L254.103 154.958L253.622 154.838L253.021 154.477L252.42 153.996L252.3 153.756L252.059 153.155L251.939 153.035L251.579 153.395L251.338 153.155L250.857 152.554L250.617 152.193L250.497 152.073V151.712L250.377 151.592H250.016L249.655 151.351L249.535 151.231L249.415 150.75L248.814 150.029L248.694 149.789L248.574 149.428L248.814 149.548L249.175 149.668ZM246.53 148.106L246.29 148.226L246.049 147.985L245.929 147.505L245.689 147.384H245.448L244.847 146.423L244.607 146.302L244.968 146.062L245.088 146.182L245.569 146.543L246.29 146.903L246.65 147.264L246.771 147.505V147.745L246.53 148.106ZM222.61 139.45L222.37 139.57H222.009L221.889 139.21L222.009 138.729L222.37 138.368L222.731 137.647L222.851 137.527H223.211L223.332 137.767L223.211 138.128V138.368L222.851 139.089L222.61 139.45ZM243.285 138.849L243.044 139.45L242.684 139.33L242.564 138.969L242.323 138.368L241.602 137.647L241.362 137.286L242.083 137.647L242.804 138.128L243.285 138.849ZM255.305 136.926L255.064 137.046L254.824 136.926L254.584 136.565L254.704 136.204H255.064L255.425 136.565L255.305 136.926ZM251.939 135.483L251.819 135.844H251.458L250.737 135.723H250.256L249.896 135.844L249.054 136.204V135.603L249.415 135.243L249.896 135.002H250.497L251.579 135.122L251.939 135.243V135.483ZM243.044 135.243V135.844V136.325L243.165 136.685L243.525 137.286H243.165L242.924 137.406H242.684H242.443L241.963 137.046L241.362 136.926L241.121 136.805L240.761 136.325L240.64 135.844L240.881 135.483L241.362 135.122L241.842 135.243H242.203L242.443 135.002L242.684 134.882L242.924 135.002L243.044 135.243ZM228.62 135.844H228.26H227.899L227.779 135.603L227.659 135.122L227.058 134.281V133.92L228.019 134.521L228.38 135.002L228.62 135.483V135.844ZM252.54 134.762H252.18L252.059 134.642L252.18 134.521L252.3 134.161L252.42 133.68L252.66 133.439L253.021 133.68V134.161V134.401L252.781 134.642L252.54 134.762ZM223.332 135.002V135.483L222.49 134.401L222.13 134.04L221.168 133.8L220.807 133.439L220.687 132.958L220.928 133.199L222.37 133.68L222.851 134.04L223.211 134.401L223.332 134.762V135.002ZM234.27 135.603L234.029 135.723L233.669 135.603L233.428 135.363L233.068 134.642L232.827 134.401L231.866 134.04L231.625 133.56L231.024 132.838V132.718L232.226 132.958L233.068 133.56L233.789 134.281L234.27 135.122V135.603ZM221.649 138.609L221.048 138.849L220.447 138.609L220.206 138.128L219.966 137.527L219.726 137.286L218.644 135.844L218.524 135.363V134.762V134.401L218.764 133.92L219.004 133.079L219.365 132.718L219.726 132.598L220.086 132.838L220.327 133.199L220.567 133.68L220.807 134.04L221.649 134.401L221.889 134.762L222.37 135.483L222.731 135.844L222.851 136.084L222.971 136.445L222.25 137.887L221.649 138.609ZM231.505 135.723L231.385 135.844L231.024 135.723L230.544 135.363L229.582 134.762L229.101 134.281L228.741 133.68L228.62 132.958L229.101 132.478L229.221 132.598L229.702 132.718L229.943 132.838L230.544 133.56L231.024 133.8L231.385 134.521L231.505 135.243V135.723ZM222.13 132.838L221.889 133.079H221.649L221.288 132.958L220.928 132.838L220.807 132.598L220.687 132.357L220.327 132.117V131.997L221.529 131.756H221.769L222.009 132.117L222.13 132.478V132.838ZM240.28 132.718L240.52 132.838H241.602L242.083 132.958L242.443 133.079L242.684 133.439L242.443 133.92L242.323 134.161L241.963 134.281L240.64 134.882L240.4 135.002L240.16 134.762L239.919 134.401L239.799 133.68L239.559 133.319L239.198 133.199L238.597 132.958L238.116 132.838L238.357 132.478L238.236 131.396L238.357 131.035L238.717 130.915L239.078 131.155L239.919 131.997L240.039 132.237V132.478L240.28 132.718ZM233.428 129.592L234.27 129.833L234.51 129.953L234.751 130.314L234.871 130.674V131.035L234.63 131.275L234.39 131.396H234.029H233.669L233.428 131.275L231.986 130.554L231.746 130.314L231.625 129.953L231.505 129.592L231.746 129.352H231.986L232.467 129.592V129.352L232.587 128.871L232.948 129.352L233.428 129.592ZM257.709 130.795L257.468 130.915L257.348 130.554V130.314V129.833L257.228 129.713L256.387 129.112L256.627 128.871L256.867 128.991L257.468 129.112L257.709 129.232V129.592L257.949 129.953L258.069 130.314L257.829 130.674L257.709 130.795ZM329.709 129.472L329.108 130.194L328.627 130.434L328.386 130.314V130.194L328.627 129.833V129.592L328.507 129.472H328.026L327.906 129.232V128.991L328.146 128.751H328.386H328.747L329.348 128.991L329.709 129.232V129.472ZM221.168 129.352L221.288 129.713L221.048 129.953H220.687L220.327 129.833L219.605 129.472L219.004 129.592L218.524 129.232L217.923 128.03V127.789L218.043 127.308L218.403 126.827L218.644 126.587L219.245 126.226H219.485H219.846V126.467V126.827L219.726 127.068L219.966 127.669L220.086 128.03L220.206 128.27L220.327 128.39H220.687L220.928 128.631V128.991L221.168 129.352ZM239.679 125.986V126.587L239.198 128.39H238.958L238.477 128.03V128.39L238.717 128.751L238.477 128.871L238.116 129.472L238.236 129.833L237.996 129.953H237.635L237.034 130.073L236.554 129.953L235.592 129.472H235.472H234.871H234.63L234.51 129.352L233.669 128.39L233.308 127.789L233.188 127.308L233.549 127.068L233.789 127.188L234.15 127.669H234.39L234.63 127.429V127.188L234.51 126.948L234.27 126.106L234.63 125.986H234.871L235.472 126.226H235.592L236.073 125.866L236.313 125.024L236.554 124.784L236.794 124.904L237.635 125.866L237.996 126.226L238.116 125.866V125.505L237.996 125.265L237.756 124.904L238.116 124.784H238.477H238.717L239.078 124.904L239.318 125.144L239.559 125.505L239.679 125.986ZM251.218 124.543L251.098 125.505V125.866L251.338 126.347L252.66 126.948L252.781 127.188L252.901 127.549L253.141 128.871L252.781 129.472L252.66 129.713L252.781 130.314L252.901 131.035L253.021 131.275L252.901 131.516L252.66 131.877H252.42L252.059 131.997L251.819 132.117V132.357L251.699 132.718L251.458 134.04L250.497 134.161L248.333 133.319L248.574 132.958L248.333 132.478L247.973 132.117L247.492 131.877V131.756H248.093H248.453L248.574 131.516L248.453 131.275H248.093H247.492L246.891 131.035L246.771 130.795V130.554L246.891 130.314L247.852 130.073L247.732 129.833V129.592L247.852 129.232H247.973L248.213 128.991L248.453 128.751L247.973 128.631L247.732 128.27L247.612 128.15H247.251L247.011 128.27L245.809 128.871L245.448 128.991L244.847 129.112H244.607L244.246 129.472L244.006 129.592H243.044H242.804L242.203 129.232L242.083 128.751V128.27L241.842 127.669V127.308L242.443 126.827L243.766 126.347L244.006 126.226L244.126 126.106L244.487 125.625V125.385L244.607 125.144V125.024L245.088 124.904L245.689 125.024H245.929L246.049 124.664L246.17 124.423H246.53L247.131 124.784L248.213 125.024H249.054L249.776 124.664L250.737 124.183L250.617 123.942L250.737 123.822L251.098 123.942L251.218 124.543ZM367.692 89.5606H368.774L369.134 89.6809L369.254 89.9213L369.134 90.0415L368.774 90.4021L368.293 90.6426L367.572 90.883H366.971L366.61 90.5224V90.1617L366.85 89.9213V89.8011L366.37 89.5606H366.249L366.009 89.6809H365.769L365.408 89.5606V89.3202L365.528 89.0798L365.769 88.9596L366.129 88.8394L366.49 88.9596L366.73 89.0798L367.331 89.4404L367.692 89.5606ZM294.25 84.2712L294.129 84.3914L294.009 84.1509L293.649 83.7903L293.528 83.1892L293.288 82.7084L293.168 82.4679L293.288 82.1073H293.649L293.889 82.2275L294.009 82.4679L294.129 82.8286L294.25 83.6701V84.0307V84.2712ZM362.163 81.386V81.5062L361.802 81.386L361.441 81.1455L361.081 80.7849L360.6 80.5445L360.36 80.304V80.1838L360.961 79.8232L361.441 79.4625L361.802 79.1019L361.922 78.7412L362.042 78.5008L362.163 78.1402L362.523 77.2987H363.124L363.605 77.8997L363.244 78.621V78.9817L363.485 79.9434L363.365 80.304L363.244 80.4243L362.643 80.6647L362.523 80.7849L362.403 80.9051L362.163 81.386ZM334.156 78.0199H333.795L333.435 77.8997L333.675 77.0582L334.276 76.8178H334.877L335.118 77.0582L335.238 77.5391V77.7795L334.156 78.0199ZM282.109 78.0199H282.35L282.47 77.8997L282.59 77.5391H282.831H283.071L283.912 77.7795L284.153 77.8997L283.912 78.2604H283.792V78.0199H283.552L283.071 79.9434L282.831 80.0636L282.47 79.8232L282.23 79.9434L282.109 80.0636L280.907 80.5445L281.148 80.9051H281.508L281.749 81.0253L281.869 81.1455L281.749 81.5062L281.028 81.6264H280.787L280.427 81.5062L280.186 81.386L280.066 81.0253V80.7849L279.946 80.4243L280.066 80.1838L280.306 79.4625L280.427 78.8615L280.667 78.2604L280.787 78.0199L280.547 77.6593L279.946 77.4189L279.705 77.1784L279.946 76.938V76.5774V76.2167L279.826 75.8561L280.186 75.7358L280.427 76.2167L280.547 76.3369L281.028 76.5774L281.148 77.0582L281.028 77.4189L281.148 77.7795L281.749 77.8997L282.109 78.0199ZM294.129 71.5283L294.73 71.7687L295.211 72.2496L295.452 72.7305V75.1348H295.211L294.73 74.4135L294.25 74.6539L294.009 74.4135L293.889 74.173L293.408 74.0528L293.528 73.9326L293.649 73.3315L293.288 72.0092L293.408 71.5283H293.769H294.129ZM295.572 69.124V70.0857V70.3261L295.452 70.5666L295.331 70.4464L295.211 69.8453V69.7251H294.971L294.851 70.0857L295.091 70.807L295.331 71.1677L295.211 71.4081L294.009 70.6868L294.129 70.4464V69.9655L294.37 69.3644L294.49 68.8836L294.61 68.4027L294.971 68.042L295.572 67.8016L295.692 68.042L295.572 69.124ZM348.099 49.048L349.662 50.8512L350.383 51.3321L350.503 51.4523V51.9331V52.5342L350.623 52.8949L350.383 53.2555L350.022 53.496L349.662 53.7364L349.542 54.2172L349.902 54.097H350.022L350.503 54.5779L350.744 54.3375V54.5779L350.263 55.9003L350.143 56.2609L349.061 57.7035L348.82 58.0641L348.7 58.545L348.58 59.2663L348.46 59.5067L347.979 59.7472H347.618H346.777H346.416L345.936 59.8674L345.214 60.3482L344.974 60.4685L344.734 60.3482L343.892 59.7472L342.931 59.3865L342.57 59.2663L343.171 58.4248L343.411 57.8237L343.652 57.7035L344.012 57.8237L344.493 57.5833L344.613 57.2226L344.734 56.862L344.974 56.7418H345.455H345.695L346.056 56.862L346.416 57.2226L347.138 58.0641L347.498 58.3046L347.378 57.9439L347.017 56.7418L346.897 56.6216L346.537 56.1407H346.296H345.575L344.854 56.0205L342.81 55.2992L341.969 55.179L341.729 55.0588L341.488 54.8183L341.368 54.4577L340.887 53.6162V53.0151L340.767 52.7747L340.406 52.5342L340.286 52.414V52.1736V51.5725L340.166 51.3321L339.805 51.0916L339.685 50.9714L339.805 50.731L340.046 50.3703L340.767 49.649L341.007 49.4086H341.488L341.729 49.2884L341.849 49.1682L342.209 48.6873L342.57 48.5671L344.613 46.5234L344.854 45.9224L345.214 45.4415L345.695 45.0809L346.056 44.8404L346.416 45.2011L346.657 45.6819L346.777 47.1245L346.897 47.8458L347.258 48.3267L348.099 49.048ZM339.926 33.1795L339.685 33.4199L339.084 33.2997H338.724L338.483 33.1795V32.9391L338.603 32.6986L338.844 32.4582L339.325 32.2178L339.565 31.9774L339.805 31.4965L339.926 31.2561L340.046 31.1358L340.286 31.0156L340.527 31.1358L340.406 31.3763L340.286 31.7369L340.166 32.6986L339.926 33.1795Z" fill="#7C7C7C" stroke="white" stroke-width="2" stroke-linecap="round" stroke-linejoin="round"/>
    <path d="M249.655 201.121L249.175 201.241H248.694L248.453 201.001L247.612 200.52L246.891 200.039L246.53 199.919H246.17L245.689 200.279L245.569 200.52L244.847 202.323L244.607 202.563L244.126 202.924L241.963 203.525L240.28 203.765L239.078 203.645L234.63 202.563H233.669L232.827 202.684L223.572 207.252L223.211 207.492L223.452 207.973L223.211 211.219L223.332 211.94L223.572 212.541L223.692 212.782L224.053 213.142V213.383L223.933 213.503L223.692 213.743L223.332 213.864L222.851 213.984L221.889 214.104L221.649 214.224L221.529 214.465L221.408 214.825V215.306L221.649 216.508L221.769 217.23L221.649 217.59V217.831V218.191L221.529 218.552H221.408H221.048L220.567 218.312L217.562 215.426L217.322 215.066L217.201 214.465L216.721 213.503L216.36 213.142L216.12 212.902L215.759 212.782L215.278 212.902L214.677 213.984L214.317 214.585L214.076 215.066V215.547L214.317 215.787L214.557 216.027L214.797 216.388L214.918 216.749L215.038 217.109V217.47L214.797 217.711L214.557 217.951L213.355 218.312L212.874 218.432L212.153 218.191L210.831 217.711L210.11 218.071L209.268 217.951L208.427 217.711L207.585 217.59L206.864 217.35L206.383 217.23H206.023L205.782 217.59L205.542 217.951L205.422 218.432L205.542 218.792L205.662 219.033L205.903 219.273L206.143 219.514V219.754V220.115L204.22 222.88L203.859 223.24L203.499 223.601L203.018 223.842L202.657 223.962L202.417 223.721H202.297L201.816 224.202L201.335 224.563L200.133 225.284L199.652 225.645L199.532 226.005L199.412 226.366L199.171 226.606L198.691 226.727L197.008 226.847L196.647 226.967L196.287 227.087H195.806H195.205L194.484 226.847L193.883 226.606L192.681 225.765L191.358 225.525L190.397 224.803L189.676 225.885L188.233 226.847L187.752 226.967L186.671 227.208L186.31 227.448L185.348 228.53L185.108 228.289L184.387 228.169L184.026 228.049L183.425 227.568L182.584 227.208H182.223L181.983 227.328L181.502 227.448L181.262 227.568L180.901 227.328L180.42 226.727L180.06 226.486L179.459 226.246L179.098 226.126L177.656 225.404L176.694 224.683L175.853 223.721L175.252 222.88L174.29 222.038L174.17 221.317L173.929 221.077L173.569 220.716L172.727 220.475L172.367 220.235L172.126 219.754L171.525 217.23L171.045 216.508L170.924 216.027L170.804 215.787L170.564 215.667L170.083 215.426L169.482 214.825L169.242 214.585L168.881 214.224H168.4L166.237 215.787L165.275 212.782L164.193 210.137L163.833 209.536L163.592 209.175L162.751 208.574L162.39 208.093L161.909 207.372L161.188 205.929L160.828 204.487L160.587 203.044L160.467 200.279L161.429 200.52L161.909 200.399L162.27 200.64L162.751 200.88L163.352 201.001L167.919 200.279L168.28 200.52L169.121 200.64L169.482 200.52L169.843 200.279L170.564 199.318L171.045 198.596L172.006 197.755L174.17 196.072L174.771 195.471L175.131 194.99L175.372 194.148V193.908L175.131 193.547L175.011 193.307L175.372 192.585V192.225L174.891 190.662L175.011 189.941L175.131 189.46L175.372 189.219L175.612 189.099H176.093L176.934 188.859L177.656 188.618L178.136 188.137L178.858 187.416L179.218 186.815L179.459 186.214V185.974V185.733H179.218L178.978 185.853H178.737L178.257 185.613L177.896 185.373L178.016 184.771V184.17L177.896 183.569L177.535 182.968L180.42 181.886L180.661 181.766L181.141 181.405L181.502 180.564L181.863 179.963L182.343 179.482L182.944 179.121L183.425 178.881L183.906 178.761L185.348 178.881L186.671 178.64L187.151 178.52L187.873 178.28L188.474 178.16H188.834L189.916 178.52L190.156 178.64L190.397 178.761L190.517 179.121L190.757 179.722L190.878 179.963L192.2 181.165L192.44 181.526L192.56 181.766L192.681 182.006L192.801 182.127L193.522 182.367L193.762 182.487L194.243 182.848L194.484 183.329L194.724 183.449L195.325 183.689L197.729 184.17L198.21 184.05L198.57 183.569L199.051 182.247L199.292 181.886L200.013 181.405L200.373 181.045L200.614 180.804L200.974 179.963L201.335 179.362L201.575 179.242L202.297 178.64L202.537 178.52L203.499 177.318L203.979 176.957L204.22 176.717L204.58 176.477L207.465 175.755L208.547 175.635L212.273 175.996L220.807 175.395L221.048 175.274L221.408 175.395L221.769 175.635L221.889 175.875L221.769 176.236L221.288 176.717L221.168 177.078L222.37 176.837H222.851L223.452 177.078L223.692 177.438L224.053 178.28L224.413 178.64H224.534H224.894L225.014 178.881L225.495 179.362L225.615 179.602L226.216 179.843L226.457 180.323L226.577 180.444L227.659 180.564L228.019 180.925L228.62 181.526L228.981 181.646L229.582 181.766L230.063 181.886L230.423 182.127L230.664 182.608L231.024 183.569L231.265 183.81L231.505 182.728L231.986 182.247L232.587 181.886L233.188 181.646L234.27 181.405L234.63 181.285L236.313 182.127L236.794 182.487L237.275 182.608L238.597 182.728H239.078L240.64 183.689L241.241 183.81L242.323 183.329L242.564 183.209L244.126 182.848L245.569 182.728L245.689 182.968L246.41 185.252L246.17 186.935V187.897L246.53 188.739V188.979L247.372 189.82L247.492 190.181L247.612 191.864V195.831L247.852 196.913L248.213 197.995L249.295 199.919L249.655 201.121Z" fill="#7C7C7C" stroke="white" stroke-width="2" stroke-linecap="round" stroke-linejoin="round"/>
    <path d="M91.8328 169.143L92.0732 169.384L92.3136 169.744V170.225L92.1934 170.586H92.0732V170.346L91.8328 170.105L91.4722 170.346L91.1116 170.225L91.352 169.865L91.2318 169.624L90.8712 169.504L90.3904 169.744L90.2702 169.985L90.15 170.466V170.947V171.067L89.3086 170.826L87.3854 169.744L86.3036 169.504L86.544 169.384L86.9046 169.264L87.0248 169.143H87.2652L87.746 169.384L87.9864 169.264L88.1066 169.023L88.7076 167.34V166.859L88.5874 165.777L88.7076 165.176L88.8278 164.936L89.3086 164.215L89.549 163.974L90.15 163.734L90.2702 163.613V163.373L90.15 162.532L90.3904 162.171L90.6308 162.291L90.9914 162.532L92.0732 164.455L92.4338 165.297L92.1934 165.898L92.4338 166.378L92.554 166.859L92.4338 167.34L92.3136 167.821V168.182V168.542L92.0732 168.783L91.8328 169.143ZM93.756 163.012L93.6358 164.094L93.3954 164.575L93.2752 164.816V165.056L93.5156 165.417V165.777H93.2752L92.554 164.094L89.7894 160.247L89.3086 159.526L88.5874 157.723L88.1066 157.002L87.8662 156.761L87.3854 156.521L87.0248 156.28L86.9046 156.04L87.145 155.799L87.6258 155.679L88.7076 155.559L89.7894 156.04L90.751 157.122L91.4722 158.564L91.7126 159.887L92.1934 160.969L93.0348 162.051L93.756 163.012ZM95.4388 151.231L96.761 151.351L97.8428 151.231L98.564 151.472H99.165L100.247 151.592L100.968 152.073L101.449 152.914L101.208 153.636L100.127 153.515H99.0448L98.0832 153.876L97.1216 153.996L95.3186 153.515H94.2368L93.2752 153.395L92.9146 152.914V151.953L93.5156 151.592L94.5974 151.351L95.4388 151.231ZM62.8646 116.128L63.3454 116.369L63.706 116.249L63.9464 116.128L64.1868 116.249L64.5474 116.729V117.09L64.7878 117.21H65.0282H65.3888H65.7494L65.9898 117.811L66.5908 118.412L66.711 118.533L66.8312 118.653L66.9514 119.254L67.1918 119.494L68.514 120.817L68.8746 121.298L69.115 122.38L71.1584 124.784L71.6392 125.144L72.8412 125.385L73.322 125.625L73.6826 125.986L74.0432 126.226L74.4038 126.827L74.6442 127.188L74.7644 127.549L74.8846 127.909L75.3654 128.03H75.8462L76.327 128.15L76.6876 128.511L77.1684 129.592L77.2886 129.833L77.529 130.073L77.4088 130.674L77.0482 131.516V131.396L76.5674 132.117V132.958L76.6876 134.521L76.5674 134.882L76.327 135.483L76.2068 137.046L76.0866 138.969L75.8462 139.57L74.6442 141.133L74.4038 141.253L74.1634 141.133L73.923 141.013L73.322 140.532L72.9614 141.013H72.721L71.9998 140.532V140.652L71.7594 140.773L71.3988 140.893L71.2786 140.532L70.7978 140.171L71.1584 139.45L70.918 138.969L70.5574 138.609L70.1968 138.128V137.887L70.317 137.166L70.1968 136.805L69.9564 136.565L69.5958 135.723L69.4756 135.363L69.115 134.281L68.0332 133.319L65.7494 131.877L65.8696 131.396L65.6292 131.155L65.0282 131.035H64.4272L63.3454 131.155L63.2252 130.915V130.314V129.232L62.7444 128.15L61.4222 125.986L61.1818 125.385L61.0616 125.144L60.5808 124.664L60.3404 124.423L60.1 123.942L59.7394 123.582L59.6192 122.86L59.499 122.74L59.1384 122.5L58.898 122.38L58.297 122.139L58.0566 121.899L57.9364 121.658L57.696 121.057L57.4556 120.696L56.3738 119.735L55.893 119.254L55.1718 119.013V119.134L54.8112 119.374L54.691 118.893L55.1718 118.533L55.893 118.292H56.494L56.9748 118.533L57.2152 118.773L57.3354 119.013L57.4556 118.773H57.8162L58.4172 118.893L59.2586 118.773L59.7394 118.653L60.3404 118.292L61.4222 117.33L61.6626 116.97L61.7828 116.609V115.888V115.647L62.1434 115.407L62.8646 116.128ZM92.3136 112.281L92.7944 112.522L93.0348 112.402L93.2752 112.041L93.6358 111.921L94.1166 112.161L94.5974 112.642L94.8378 113.123L94.357 113.363H93.756H92.9146H92.1934L91.352 112.882L90.9914 112.762H90.6308L90.3904 112.402V112.041L90.5106 111.56L90.751 111.32L91.2318 111.199L91.5924 111.32L91.953 111.68L92.3136 112.281ZM139.552 89.0798L139.071 90.6426L138.591 94.2491L138.711 95.2108V96.0523L139.192 97.2545L139.552 98.9375L139.793 101.582L139.672 102.424L139.312 103.626L139.071 104.588L138.951 105.67L139.071 106.271L139.312 106.631L139.552 106.872L140.634 107.713L140.874 107.954L141.115 108.435L141.716 110.118L142.677 112.281L142.918 113.003V113.604V114.085L142.677 114.445L142.437 114.806L142.197 115.046L140.514 116.008L134.143 118.893L133.662 119.134L133.422 119.374L133.061 119.735V119.975L133.182 120.336L134.384 121.298L134.624 121.538L134.744 121.899L134.864 122.139V123.101V123.341L134.985 123.582L135.225 123.822L136.307 124.423L136.667 124.664L136.908 124.904L137.028 125.144L137.148 125.505L137.268 125.866L137.148 126.467L136.908 127.669L136.788 127.909V128.27L137.028 128.871V129.232V129.833L136.908 131.516V132.598V132.958L136.788 133.199L136.307 133.68L136.187 133.92L135.946 134.401L135.826 134.762V135.243L135.946 135.964L135.586 136.204L135.225 136.325H134.864H134.504L134.143 136.084L133.662 135.844L133.182 135.363L132.941 135.122L132.46 135.002L131.499 134.642L130.657 134.401L130.177 134.161L129.816 133.92L128.734 133.8L127.532 133.199L126.811 133.079L126.571 133.319L125.97 133.439H125.489L125.128 133.319L124.888 133.199L124.046 132.718L123.686 132.598L123.566 132.838V133.079L123.806 133.68L124.046 133.92L124.407 134.281L124.768 134.882L125.008 135.002L125.609 135.243L125.97 135.483L126.09 135.603L126.21 135.964L126.45 136.926L126.571 137.286L127.773 138.488L127.893 138.729L128.133 139.21L128.494 139.691L129.095 141.013L129.215 141.133V141.494V142.095L128.975 142.696L128.734 142.936L128.374 143.057L127.292 143.417L126.931 143.537H126.45L125.849 143.297L125.489 143.057L125.248 142.936H123.686L123.445 142.816L123.205 142.696L122.965 142.456L122.484 141.854L122.364 141.734H121.883L121.642 141.614L120.921 141.253L120.561 141.133H119.96L119.359 141.374L117.435 142.335L116.834 142.696L116.354 142.816H115.512L114.791 143.057L114.551 143.177L114.19 143.417L112.267 145.942L109.262 149.188L108.901 148.947V148.707L109.262 148.346L109.382 147.985V147.505L109.142 147.144L108.661 146.904L108.18 146.783L108.661 145.581V145.1L108.541 143.177L108.42 142.456L108.18 142.095L107.819 142.335V141.975L107.94 140.652V140.051L107.579 139.57L107.218 139.33L106.497 139.57L106.257 138.849L106.497 136.445L106.377 135.483L105.415 134.401L105.175 134.281L104.814 134.04L104.694 133.68V132.718L104.574 131.756L103.132 126.587L101.329 122.5L101.088 121.778L100.968 121.538L101.208 120.937V120.696L101.088 120.336L100.006 119.254L99.766 118.893L99.4054 117.932L99.2852 117.33L99.165 116.85V116.609L98.9246 116.489L98.6842 116.369H98.4438L98.2034 116.249L98.0832 116.008L97.963 115.407L97.7226 114.926V114.806L98.0832 114.686L98.3236 114.806L98.4438 114.926L98.564 115.167L98.8044 115.647L99.165 115.407L99.766 114.325L100.006 114.085L100.487 113.484L100.607 113.243V112.281L100.487 111.921L100.247 111.68H99.766L99.6458 111.44V111.079V110.598L99.4054 110.118L99.0448 109.757L98.0832 109.036L97.8428 109.156L97.7226 109.396V109.757L98.0832 109.877V110.118L97.963 110.478L97.7226 110.719L97.2418 110.478L96.4004 109.757L94.2368 106.511L93.155 105.189L90.751 103.746L90.2702 103.626L89.7894 103.506H89.3086H88.7076H88.4672L88.347 103.385L88.2268 103.025V102.784L87.746 102.544H87.2652H86.6642H86.1834L85.943 102.304L85.8228 101.702L85.5824 101.222L84.6208 100.741L83.1784 99.4183L81.8562 98.697L82.4572 95.4512V94.9704L82.337 94.0086L81.8562 93.0469L81.736 92.4458L81.4956 92.2054L81.2552 92.0852H81.0148L80.7744 91.965L80.6542 91.6043L80.0532 89.8011L79.8128 88.4787L79.933 87.8776L80.0532 87.3968L80.1734 87.1563V86.6755V86.5553L80.6542 86.1946L81.0148 85.834V85.5935V85.4733L80.6542 84.9925L80.4138 84.1509L80.2936 83.6701L80.4138 83.1892L80.7744 82.7084L80.6542 82.3477L80.4138 81.9871L80.1734 81.8668L79.6926 81.7466L79.332 81.5062L79.0916 81.2658L78.2502 80.1838L78.0098 80.0636L77.529 79.9434L77.1684 79.8232L76.928 79.5828L76.8078 79.4625V79.1019L76.928 78.02L76.4472 75.9763L76.327 75.6156L76.4472 75.255H76.5674L77.0482 75.3752H77.2886L77.529 75.1348L77.6492 74.4135V74.0528L77.529 73.8124L76.8078 72.8507L76.6876 72.6103V72.1294L76.4472 71.6485L76.2068 71.4081L75.8462 71.0474L75.6058 70.6868L75.8462 70.5666L76.2068 70.3262L77.8896 69.9655L78.4906 69.6049L78.8512 68.7633L78.4906 68.0421L78.3704 67.8016L77.2886 67.0803L77.0482 66.8399L76.928 66.4792L76.6876 66.1186V65.758V65.5175L76.8078 65.0367L76.928 64.7962L76.8078 64.5558L76.4472 64.1952L76.2068 63.8345L76.0866 63.2334L75.9664 62.993L75.726 62.7526L75.3654 62.5121L75.125 62.2717L74.8846 61.9111L74.524 60.4685L74.1634 59.8674L73.5624 58.7855L73.322 58.4248V58.1844L73.5624 57.9439L75.9664 55.9003L76.327 55.2992L76.2068 54.8183V54.2173L76.327 53.496L76.8078 53.8566H77.1684H77.4088L77.529 53.6162V53.3757L77.7694 53.1353L78.0098 52.7747L78.8512 52.1736L79.2118 51.8129L79.332 51.3321L79.4522 50.8512L79.6926 50.4906L79.8128 49.8895V49.6491L80.0532 48.5671L80.2936 47.7256L80.6542 46.5235L80.7744 46.283L81.0148 45.9224L81.135 45.6819V45.4415L80.7744 44.9607L80.8946 44.7202L81.135 44.6H81.8562L82.2168 44.4798L82.4572 44.2394L82.8178 43.8787L83.0582 43.7585L83.7794 43.6383L84.14 43.5181L86.1834 43.7585L86.0632 45.6819V45.9224L85.4622 46.283L84.2602 46.6437L84.0198 46.8841L83.8996 47.1245L83.7794 47.6054V48.4469L84.3804 47.8458L84.8612 47.4852L85.342 47.365L85.4622 47.2447L86.0632 46.6437L87.0248 48.9278L87.145 49.1682L88.5874 48.9278L89.1884 49.048L89.7894 49.1682L90.751 49.7693L91.2318 49.8895L91.5924 50.0097L92.1934 50.8512L92.4338 51.0917L92.9146 51.2119L93.3954 51.0917L93.756 51.2119L93.9964 52.1736L94.2368 52.5342L94.7176 52.7747L95.0782 52.8949L96.8812 53.496L97.4822 54.5779V55.6598L97.7226 56.3811L100.006 58.4248L102.531 59.627L104.213 59.8674L104.694 60.228L105.536 60.8291L106.617 61.1898L107.218 61.5504L107.94 62.1515L109.983 63.1132L112.267 64.7962L114.911 66.7197L115.272 66.9601L116.233 67.2005L116.594 67.441L117.075 68.0421L117.796 68.4027L118.036 68.6431L118.277 69.3644L118.517 69.7251L118.998 70.3262L119.839 71.0474L120.681 71.5283L123.205 72.1294L124.046 72.3698L124.527 72.49L124.888 72.7305L125.609 74.2933L127.051 75.4954L127.532 76.2167L127.652 77.1784L128.494 76.938L129.095 77.4189L129.576 78.02L130.297 78.3806L130.778 78.7412L131.138 79.703L131.258 82.7084V83.069L131.018 83.4297L130.778 83.6701L130.537 84.0307L130.417 84.752L130.177 85.2329V85.3531L130.297 85.5935L130.778 85.7138L130.898 85.834L131.138 86.0744L131.018 86.3148V86.435L131.619 87.3968L131.499 87.6372L131.619 87.8776H131.739L131.98 87.6372L132.1 87.3968L131.98 87.2766L131.859 87.0361L131.739 86.9159V86.0744V85.834L130.898 85.3531L130.657 85.2329L131.018 84.752L131.859 84.3914L132.821 84.5116L133.422 85.5935V85.9542L133.302 86.6755L133.422 87.0361L133.662 87.8776V88.1181L133.903 88.7191L134.263 89.3202L134.624 89.6809L134.985 89.5607V89.2L134.504 88.2383L134.384 87.7574V86.6755L134.504 86.1946L134.744 85.7138L135.105 85.3531L135.465 85.2329L136.066 85.1127L136.667 84.9925L136.908 85.1127V85.5935L137.028 85.834L137.268 85.9542L137.629 86.1946L137.869 86.3148V86.435L137.99 87.1563L138.11 87.3968L138.47 88.1181L139.192 88.5989L139.432 88.7191L139.552 88.8394V89.0798Z" fill="#7C7C7C" stroke="white" stroke-width="2" stroke-linecap="round" stroke-linejoin="round"/>
    <path d="M229.342 164.816L229.221 164.936L228.26 164.816L227.899 164.936L227.178 165.296L226.577 165.417L225.976 165.777L225.615 165.898L225.135 165.657L224.774 165.537L224.534 165.657L223.933 165.777L222.49 165.296L221.649 165.417V164.575L222.37 163.253L223.332 162.171L224.173 161.69H224.654L226.096 161.93L226.337 162.051L226.577 162.411L227.178 162.652L228.26 162.892L228.861 163.133L229.342 163.613L229.702 164.335L229.342 164.816ZM206.383 148.346L205.662 148.587L205.422 148.226L205.903 147.865L206.624 147.625L207.465 147.384L207.706 147.745L207.225 147.985L206.383 148.346ZM211.792 140.652L211.672 140.772H211.552L211.312 140.532L211.191 140.171L210.831 139.45V139.089L210.59 138.729V138.609L210.831 138.488L211.071 138.609L211.312 138.849L211.552 139.21L211.792 139.45L211.913 139.931V140.292L211.792 140.652ZM214.437 142.335H214.076L213.595 142.095L213.355 141.734L213.235 141.253V140.772L213.836 138.488L214.317 137.647L215.158 137.286L215.639 137.406L216.12 137.647L216.48 138.008L216.841 138.368L217.081 138.969L217.322 139.45L217.442 140.051V140.772L217.322 141.494L216.961 141.734L214.797 142.215L214.437 142.335ZM212.393 136.565L212.033 136.926H211.913L211.792 136.685L211.672 136.084V135.964L211.913 135.603L212.153 135.243L212.393 135.122H212.634L212.754 135.483L212.634 135.964L212.393 136.565ZM200.373 129.713L200.854 129.833L201.215 129.713L201.936 129.352L202.297 129.232H202.898L203.499 129.352L203.979 129.592L205.302 130.674L207.225 131.636L210.23 133.68L210.59 134.161L210.711 134.401L211.071 135.483H211.191L210.951 135.964L210.831 136.926L210.59 137.406L210.11 137.647H209.869L209.629 137.527L209.148 136.926L207.826 135.723L206.864 135.122L205.782 135.002L203.619 135.122H203.018L201.936 134.762H201.335L199.171 135.243L198.09 135.483L197.008 135.122L195.806 134.161L195.565 134.04L194.123 132.958L194.243 132.478L194.604 131.877L195.205 131.516L196.287 131.275L196.647 130.915V130.434L195.806 127.909V126.948L196.287 126.226L197.368 125.986L198.09 126.347L199.412 127.909L199.652 128.15V128.511L199.412 128.991V129.352L199.772 129.592L200.373 129.713ZM210.59 128.511L211.672 129.592L212.994 131.516L213.956 132.357L214.196 132.718L214.076 133.319L212.994 134.04L211.913 133.8L208.427 131.636V131.516L207.225 130.554L206.864 130.314L206.023 129.953H205.542L205.061 129.833L204.701 129.472L204.46 129.112L204.22 128.871L203.739 128.751L202.176 128.871L201.575 128.991L201.095 129.352L200.494 129.472H199.893V129.112L200.133 128.631L201.095 127.669L201.455 127.188L201.816 126.106L202.176 125.625L203.258 125.265L204.46 125.385L206.744 126.226L208.787 127.308L210.59 128.511ZM195.686 130.674H195.205L194.964 130.795L194.243 131.396L194.003 131.516L193.161 131.396L192.32 130.674L190.517 128.751L190.156 127.909L189.796 127.549L189.676 127.068V126.467L189.916 125.265V124.303V123.942L189.315 123.461L189.075 122.981L188.834 122.38V121.899V121.658L189.075 121.177L189.195 120.937L188.954 119.855L189.075 119.254L189.195 119.013L189.555 118.893H190.156L191.118 119.134L191.959 119.735L193.402 121.298L195.325 122.74L195.806 123.101L195.926 123.341L196.046 123.942L195.926 124.664L195.205 127.068V127.669V128.39L195.686 129.833L195.806 130.434L195.686 130.674ZM189.796 114.806L191.358 115.046H192.08H192.44L192.681 115.167L193.161 115.527L193.402 115.647L195.686 116.249L196.407 116.85L196.527 118.172V120.216L196.888 122.019V122.5L196.046 122.62L194.844 121.899L193.282 120.336L192.2 118.893L191.719 118.653H191.479L190.998 118.412L187.031 117.811L186.07 117.33L184.988 116.369L184.267 115.407L183.666 114.445L183.786 113.604L184.988 113.243L185.469 113.363L186.671 113.964L187.151 114.325L187.512 114.565L188.113 114.686L189.796 114.806ZM176.333 102.063L177.295 103.265L177.535 103.987L177.656 104.948L177.535 105.549L176.694 106.511L176.454 107.112L176.574 108.314L176.454 108.795L176.093 109.396L174.891 110.238L174.651 110.478L174.41 110.839L173.809 111.079L173.088 111.199H172.487L171.285 110.959L170.323 110.478L169.482 109.637L169.001 108.675L168.641 107.473L168.52 106.872L167.799 105.91L167.679 105.429L168.04 103.265L168.4 102.424L169.001 101.823L169.963 101.702L170.444 101.823L171.285 102.063H171.886L172.247 101.823L173.569 100.5L174.41 100.26L175.252 100.741L175.973 101.462L176.333 102.063ZM221.048 175.274L220.807 175.395L212.273 175.996L208.547 175.635L207.465 175.755L204.58 176.477L204.22 176.717L203.979 176.957L203.499 177.318L202.537 178.52L202.297 178.64L201.575 179.242L201.335 179.362L200.974 179.963L200.614 180.804L200.373 181.045L200.013 181.405L199.292 181.886L199.051 182.247L198.57 183.569L198.21 184.05L197.729 184.17L195.325 183.689L194.724 183.449L194.484 183.329L194.243 182.848L193.762 182.487L193.522 182.367L192.801 182.127L192.681 182.006L192.56 181.766L192.44 181.526L192.2 181.165L190.878 179.963L190.757 179.722L190.517 179.121L190.397 178.761L190.156 178.64L189.916 178.52L188.834 178.16H188.474L187.873 178.28L187.151 178.52L186.671 178.64L185.348 178.881L183.906 178.761L183.425 178.881L182.944 179.121L182.343 179.482L181.863 179.963L181.502 180.564L181.141 181.405L180.661 181.766L180.42 181.886L177.535 182.968L177.295 182.367L177.055 182.127L176.574 181.646L176.333 181.526L175.011 181.045L172.607 180.564L171.165 180.083L170.323 179.602L168.761 177.919L166.116 176.356L163.592 174.192L158.544 168.182L157.462 166.258L156.861 166.138L155.899 165.777L153.736 164.215L152.774 162.652L152.293 161.93L152.173 161.57L151.933 161.209L151.813 160.247L151.692 159.887L150.971 158.564L150.851 157.963V157.723V157.482L151.212 157.242H151.452L152.654 157.122H153.015L153.255 157.002L153.375 156.761V156.641L153.255 154.958V154.357L153.616 152.073V151.592V151.351L153.495 150.991L153.255 150.63L153.015 150.27L152.293 149.548L151.933 149.067L151.813 148.947H151.572L151.091 149.188L150.971 149.067L149.889 147.985L149.288 147.505L148.207 146.783L146.283 145.942L145.202 144.619L144.721 144.259L144.24 144.139L143.759 144.018L142.918 144.139L142.557 144.259L142.317 144.379L141.956 144.86L141.836 145.1H140.995L138.23 144.018L137.268 142.095L137.028 141.854L136.547 141.253L136.307 140.893L135.586 138.849V138.609L135.706 138.368L135.946 138.128L136.427 137.647L136.788 137.286V136.926L136.547 136.445L135.946 135.964L135.826 135.243V134.762L135.946 134.401L136.187 133.92L136.307 133.68L136.788 133.199L136.908 132.958V132.598V131.516L137.028 129.833V129.232V128.871L136.788 128.27V127.909L136.908 127.669L137.148 126.467L137.268 125.866L137.148 125.505L137.028 125.144L136.908 124.904L136.667 124.664L136.307 124.423L135.225 123.822L134.985 123.582L134.864 123.341V123.101V122.139L134.744 121.899L134.624 121.538L134.384 121.298L133.182 120.336L133.061 119.975V119.735L133.422 119.374L133.662 119.134L134.143 118.893L140.514 116.008L142.197 115.046L142.437 114.806L142.677 114.445L142.918 114.085V113.604V113.003L142.677 112.281L141.716 110.118L141.115 108.434L140.874 107.954L140.634 107.713L139.552 106.872L139.312 106.631L139.071 106.271L138.951 105.67L139.071 104.588L139.312 103.626L139.672 102.424L139.793 101.582L139.552 98.9375L139.192 97.2544L138.711 96.0523V95.2108L138.591 94.249L139.071 90.6426L139.552 89.0798L141.355 94.249L141.956 95.4512L142.677 96.4129L144.601 98.3364L146.043 99.4183L147.485 100.14L148.687 100.019L151.933 102.303L152.534 102.544L153.135 103.145L153.255 103.265L153.736 103.626L154.096 104.347L154.457 105.068L154.697 105.67V106.511L155.058 107.353L155.419 107.833L156.14 108.074L155.899 107.713L156.02 107.232L156.14 106.631L155.779 106.03L155.419 105.549L155.298 105.068L155.058 103.866L154.457 102.664L152.894 100.5L152.293 99.2981V98.0959L152.534 97.014L153.255 96.1725L154.457 95.8118L155.058 95.6916L158.784 95.9321L159.025 96.2927L158.904 97.2544L159.265 97.8555L162.15 99.779L165.275 102.303L165.756 102.905L165.996 103.506V104.107L165.876 105.189L165.996 105.79L166.597 107.232L167.318 109.516L167.799 110.478L168.641 111.199L170.323 111.921L171.285 112.161L172.247 112.522L172.848 112.642L175.011 112.161H175.973L177.055 112.402L177.776 112.882L184.146 118.292L186.671 119.615L187.272 120.336L187.512 121.538L187.392 122.5V123.221L187.632 123.461L188.113 123.702L188.474 124.063L188.714 124.423L188.834 124.904L188.594 126.948V127.909L188.954 129.112L189.796 130.194L191.959 131.877L194.604 134.762L195.686 135.603L196.888 136.204L197.489 136.445L197.969 136.565H199.051H199.652L200.494 136.325L200.974 136.204L203.979 136.685L206.504 136.805L207.465 137.286L208.427 138.128L211.071 141.253L211.792 142.335L212.033 143.537L211.552 144.259L210.59 144.86L208.667 145.701L207.585 146.423L206.984 146.783L206.023 147.024L203.018 148.587L202.657 148.827L202.176 149.067L200.373 149.428L199.893 149.668L199.532 150.029L199.051 150.991L198.691 151.111L198.09 150.991L197.609 150.63L196.647 149.668L196.287 149.428L195.565 149.308H194.964L194.844 149.428L195.085 149.548L195.325 149.668H195.926H196.046L196.287 149.789L196.527 150.149L197.128 150.75L197.849 151.351L198.691 151.712L199.532 151.231L199.652 151.111L200.133 150.51L200.373 150.39L200.974 150.029L201.215 149.909L201.696 149.789L202.898 149.909L203.499 149.789L204.941 149.188L206.624 148.947L207.105 148.827L208.908 147.625L209.509 147.505L209.869 147.384L211.191 146.062L211.672 145.822L212.273 145.581L212.874 145.461L213.355 145.341L213.956 145.1L214.437 144.619L214.918 143.537L215.519 143.057L216.961 142.816L217.682 142.456L218.403 141.975L219.125 141.854L219.846 141.975L220.687 142.335L222.25 143.177L223.812 144.499L225.014 145.942L225.495 147.745L225.736 147.144L225.976 146.903L226.216 146.783H226.457L227.058 147.024L227.659 147.264L228.26 147.625L228.741 148.106L229.101 148.587L229.462 149.548L230.544 154.958L230.784 155.198L230.904 155.319L230.784 155.559L230.544 156.04L230.303 156.16H229.943L229.342 156.04L227.178 156.28L226.938 156.401V156.881L226.817 157.002L226.096 157.122L225.856 157.002L225.615 156.761L225.375 156.28L225.135 156.04L224.654 156.16L224.534 156.28L224.413 156.401V156.761H224.774L224.894 157.002L224.774 157.723L225.014 158.324L224.654 158.564L224.173 158.685L223.812 158.805H222.971L222.61 158.925L222.37 159.165L222.25 160.007L221.889 160.608L221.168 161.089L220.447 161.45L217.562 162.051L216.721 162.532H217.201L217.923 162.652H218.283H218.764L219.605 162.291L219.966 162.171L220.687 161.93L221.649 161.45L222.37 161.329L222.731 161.81L222.61 162.411L221.529 163.373L221.288 164.094L221.048 164.575L220.327 164.936L218.644 165.176V165.417L219.605 165.777L220.086 165.898L220.567 165.657L220.807 165.537H222.25L222.731 165.657L222.971 165.777L223.211 166.018L223.452 166.138L224.053 166.258L225.014 166.859L225.255 167.22L225.135 167.701L224.654 168.182L223.933 168.542L223.091 168.903L220.567 169.264L220.086 169.143L219.846 168.663L219.365 167.581L219.605 169.264L219.726 169.504L220.206 169.865L220.447 170.225L220.567 170.826L220.327 171.548L219.966 172.269L219.365 172.75V172.87L219.846 173.231L219.726 173.591L219.245 173.952H218.644L219.004 174.433L219.485 174.794L220.086 175.154L221.048 175.274Z" fill="#7C7C7C" stroke="white" stroke-width="2" stroke-linecap="round" stroke-linejoin="round"/>
<path d="M145.322 238.748L145.202 238.989L144.601 238.868L144.24 238.388V237.787L144.601 237.426V237.907L144.841 238.147L145.322 238.748ZM143.519 235.983L143.759 236.464V237.185L143.519 237.666L143.038 237.546L142.798 237.666L142.437 237.787L142.197 237.666L141.956 237.546L141.475 237.907L141.355 238.147L141.475 238.267L141.836 238.388V238.508V238.748L141.716 238.989L142.076 239.71L142.437 240.431L143.519 241.633L143.879 242.475L143.399 242.956L143.038 242.715L142.557 242.114L142.317 241.874L141.956 241.633L141.475 241.393L141.235 241.273V241.153V240.672V240.431H140.754L140.153 239.95L140.033 239.71V239.349H140.153L140.273 239.59L140.634 239.71L140.754 239.59L140.634 239.349L140.394 238.989L140.153 238.388V238.147L140.273 237.787L140.394 237.426L138.951 236.224L138.591 236.104H138.11L137.869 235.983L137.99 235.623L137.749 235.382L136.908 234.3L136.788 234.06L136.667 233.699L136.307 233.339L136.187 232.978L136.307 232.617L136.547 232.377V232.136V231.415L136.066 229.612V229.011L136.307 228.77L137.268 228.289L137.629 228.41L137.869 228.53L137.99 228.77L138.591 229.492L138.711 229.612L139.071 229.852L140.634 231.415L141.355 231.896L142.197 233.339L143.519 234.541L143.639 235.142V235.502L143.519 235.983ZM136.667 227.929L135.826 228.049L135.465 228.289L135.345 228.53L135.105 229.251L134.985 229.492L134.384 229.732L133.662 229.612L133.061 229.371L132.701 229.131L132.581 229.492L132.34 229.852L132.1 229.973L131.739 229.852L131.619 229.492L131.499 228.53L131.379 228.049H131.018V227.448L131.379 226.005V225.284L131.258 224.683L131.018 224.322L130.537 224.082L130.778 223.842V223.601L130.537 223.24L130.297 222.639V222.519L130.537 221.437L130.657 220.956L130.898 220.716L131.379 220.836L131.739 221.197L131.98 221.557L132.22 221.798L133.662 223.12L134.143 223.721L134.384 223.962L135.345 224.202L135.706 224.443L135.826 224.923L135.946 225.164L136.667 225.765L136.788 226.126V226.486L137.028 226.967V227.328V227.688L136.667 227.929ZM123.686 211.339L124.046 212.181L125.489 214.224V214.705L125.609 214.825L125.729 214.946L126.571 215.426L126.691 215.667L127.412 216.749L127.652 217.35V217.59L127.532 217.951H127.292L127.172 217.831L127.051 217.23L126.811 217.109H126.09L125.849 216.989L125.369 216.629L125.128 216.388H124.888L124.167 216.268H123.926L123.566 215.907L123.205 215.426L122.844 215.066L122.243 214.946L121.162 215.066L121.041 214.946V214.705L121.282 214.344L121.402 214.104L121.041 213.864L120.801 213.984L120.681 213.503H120.44L120.32 213.864L120.08 213.623L119.719 212.782L119.118 212.06L118.998 211.82L119.118 211.58L119.359 211.459L119.719 211.58L119.96 211.459V211.219L119.599 210.738V209.656L119.96 208.815L120.801 208.454L121.763 208.574L122.003 208.815L122.243 209.175L122.604 209.416L123.085 209.536L123.325 209.776L123.566 210.377L123.686 211.339ZM103.132 180.323L103.612 180.925L103.853 181.526L103.733 182.006L103.492 181.886L103.252 181.766L103.011 181.646H102.771L103.011 182.127L103.252 182.367L103.372 182.728L103.492 183.209L103.612 183.569L103.973 183.93L104.454 184.05L104.694 184.411L104.935 184.771L105.295 185.733L105.536 186.094L106.016 186.454L106.137 186.695L106.257 187.296L106.497 187.536L106.978 188.017L107.098 188.498H106.978L106.738 188.739L106.617 188.979L106.858 189.219L107.339 189.34L107.579 189.7L107.819 190.662L108.3 191.504L109.021 192.105L109.502 192.706L109.622 193.788L109.382 193.667L108.661 193.066H108.541L108.661 193.667L109.021 194.148L109.983 195.11L110.223 195.23L110.464 195.35L110.584 195.471L110.704 195.711V196.432V196.913L110.945 197.033H111.305H111.786L112.147 197.274L112.387 197.634L112.507 198.115L112.387 198.476L112.748 198.957L112.988 199.798L112.868 200.64L112.387 201.241L112.147 199.438L111.906 198.957L111.185 197.995L110.824 198.236L110.464 198.356L110.704 198.596L111.666 200.64L111.906 201.722V202.082L111.666 202.323L111.305 202.203L110.704 202.082H109.983L109.502 202.203L109.142 202.443L108.781 202.684L108.3 202.924L107.94 202.804L104.935 201.241L104.213 200.52L102.651 199.919L102.29 199.678L101.208 198.115L100.728 197.875L100.607 197.755L100.848 196.793L100.367 195.711L96.16 189.7L95.7994 189.46L95.559 189.219L95.6792 188.859L95.1984 187.897L94.958 187.657L94.7176 187.056V186.575L95.4388 185.493L95.9196 184.411L96.16 183.81V183.209V182.006V181.405L96.4004 180.925L96.6408 180.684L97.0014 180.564L97.4822 180.444H98.0832H98.4438L99.2852 180.804H99.766L100.127 180.564L100.728 179.963L101.088 179.843L102.17 179.602L102.651 179.722L102.41 180.203L103.132 180.323ZM135.946 135.964L136.547 136.445L136.788 136.926V137.286L136.427 137.647L135.946 138.128L135.706 138.368L135.586 138.609V138.849L136.307 140.893L136.547 141.253L137.028 141.854L137.268 142.095L138.23 144.018L140.995 145.1H141.836L141.956 144.86L142.317 144.379L142.557 144.259L142.918 144.139L143.759 144.018L144.24 144.139L144.721 144.259L145.202 144.619L146.283 145.942L148.207 146.783L149.288 147.505L149.889 147.985L150.971 149.067L151.091 149.188L151.572 148.947H151.813L151.933 149.067L152.293 149.548L153.015 150.27L153.255 150.63L153.495 150.991L153.616 151.351V151.592V152.073L153.255 154.357V154.958L153.375 156.641V156.761L153.255 157.002L153.015 157.122H152.654L151.452 157.242H151.212L150.851 157.482V157.723V157.963L150.971 158.564L151.692 159.887L151.813 160.247L151.933 161.209L152.173 161.57L152.293 161.93L152.774 162.652L153.736 164.215L155.899 165.777L156.861 166.138L157.462 166.258L158.544 168.182L163.592 174.192L166.116 176.356L168.761 177.919L170.323 179.602L171.165 180.083L172.607 180.564L175.011 181.045L176.333 181.526L176.574 181.646L177.055 182.127L177.295 182.367L177.535 182.968L177.896 183.569L178.016 184.17V184.771L177.896 185.373L178.257 185.613L178.737 185.853H178.978L179.218 185.733H179.459V185.974V186.214L179.218 186.815L178.858 187.416L178.136 188.137L177.656 188.618L176.934 188.859L176.093 189.099H175.612L175.372 189.219L175.131 189.46L175.011 189.941L174.891 190.662L175.372 192.225V192.585L175.011 193.307L175.131 193.547L175.372 193.908V194.148L175.131 194.99L174.771 195.471L174.17 196.072L172.006 197.755L171.045 198.596L170.564 199.318L169.843 200.279L169.482 200.52L169.121 200.64L168.28 200.52L167.919 200.279L163.352 201.001L162.751 200.88L162.27 200.64L161.909 200.399L161.429 200.52L160.467 200.279L160.587 203.044L160.828 204.487L161.188 205.929L161.909 207.372L162.39 208.093L162.751 208.574L163.592 209.175L163.833 209.536L164.193 210.137L165.275 212.782L166.237 215.787L165.395 216.027L164.193 216.869L163.712 217.109L162.39 217.47L161.909 217.59L159.505 219.394L158.183 220.596L157.943 220.235L155.419 216.749L153.255 212.421L153.135 212.181L153.015 211.7L153.375 211.099L154.337 210.137L154.457 209.055L154.337 207.853L154.096 206.771L153.976 205.689L153.736 205.208L153.255 204.607L151.813 203.164L151.572 202.924L151.452 202.684L151.332 202.082L150.13 200.159L148.808 198.596L148.447 197.995L148.207 197.394L147.966 196.312L147.846 195.23L147.606 194.87L146.644 193.908L146.283 193.427L146.524 193.187V192.826L146.283 192.465L146.524 192.225H146.644L146.404 191.263L146.163 190.542L145.923 190.301L145.442 190.181L144.36 189.46L143.879 189.34L143.519 188.979L143.278 188.859L143.158 188.979L142.437 189.099H142.197L141.956 188.859L142.076 188.618L142.437 188.258L142.677 187.897V187.296L142.557 186.935L141.355 185.974L140.995 186.094L140.874 185.853L140.995 185.373V185.132L141.355 184.771V184.651V184.411L140.995 183.81L141.355 183.689H141.596H141.836L142.076 183.81L142.317 183.329L142.076 182.968H141.596L141.235 182.728L140.634 181.285L140.394 179.482L139.913 178.28L139.192 177.078L135.586 173.231L134.864 172.389L133.783 170.346L132.22 168.542L131.379 167.701L129.576 166.499L129.215 166.138L128.975 165.657L128.494 165.176L127.292 164.455L126.811 163.974L126.45 163.493V162.892V162.291L126.33 161.81L126.09 161.45L125.729 161.209L125.489 160.969L125.248 160.488L125.128 160.247L125.008 159.887V159.406V158.805L125.248 158.324V157.723L125.128 157.122L124.768 156.641L123.205 155.319L121.763 153.636L121.162 153.275L119.238 152.193L118.036 151.712L116.955 151.592H116.354L115.873 151.472L115.512 151.351L115.152 150.871L114.551 149.909L114.19 149.548L113.469 149.428L112.988 149.548L112.026 150.029L111.666 150.149H111.305L111.065 150.029L110.824 149.909L110.344 149.428H110.223H109.622L109.262 149.188L112.267 145.942L114.19 143.417L114.551 143.177L114.791 143.057L115.512 142.816H116.354L116.834 142.696L117.435 142.335L119.359 141.374L119.96 141.133H120.561L120.921 141.253L121.642 141.614L121.883 141.734H122.364L122.484 141.854L122.965 142.456L123.205 142.696L123.445 142.816L123.686 142.936H125.248L125.489 143.057L125.849 143.297L126.45 143.537H126.931L127.292 143.417L128.374 143.057L128.734 142.936L128.975 142.696L129.215 142.095V141.494V141.133L129.095 141.013L128.494 139.691L128.133 139.21L127.893 138.729L127.773 138.488L126.571 137.286L126.45 136.926L126.21 135.964L126.09 135.603L125.97 135.483L125.609 135.243L125.008 135.002L124.768 134.882L124.407 134.281L124.046 133.92L123.806 133.68L123.566 133.079V132.838L123.686 132.598L124.046 132.718L124.888 133.199L125.128 133.319L125.489 133.439H125.97L126.571 133.319L126.811 133.079L127.532 133.199L128.734 133.8L129.816 133.92L130.177 134.161L130.657 134.401L131.499 134.642L132.46 135.002L132.941 135.122L133.182 135.363L133.662 135.844L134.143 136.084L134.504 136.325H134.864H135.225L135.586 136.204L135.946 135.964Z" fill="#7C7C7C" stroke="white" stroke-width="2" stroke-linecap="round" stroke-linejoin="round"/>
</svg>
